1900 0 4 0           
10 Cubit 14.0 17 ACIS 22.0.2 Linux 24 Wed Feb 28 14:22:04 2018 
1 9.9999999999999995e-07 1e-10 
body $4 -1 -1 $-1 $5 $-1 $6 T -4.1275000000000004 -4.1275000000000004 5 4.1275000000000004 4.1275000000000004 5.0018703700000007 #
body $7 -1 -1 $-1 $8 $-1 $9 T -3.8100000000000001 -3.8100000000000001 5.1018703700000003 3.8100000000000001 3.8100000000000001 7.1018703700000003 #
body $10 -1 -1 $-1 $11 $-1 $12 T -10.5 -10.5 -0.59999999999999964 10.5 10.5 10.4 #
body $13 -1 -1 $-1 $14 $-1 $15 T -4.4450000000000003 -4.4450000000000003 4.897435185 4.4450000000000003 4.4450000000000003 4.8999999999999995 #
integer_attrib-name_attrib-gen-attrib $-1 -1 $16 $-1 $0 2 1 1 1 1 1 1 1 1 1 1 1 1 1 0 1 1 1 @8 CUBIT_ID 1 #
lump $17 -1 -1 $-1 $-1 $18 $0 T -4.1275000000000004 -4.1275000000000004 5 4.1275000000000004 4.1275000000000004 5.0018703700000007 #
transform $-1 -1 1 0 0 0 1 0 0 0 1 0 0 0 1 no_rotate no_reflect no_shear #
integer_attrib-name_attrib-gen-attrib $-1 -1 $19 $-1 $1 2 1 1 1 1 1 1 1 1 1 1 1 1 1 0 1 1 1 @8 CUBIT_ID 2 #
lump $20 -1 -1 $-1 $-1 $21 $1 T -3.8100000000000001 -3.8100000000000001 5.1018703700000003 3.8100000000000001 3.8100000000000001 7.1018703700000003 #
transform $-1 -1 1 0 0 0 1 0 0 0 1 0 0 0 1 no_rotate no_reflect no_shear #
integer_attrib-name_attrib-gen-attrib $-1 -1 $22 $-1 $2 2 1 1 1 1 1 1 1 1 1 1 1 1 1 0 1 1 1 @8 CUBIT_ID 4 #
lump $23 -1 -1 $-1 $-1 $24 $2 T -10.5 -10.5 -0.59999999999999964 10.5 10.5 10.4 #
transform $-1 -1 1 0 0 0 1 0 0 0 1 0 0 0 1 no_rotate no_reflect no_shear #
integer_attrib-name_attrib-gen-attrib $-1 -1 $25 $-1 $3 2 1 1 1 1 1 1 1 1 1 1 1 1 1 0 1 1 1 @8 CUBIT_ID 5 #
lump $26 -1 -1 $-1 $-1 $27 $3 T -4.4450000000000003 -4.4450000000000003 4.897435185 4.4450000000000003 4.4450000000000003 4.8999999999999995 #
transform $-1 -1 1 0 0 0 1 0 0 0 1 0 0 0 1 no_rotate no_reflect no_shear #
simple-snl-attrib $-1 -1 $-1 $4 $0 1 1 1 1 1 1 1 1 1 1 1 1 0 1 0 1 1 1 @17 NEW_SIMPLE_ATTRIB 1 @9 ENTITY_ID 0 3 1 -2147483648 -1 #
integer_attrib-name_attrib-gen-attrib $-1 -1 $28 $-1 $5 2 1 1 1 1 1 1 1 1 1 1 1 1 1 0 1 1 1 @8 CUBIT_ID 1 #
shell $-1 -1 -1 $-1 $-1 $-1 $29 $-1 $5 T -4.1275000000000004 -4.1275000000000004 5 4.1275000000000004 4.1275000000000004 5.0018703700000007 #
simple-snl-attrib $-1 -1 $-1 $7 $1 1 1 1 1 1 1 1 1 1 1 1 1 0 1 0 1 1 1 @17 NEW_SIMPLE_ATTRIB 1 @9 ENTITY_ID 0 3 2 -2147483648 -1 #
integer_attrib-name_attrib-gen-attrib $-1 -1 $30 $-1 $8 2 1 1 1 1 1 1 1 1 1 1 1 1 1 0 1 1 1 @8 CUBIT_ID 2 #
shell $-1 -1 -1 $-1 $-1 $-1 $31 $-1 $8 T -3.8100000000000001 -3.8100000000000001 5.1018703700000003 3.8100000000000001 3.8100000000000001 7.1018703700000003 #
simple-snl-attrib $-1 -1 $-1 $10 $2 1 1 1 1 1 1 1 1 1 1 1 1 0 1 0 1 1 1 @17 NEW_SIMPLE_ATTRIB 1 @9 ENTITY_ID 0 3 4 -2147483648 -1 #
integer_attrib-name_attrib-gen-attrib $-1 -1 $32 $-1 $11 2 1 1 1 1 1 1 1 1 1 1 1 1 1 0 1 1 1 @8 CUBIT_ID 5 #
shell $-1 -1 -1 $-1 $33 $-1 $34 $-1 $11 T -10.5 -10.5 -0.59999999999999964 10.5 10.5 10.4 #
simple-snl-attrib $-1 -1 $-1 $13 $3 1 1 1 1 1 1 1 1 1 1 1 1 0 1 0 1 1 1 @17 NEW_SIMPLE_ATTRIB 1 @9 ENTITY_ID 0 3 5 -2147483648 -1 #
integer_attrib-name_attrib-gen-attrib $-1 -1 $35 $-1 $14 2 1 1 1 1 1 1 1 1 1 1 1 1 1 0 1 1 1 @8 CUBIT_ID 6 #
shell $-1 -1 -1 $-1 $-1 $-1 $36 $-1 $14 T -4.4450000000000003 -4.4450000000000003 4.897435185 4.4450000000000003 4.4450000000000003 4.8999999999999995 #
simple-snl-attrib $-1 -1 $37 $17 $5 1 1 1 1 1 1 1 1 1 1 1 1 0 1 0 1 1 1 @17 NEW_SIMPLE_ATTRIB 1 @9 ENTITY_ID 0 3 1 -2147483648 -1 #
face $38 -1 -1 $-1 $39 $40 $18 $-1 $41 forward single T -4.1275000000000004 -4.1275000000000004 5.0018703700000007 4.1275000000000004 4.1275000000000004 5.0018703700000007 F #
simple-snl-attrib $-1 -1 $42 $20 $8 1 1 1 1 1 1 1 1 1 1 1 1 0 1 0 1 1 1 @17 NEW_SIMPLE_ATTRIB 1 @9 ENTITY_ID 0 3 2 -2147483648 -1 #
face $43 -1 -1 $-1 $44 $45 $21 $-1 $46 forward single T -3.8100000000000001 -3.8100000000000001 5.1018703700000003 3.8100000000000001 3.8100000000000001 7.1018703700000003 F #
simple-snl-attrib $-1 -1 $47 $23 $11 1 1 1 1 1 1 1 1 1 1 1 1 0 1 0 1 1 1 @17 NEW_SIMPLE_ATTRIB 1 @9 ENTITY_ID 0 3 5 -2147483648 -1 #
shell $-1 -1 -1 $-1 $-1 $-1 $48 $-1 $11 T -10 -10 -0.099999999999999645 10 10 9.9000000000000004 #
face $49 -1 -1 $-1 $50 $51 $24 $-1 $52 forward single T -10.5 -10.5 -0.59999999999999964 10.5 10.5 10.4 F #
simple-snl-attrib $-1 -1 $53 $26 $14 1 1 1 1 1 1 1 1 1 1 1 1 0 1 0 1 1 1 @17 NEW_SIMPLE_ATTRIB 1 @9 ENTITY_ID 0 3 6 -2147483648 -1 #
face $54 -1 -1 $-1 $55 $56 $27 $-1 $57 forward single T -4.4450000000000003 -4.4450000000000003 4.8999999999999995 4.4450000000000003 4.4450000000000003 4.8999999999999995 F #
simple-snl-attrib $-1 -1 $58 $28 $5 1 1 1 1 1 1 1 1 1 1 1 1 0 1 0 1 1 1 @17 NEW_SIMPLE_ATTRIB 3 @5 GROUP @23 material_1_density_-2.7 @31 estimator_1.cell.pulse.height.e 0 11 2 3 4 1942104522 1042746414 0 0 0 0 0 0 #
integer_attrib-name_attrib-gen-attrib $-1 -1 $59 $-1 $29 2 1 1 1 1 1 1 1 1 1 1 1 1 1 0 1 1 1 @8 CUBIT_ID 1 #
face $60 -1 -1 $-1 $61 $62 $18 $-1 $63 reversed single T -4.1275000000000004 -4.1275000000000004 5 4.1275000000000004 4.1275000000000004 5 F #
loop $-1 -1 -1 $-1 $-1 $64 $29 T -4.1275000000000004 -4.1275000000000004 5.0018703700000007 4.1275000000000004 4.1275000000000004 5.0018703700000007 unknown #
plane-surface $-1 -1 -1 $-1 0 0 5.0018703700000007 0 0 1 1 0 0 forward_v I I I I #
simple-snl-attrib $-1 -1 $65 $30 $8 1 1 1 1 1 1 1 1 1 1 1 1 0 1 0 1 1 1 @17 NEW_SIMPLE_ATTRIB 2 @5 GROUP @23 material_1_density_-2.7 0 7 1 3 1942104522 1 0 0 0 #
integer_attrib-name_attrib-gen-attrib $-1 -1 $66 $-1 $31 2 1 1 1 1 1 1 1 1 1 1 1 1 1 0 1 1 1 @8 CUBIT_ID 7 #
face $67 -1 -1 $-1 $68 $69 $21 $-1 $70 forward single T -3.8100000000000001 -3.8100000000000001 5.1018703700000003 3.8100000000000001 3.8100000000000001 5.1018703700000003 F #
loop $-1 -1 -1 $-1 $71 $72 $31 T -3.8100000000000001 -3.8100000000000001 5.1018703700000003 3.8100000000000001 3.8100000000000001 5.1018703700000003 unknown #
cone-surface $-1 -1 -1 $-1 0 0 6.1018703700000003 0 0 1 3.8100000000000001 0 0 1 I I 0 1 3.8100000000000001 forward I I I I #
simple-snl-attrib $-1 -1 $73 $32 $11 1 1 1 1 1 1 1 1 1 1 1 1 0 1 0 1 1 1 @17 NEW_SIMPLE_ATTRIB 2 @5 GROUP @16 termination.cell 0 7 1 2 554103896 0 0 0 0 #
face $74 -1 -1 $-1 $75 $76 $33 $-1 $77 reversed single T -10 -10 -0.099999999999999645 10 10 9.9000000000000004 F #
integer_attrib-name_attrib-gen-attrib $-1 -1 $78 $-1 $34 2 1 1 1 1 1 1 1 1 1 1 1 1 1 0 1 1 1 @8 CUBIT_ID 13 #
face $79 -1 -1 $-1 $80 $81 $24 $-1 $82 forward single T -10.5 -10.5 -0.59999999999999964 10.5 10.5 -0.59999999999999964 F #
loop $-1 -1 -1 $-1 $83 $84 $34 T -10.5 -10.5 -0.59999999999999964 10.5 10.5 -0.59999999999999964 u_sep $52 F #
cone-surface $-1 -1 -1 $-1 0 0 4.9000000000000004 0 0 1 10.5 0 0 1 I I 0 1 10.5 forward I I I I #
simple-snl-attrib $-1 -1 $85 $35 $14 1 1 1 1 1 1 1 1 1 1 1 1 0 1 0 1 1 1 @17 NEW_SIMPLE_ATTRIB 2 @5 GROUP @23 material_1_density_-2.7 0 7 1 3 1942104522 2 0 0 0 #
integer_attrib-name_attrib-gen-attrib $-1 -1 $86 $-1 $36 2 1 1 1 1 1 1 1 1 1 1 1 1 1 0 1 1 1 @8 CUBIT_ID 19 #
face $87 -1 -1 $-1 $88 $89 $27 $-1 $90 reversed single T -4.4450000000000003 -4.4450000000000003 4.897435185 4.4450000000000003 4.4450000000000003 4.897435185 F #
loop $-1 -1 -1 $-1 $-1 $91 $36 T -4.4450000000000003 -4.4450000000000003 4.8999999999999995 4.4450000000000003 4.4450000000000003 4.8999999999999995 unknown #
plane-surface $-1 -1 -1 $-1 0 0 4.8999999999999995 0 0 1 1 0 0 forward_v I I I I #
simple-snl-attrib $-1 -1 $-1 $37 $5 1 1 1 1 1 1 1 1 1 1 1 1 0 1 0 1 1 1 @17 NEW_SIMPLE_ATTRIB 2 @11 ENTITY_NAME @11 Calorimeter 0 0 #
simple-snl-attrib $-1 -1 $-1 $38 $29 1 1 1 1 1 1 1 1 1 1 1 1 0 1 0 1 1 1 @17 NEW_SIMPLE_ATTRIB 1 @9 ENTITY_ID 0 3 1 -2147483648 -1 #
integer_attrib-name_attrib-gen-attrib $-1 -1 $92 $-1 $39 2 1 1 1 1 1 1 1 1 1 1 1 1 1 0 1 1 1 @8 CUBIT_ID 2 #
face $93 -1 -1 $-1 $94 $95 $18 $-1 $96 reversed single T -4.1275000000000004 -4.1275000000000004 5 4.1275000000000004 -4.1275000000000004 5.0018703700000007 F #
loop $-1 -1 -1 $-1 $-1 $97 $39 T -4.1275000000000004 -4.1275000000000004 5 4.1275000000000004 4.1275000000000004 5 unknown #
plane-surface $-1 -1 -1 $-1 0 0 5 0 0 1 1 0 0 forward_v I I I I #
coedge $-1 -1 -1 $-1 $98 $99 $100 $101 forward $40 $-1 #
simple-snl-attrib $-1 -1 $-1 $42 $8 1 1 1 1 1 1 1 1 1 1 1 1 0 1 0 1 1 1 @17 NEW_SIMPLE_ATTRIB 2 @11 ENTITY_NAME @14 Infinite_plate 0 0 #
simple-snl-attrib $-1 -1 $-1 $43 $31 1 1 1 1 1 1 1 1 1 1 1 1 0 1 0 1 1 1 @17 NEW_SIMPLE_ATTRIB 1 @9 ENTITY_ID 0 3 7 -2147483648 -1 #
integer_attrib-name_attrib-gen-attrib $-1 -1 $102 $-1 $44 2 1 1 1 1 1 1 1 1 1 1 1 1 1 0 1 1 1 @8 CUBIT_ID 8 #
face $103 -1 -1 $-1 $-1 $104 $21 $-1 $105 forward single T -3.8100000000000001 -3.8100000000000001 7.1018703700000003 3.8100000000000001 3.8100000000000001 7.1018703700000003 F #
loop $-1 -1 -1 $-1 $-1 $106 $44 T -3.8100000000000001 -3.8100000000000001 5.1018703700000003 3.8100000000000001 3.8100000000000001 5.1018703700000003 unknown #
plane-surface $-1 -1 -1 $-1 0 0 5.1018703700000003 0 0 -1 -1 0 0 forward_v I I I I #
loop $-1 -1 -1 $-1 $-1 $107 $31 T -3.8100000000000001 -3.8100000000000001 7.1018703700000003 3.8100000000000001 3.8100000000000001 7.1018703700000003 unknown #
coedge $-1 -1 -1 $-1 $72 $72 $106 $108 reversed $45 $-1 #
simple-snl-attrib $-1 -1 $-1 $47 $11 1 1 1 1 1 1 1 1 1 1 1 1 0 1 0 1 1 1 @17 NEW_SIMPLE_ATTRIB 2 @11 ENTITY_NAME @9 Graveyard 0 0 #
integer_attrib-name_attrib-gen-attrib $-1 -1 $109 $-1 $48 2 1 1 1 1 1 1 1 1 1 1 1 1 1 0 1 1 1 @8 CUBIT_ID 16 #
face $110 -1 -1 $-1 $111 $112 $33 $-1 $113 reversed single T -10 -10 -0.099999999999999645 10 10 -0.099999999999999645 F #
loop $-1 -1 -1 $-1 $114 $115 $48 T -10 -10 -0.099999999999999645 10 10 -0.099999999999999645 u_sep $77 T #
cone-surface $-1 -1 -1 $-1 0 0 4.9000000000000004 0 0 1 10 0 0 1 I I 0 1 10 forward I I I I #
simple-snl-attrib $-1 -1 $-1 $49 $34 1 1 1 1 1 1 1 1 1 1 1 1 0 1 0 1 1 1 @17 NEW_SIMPLE_ATTRIB 1 @9 ENTITY_ID 0 3 13 -2147483648 -1 #
integer_attrib-name_attrib-gen-attrib $-1 -1 $116 $-1 $50 2 1 1 1 1 1 1 1 1 1 1 1 1 1 0 1 1 1 @8 CUBIT_ID 14 #
face $117 -1 -1 $-1 $-1 $118 $24 $-1 $119 forward single T -10.5 -10.5 10.4 10.5 10.5 10.4 F #
loop $-1 -1 -1 $-1 $-1 $120 $50 T -10.5 -10.5 -0.59999999999999964 10.5 10.5 -0.59999999999999964 unknown #
plane-surface $-1 -1 -1 $-1 0 0 -0.59999999999999964 0 0 -1 -1 0 0 forward_v I I I I #
loop $-1 -1 -1 $-1 $-1 $121 $34 T -10.5 -10.5 10.4 10.5 10.5 10.4 u_sep $52 F #
coedge $-1 -1 -1 $-1 $84 $84 $120 $122 reversed $51 $-1 #
simple-snl-attrib $-1 -1 $-1 $53 $14 1 1 1 1 1 1 1 1 1 1 1 1 0 1 0 1 1 1 @17 NEW_SIMPLE_ATTRIB 2 @11 ENTITY_NAME @10 Front_foil 0 0 #
simple-snl-attrib $-1 -1 $-1 $54 $36 1 1 1 1 1 1 1 1 1 1 1 1 0 1 0 1 1 1 @17 NEW_SIMPLE_ATTRIB 1 @9 ENTITY_ID 0 3 19 -2147483648 -1 #
integer_attrib-name_attrib-gen-attrib $-1 -1 $123 $-1 $55 2 1 1 1 1 1 1 1 1 1 1 1 1 1 0 1 1 1 @8 CUBIT_ID 20 #
face $124 -1 -1 $-1 $125 $126 $27 $-1 $127 reversed single T -4.4450000000000003 -4.4450000000000003 4.897435185 4.4450000000000003 -4.4450000000000003 4.8999999999999995 F #
loop $-1 -1 -1 $-1 $-1 $128 $55 T -4.4450000000000003 -4.4450000000000003 4.897435185 4.4450000000000003 4.4450000000000003 4.897435185 unknown #
plane-surface $-1 -1 -1 $-1 0 0 4.897435185 0 0 1 1 0 0 forward_v I I I I #
coedge $-1 -1 -1 $-1 $129 $130 $131 $132 forward $56 $-1 #
simple-snl-attrib $-1 -1 $-1 $60 $39 1 1 1 1 1 1 1 1 1 1 1 1 0 1 0 1 1 1 @17 NEW_SIMPLE_ATTRIB 1 @9 ENTITY_ID 0 3 2 -2147483648 -1 #
integer_attrib-name_attrib-gen-attrib $-1 -1 $133 $-1 $61 2 1 1 1 1 1 1 1 1 1 1 1 1 1 0 1 1 1 @8 CUBIT_ID 3 #
face $134 -1 -1 $-1 $135 $136 $18 $-1 $137 reversed single T -4.1275000000000004 -4.1275000000000004 5 -4.1275000000000004 4.1275000000000004 5.0018703700000007 F #
loop $-1 -1 -1 $-1 $-1 $138 $61 T -4.1275000000000004 -4.1275000000000004 5 4.1275000000000004 -4.1275000000000004 5.0018703700000007 unknown #
plane-surface $-1 -1 -1 $-1 0 -4.1275000000000004 5.0009351850000003 0 1 0 0 0 1 forward_v I I I I #
coedge $-1 -1 -1 $-1 $139 $140 $141 $142 forward $62 $-1 #
coedge $-1 -1 -1 $-1 $143 $64 $144 $145 forward $40 $-1 #
coedge $-1 -1 -1 $-1 $64 $143 $146 $147 forward $40 $-1 #
coedge $-1 -1 -1 $-1 $148 $149 $64 $101 reversed $150 $-1 #
edge $151 -1 -1 $-1 $152 -4.1275000000000004 $153 4.1275000000000004 $100 $154 forward @7 unknown T 4.1275000000000004 -4.1275000000000004 5.0018703700000007 4.1275000000000004 4.1275000000000004 5.0018703700000007 #
simple-snl-attrib $-1 -1 $-1 $67 $44 1 1 1 1 1 1 1 1 1 1 1 1 0 1 0 1 1 1 @17 NEW_SIMPLE_ATTRIB 1 @9 ENTITY_ID 0 3 8 -2147483648 -1 #
integer_attrib-name_attrib-gen-attrib $-1 -1 $155 $-1 $68 2 1 1 1 1 1 1 1 1 1 1 1 1 1 0 1 1 1 @8 CUBIT_ID 9 #
loop $-1 -1 -1 $-1 $-1 $156 $68 T -3.8100000000000001 -3.8100000000000001 7.1018703700000003 3.8100000000000001 3.8100000000000001 7.1018703700000003 unknown #
plane-surface $-1 -1 -1 $-1 0 0 7.1018703700000003 0 0 1 1 0 0 forward_v I I I I #
coedge $-1 -1 -1 $-1 $106 $106 $72 $108 forward $69 $-1 #
coedge $-1 -1 -1 $-1 $107 $107 $156 $157 reversed $71 $-1 #
edge $158 -1 -1 $-1 $159 0 $159 6.2831853071795862 $106 $160 forward @7 unknown T -3.8100000000000001 -3.8100000000000001 5.1018703700000003 3.8100000000000001 3.8100000000000001 5.1018703700000003 #
simple-snl-attrib $-1 -1 $-1 $74 $48 1 1 1 1 1 1 1 1 1 1 1 1 0 1 0 1 1 1 @17 NEW_SIMPLE_ATTRIB 1 @9 ENTITY_ID 0 3 16 -2147483648 -1 #
integer_attrib-name_attrib-gen-attrib $-1 -1 $161 $-1 $75 2 1 1 1 1 1 1 1 1 1 1 1 1 1 0 1 1 1 @8 CUBIT_ID 17 #
face $162 -1 -1 $-1 $-1 $163 $33 $-1 $164 reversed single T -10 -10 9.9000000000000004 10 10 9.9000000000000004 F #
loop $-1 -1 -1 $-1 $-1 $165 $75 T -10 -10 -0.099999999999999645 10 10 -0.099999999999999645 unknown #
plane-surface $-1 -1 -1 $-1 0 0 -0.099999999999999645 0 0 -1 -1 0 0 forward_v I I I I #
loop $-1 -1 -1 $-1 $-1 $166 $48 T -10 -10 9.9000000000000004 10 10 9.9000000000000004 u_sep $77 T #
coedge $-1 -1 -1 $-1 $115 $115 $165 $167 forward $76 $-1 #
simple-snl-attrib $-1 -1 $-1 $79 $50 1 1 1 1 1 1 1 1 1 1 1 1 0 1 0 1 1 1 @17 NEW_SIMPLE_ATTRIB 1 @9 ENTITY_ID 0 3 14 -2147483648 -1 #
integer_attrib-name_attrib-gen-attrib $-1 -1 $168 $-1 $80 2 1 1 1 1 1 1 1 1 1 1 1 1 1 0 1 1 1 @8 CUBIT_ID 15 #
loop $-1 -1 -1 $-1 $-1 $169 $80 T -10.5 -10.5 10.4 10.5 10.5 10.4 unknown #
plane-surface $-1 -1 -1 $-1 0 0 10.4 0 0 1 1 0 0 forward_v I I I I #
coedge $-1 -1 -1 $-1 $120 $120 $84 $122 forward $81 $-1 #
coedge $-1 -1 -1 $-1 $121 $121 $169 $170 reversed $83 $-1 #
edge $171 -1 -1 $-1 $172 0 $172 6.2831853071795862 $120 $173 forward @7 unknown T -10.5 -10.5 -0.59999999999999964 10.5 10.5 -0.59999999999999964 #
simple-snl-attrib $-1 -1 $-1 $87 $55 1 1 1 1 1 1 1 1 1 1 1 1 0 1 0 1 1 1 @17 NEW_SIMPLE_ATTRIB 1 @9 ENTITY_ID 0 3 20 -2147483648 -1 #
integer_attrib-name_attrib-gen-attrib $-1 -1 $174 $-1 $88 2 1 1 1 1 1 1 1 1 1 1 1 1 1 0 1 1 1 @8 CUBIT_ID 21 #
face $175 -1 -1 $-1 $176 $177 $27 $-1 $178 reversed single T -4.4450000000000003 -4.4450000000000003 4.897435185 -4.4450000000000003 4.4450000000000003 4.8999999999999995 F #
loop $-1 -1 -1 $-1 $-1 $179 $88 T -4.4450000000000003 -4.4450000000000003 4.897435185 4.4450000000000003 -4.4450000000000003 4.8999999999999995 unknown #
plane-surface $-1 -1 -1 $-1 0 -4.4450000000000003 4.8987175924999997 0 1 0 0 0 1 forward_v I I I I #
coedge $-1 -1 -1 $-1 $180 $181 $182 $183 forward $89 $-1 #
coedge $-1 -1 -1 $-1 $184 $91 $185 $186 forward $56 $-1 #
coedge $-1 -1 -1 $-1 $91 $184 $187 $188 forward $56 $-1 #
coedge $-1 -1 -1 $-1 $189 $190 $91 $132 reversed $191 $-1 #
edge $192 -1 -1 $-1 $193 -4.4450000000000003 $194 4.4450000000000003 $131 $195 forward @7 unknown T 4.4450000000000003 -4.4450000000000003 4.8999999999999995 4.4450000000000003 4.4450000000000003 4.8999999999999995 #
simple-snl-attrib $-1 -1 $-1 $93 $61 1 1 1 1 1 1 1 1 1 1 1 1 0 1 0 1 1 1 @17 NEW_SIMPLE_ATTRIB 1 @9 ENTITY_ID 0 3 3 -2147483648 -1 #
integer_attrib-name_attrib-gen-attrib $-1 -1 $196 $-1 $94 2 1 1 1 1 1 1 1 1 1 1 1 1 1 0 1 1 1 @8 CUBIT_ID 4 #
face $197 -1 -1 $-1 $198 $199 $18 $-1 $200 reversed single T -4.1275000000000004 4.1275000000000004 5 4.1275000000000004 4.1275000000000004 5.0018703700000007 F #
loop $-1 -1 -1 $-1 $-1 $201 $94 T -4.1275000000000004 -4.1275000000000004 5 -4.1275000000000004 4.1275000000000004 5.0018703700000007 unknown #
plane-surface $-1 -1 -1 $-1 -4.1275000000000004 0 5.0009351850000003 1 0 0 0 0 -1 forward_v I I I I #
coedge $-1 -1 -1 $-1 $202 $146 $203 $204 forward $95 $-1 #
coedge $-1 -1 -1 $-1 $205 $97 $202 $206 forward $62 $-1 #
coedge $-1 -1 -1 $-1 $97 $205 $207 $208 forward $62 $-1 #
coedge $-1 -1 -1 $-1 $149 $148 $97 $142 reversed $150 $-1 #
edge $209 -1 -1 $-1 $210 -4.1275000000000004 $211 4.1275000000000004 $141 $212 forward @7 unknown T 4.1275000000000004 -4.1275000000000004 5 4.1275000000000004 4.1275000000000004 5 #
coedge $-1 -1 -1 $-1 $99 $98 $213 $214 forward $40 $-1 #
coedge $-1 -1 -1 $-1 $215 $216 $98 $145 reversed $199 $-1 #
edge $217 -1 -1 $-1 $153 -4.1275000000000004 $218 4.1275000000000004 $144 $219 forward @7 unknown T -4.1275000000000004 4.1275000000000004 5.0018703700000007 4.1275000000000004 4.1275000000000004 5.0018703700000007 #
coedge $-1 -1 -1 $-1 $138 $220 $99 $147 reversed $95 $-1 #
edge $221 -1 -1 $-1 $222 -4.1275000000000004 $152 4.1275000000000004 $146 $223 forward @7 unknown T -4.1275000000000004 -4.1275000000000004 5.0018703700000007 4.1275000000000004 -4.1275000000000004 5.0018703700000007 #
coedge $-1 -1 -1 $-1 $141 $100 $220 $224 forward $150 $-1 #
coedge $-1 -1 -1 $-1 $100 $141 $215 $225 reversed $150 $-1 #
loop $-1 -1 -1 $-1 $-1 $148 $198 T 4.1275000000000004 -4.1275000000000004 5 4.1275000000000004 4.1275000000000004 5.0018703700000007 unknown #
integer_attrib-name_attrib-gen-attrib $-1 -1 $226 $-1 $101 2 1 1 1 1 1 1 1 1 1 1 1 1 1 0 1 1 1 @8 CUBIT_ID 1 #
vertex $227 -1 -1 $-1 $101 $228 #
vertex $229 -1 -1 $-1 $101 $230 #
straight-curve $-1 -1 -1 $-1 4.1275000000000004 0 5.0018703700000007 0 1 0 I I #
simple-snl-attrib $-1 -1 $-1 $103 $68 1 1 1 1 1 1 1 1 1 1 1 1 0 1 0 1 1 1 @17 NEW_SIMPLE_ATTRIB 1 @9 ENTITY_ID 0 3 9 -2147483648 -1 #
coedge $-1 -1 -1 $-1 $156 $156 $107 $157 forward $104 $-1 #
edge $231 -1 -1 $-1 $232 0 $232 6.2831853071795862 $156 $233 forward @7 unknown T -3.8100000000000001 -3.8100000000000001 7.1018703700000003 3.8100000000000001 3.8100000000000001 7.1018703700000003 #
integer_attrib-name_attrib-gen-attrib $-1 -1 $234 $-1 $108 2 1 1 1 1 1 1 1 1 1 1 1 1 1 0 1 1 1 @8 CUBIT_ID 13 #
vertex $235 -1 -1 $-1 $108 $236 #
ellipse-curve $-1 -1 -1 $-1 0 0 5.1018703700000003 0 0 -1 3.8100000000000001 0 0 1 I I #
simple-snl-attrib $-1 -1 $-1 $110 $75 1 1 1 1 1 1 1 1 1 1 1 1 0 1 0 1 1 1 @17 NEW_SIMPLE_ATTRIB 1 @9 ENTITY_ID 0 3 17 -2147483648 -1 #
integer_attrib-name_attrib-gen-attrib $-1 -1 $237 $-1 $111 2 1 1 1 1 1 1 1 1 1 1 1 1 1 0 1 1 1 @8 CUBIT_ID 18 #
loop $-1 -1 -1 $-1 $-1 $238 $111 T -10 -10 9.9000000000000004 10 10 9.9000000000000004 unknown #
plane-surface $-1 -1 -1 $-1 0 0 9.9000000000000004 0 0 1 1 0 0 forward_v I I I I #
coedge $-1 -1 -1 $-1 $165 $165 $115 $167 reversed $112 $-1 #
coedge $-1 -1 -1 $-1 $166 $166 $238 $239 forward $114 $-1 #
edge $240 -1 -1 $-1 $241 0 $241 6.2831853071795862 $165 $242 forward @7 unknown T -10 -10 -0.099999999999999645 10 10 -0.099999999999999645 #
simple-snl-attrib $-1 -1 $-1 $117 $80 1 1 1 1 1 1 1 1 1 1 1 1 0 1 0 1 1 1 @17 NEW_SIMPLE_ATTRIB 1 @9 ENTITY_ID 0 3 15 -2147483648 -1 #
coedge $-1 -1 -1 $-1 $169 $169 $121 $170 forward $118 $-1 #
edge $243 -1 -1 $-1 $244 0 $244 6.2831853071795862 $169 $245 forward @7 unknown T -10.5 -10.5 10.4 10.5 10.5 10.4 #
integer_attrib-name_attrib-gen-attrib $-1 -1 $246 $-1 $122 2 1 1 1 1 1 1 1 1 1 1 1 1 1 0 1 1 1 @8 CUBIT_ID 17 #
vertex $247 -1 -1 $-1 $122 $248 #
ellipse-curve $-1 -1 -1 $-1 0 0 -0.59999999999999964 0 0 -1 10.5 0 0 1 I I #
simple-snl-attrib $-1 -1 $-1 $124 $88 1 1 1 1 1 1 1 1 1 1 1 1 0 1 0 1 1 1 @17 NEW_SIMPLE_ATTRIB 1 @9 ENTITY_ID 0 3 21 -2147483648 -1 #
integer_attrib-name_attrib-gen-attrib $-1 -1 $249 $-1 $125 2 1 1 1 1 1 1 1 1 1 1 1 1 1 0 1 1 1 @8 CUBIT_ID 22 #
face $250 -1 -1 $-1 $251 $252 $27 $-1 $253 reversed single T -4.4450000000000003 4.4450000000000003 4.897435185 4.4450000000000003 4.4450000000000003 4.8999999999999995 F #
loop $-1 -1 -1 $-1 $-1 $254 $125 T -4.4450000000000003 -4.4450000000000003 4.897435185 -4.4450000000000003 4.4450000000000003 4.8999999999999995 unknown #
plane-surface $-1 -1 -1 $-1 -4.4450000000000003 0 4.8987175924999997 1 0 0 0 0 -1 forward_v I I I I #
coedge $-1 -1 -1 $-1 $255 $187 $256 $257 forward $126 $-1 #
coedge $-1 -1 -1 $-1 $258 $128 $255 $259 forward $89 $-1 #
coedge $-1 -1 -1 $-1 $128 $258 $260 $261 forward $89 $-1 #
coedge $-1 -1 -1 $-1 $190 $189 $128 $183 reversed $191 $-1 #
edge $262 -1 -1 $-1 $263 -4.4450000000000003 $264 4.4450000000000003 $182 $265 forward @7 unknown T 4.4450000000000003 -4.4450000000000003 4.897435185 4.4450000000000003 4.4450000000000003 4.897435185 #
coedge $-1 -1 -1 $-1 $130 $129 $266 $267 forward $56 $-1 #
coedge $-1 -1 -1 $-1 $268 $269 $129 $186 reversed $252 $-1 #
edge $270 -1 -1 $-1 $194 -4.4450000000000003 $271 4.4450000000000003 $185 $272 forward @7 unknown T -4.4450000000000003 4.4450000000000003 4.8999999999999995 4.4450000000000003 4.4450000000000003 4.8999999999999995 #
coedge $-1 -1 -1 $-1 $179 $273 $130 $188 reversed $126 $-1 #
edge $274 -1 -1 $-1 $275 -4.4450000000000003 $193 4.4450000000000003 $187 $276 forward @7 unknown T -4.4450000000000003 -4.4450000000000003 4.8999999999999995 4.4450000000000003 -4.4450000000000003 4.8999999999999995 #
coedge $-1 -1 -1 $-1 $182 $131 $273 $277 forward $191 $-1 #
coedge $-1 -1 -1 $-1 $131 $182 $268 $278 reversed $191 $-1 #
loop $-1 -1 -1 $-1 $-1 $189 $251 T 4.4450000000000003 -4.4450000000000003 4.897435185 4.4450000000000003 4.4450000000000003 4.8999999999999995 unknown #
integer_attrib-name_attrib-gen-attrib $-1 -1 $279 $-1 $132 2 1 1 1 1 1 1 1 1 1 1 1 1 1 0 1 1 1 @8 CUBIT_ID 21 #
vertex $280 -1 -1 $-1 $132 $281 #
vertex $282 -1 -1 $-1 $132 $283 #
straight-curve $-1 -1 -1 $-1 4.4450000000000003 0 4.8999999999999995 0 1 0 I I #
simple-snl-attrib $-1 -1 $-1 $134 $94 1 1 1 1 1 1 1 1 1 1 1 1 0 1 0 1 1 1 @17 NEW_SIMPLE_ATTRIB 1 @9 ENTITY_ID 0 3 4 -2147483648 -1 #
integer_attrib-name_attrib-gen-attrib $-1 -1 $284 $-1 $135 2 1 1 1 1 1 1 1 1 1 1 1 1 1 0 1 1 1 @8 CUBIT_ID 5 #
face $285 -1 -1 $-1 $-1 $150 $18 $-1 $286 reversed single T 4.1275000000000004 -4.1275000000000004 5 4.1275000000000004 4.1275000000000004 5.0018703700000007 F #
loop $-1 -1 -1 $-1 $-1 $215 $135 T -4.1275000000000004 4.1275000000000004 5 4.1275000000000004 4.1275000000000004 5.0018703700000007 unknown #
plane-surface $-1 -1 -1 $-1 0 4.1275000000000004 5.0009351850000003 0 -1 0 0 0 -1 forward_v I I I I #
coedge $-1 -1 -1 $-1 $287 $213 $216 $288 forward $136 $-1 #
coedge $-1 -1 -1 $-1 $220 $138 $139 $206 reversed $95 $-1 #
coedge $-1 -1 -1 $-1 $213 $287 $138 $204 reversed $136 $-1 #
edge $289 -1 -1 $-1 $222 -0.00093518500000000005 $290 0.00093518500000000005 $203 $291 forward @7 unknown T -4.1275000000000004 -4.1275000000000004 5 -4.1275000000000004 -4.1275000000000004 5.0018703700000007 #
coedge $-1 -1 -1 $-1 $140 $139 $287 $292 forward $62 $-1 #
edge $293 -1 -1 $-1 $211 -4.1275000000000004 $290 4.1275000000000004 $202 $294 forward @7 unknown T -4.1275000000000004 -4.1275000000000004 5 4.1275000000000004 -4.1275000000000004 5 #
coedge $-1 -1 -1 $-1 $216 $215 $140 $208 reversed $199 $-1 #
edge $295 -1 -1 $-1 $296 -4.1275000000000004 $210 4.1275000000000004 $207 $297 forward @7 unknown T -4.1275000000000004 4.1275000000000004 5 4.1275000000000004 4.1275000000000004 5 #
integer_attrib-name_attrib-gen-attrib $-1 -1 $298 $-1 $142 2 1 1 1 1 1 1 1 1 1 1 1 1 1 0 1 1 1 @8 CUBIT_ID 5 #
vertex $299 -1 -1 $-1 $142 $300 #
vertex $301 -1 -1 $-1 $224 $302 #
straight-curve $-1 -1 -1 $-1 4.1275000000000004 0 5 0 -1 0 I I #
coedge $-1 -1 -1 $-1 $201 $203 $143 $214 reversed $136 $-1 #
edge $303 -1 -1 $-1 $218 -4.1275000000000004 $222 4.1275000000000004 $213 $304 forward @7 unknown T -4.1275000000000004 -4.1275000000000004 5.0018703700000007 -4.1275000000000004 4.1275000000000004 5.0018703700000007 #
coedge $-1 -1 -1 $-1 $207 $144 $149 $225 forward $199 $-1 #
coedge $-1 -1 -1 $-1 $144 $207 $201 $288 reversed $199 $-1 #
integer_attrib-name_attrib-gen-attrib $-1 -1 $305 $-1 $145 2 1 1 1 1 1 1 1 1 1 1 1 1 1 0 1 1 1 @8 CUBIT_ID 2 #
vertex $306 -1 -1 $-1 $145 $307 #
straight-curve $-1 -1 -1 $-1 0 4.1275000000000004 5.0018703700000007 -1 0 0 I I #
coedge $-1 -1 -1 $-1 $146 $202 $148 $224 reversed $95 $-1 #
integer_attrib-name_attrib-gen-attrib $-1 -1 $308 $-1 $147 2 1 1 1 1 1 1 1 1 1 1 1 1 1 0 1 1 1 @8 CUBIT_ID 4 #
vertex $309 -1 -1 $-1 $214 $310 #
straight-curve $-1 -1 -1 $-1 0 -4.1275000000000004 5.0018703700000007 1 0 0 I I #
edge $311 -1 -1 $-1 $152 -0.00093518500000000005 $211 0.00093518500000000005 $148 $312 forward @7 unknown T 4.1275000000000004 -4.1275000000000004 5 4.1275000000000004 -4.1275000000000004 5.0018703700000007 #
edge $313 -1 -1 $-1 $153 -0.00093518500000000005 $210 0.00093518500000000005 $149 $314 forward @7 unknown T 4.1275000000000004 4.1275000000000004 5 4.1275000000000004 4.1275000000000004 5.0018703700000007 #
simple-snl-attrib $-1 -1 $-1 $151 $101 1 1 1 1 1 1 1 1 1 1 1 1 0 1 0 1 1 1 @17 NEW_SIMPLE_ATTRIB 1 @9 ENTITY_ID 0 3 1 -2147483648 -1 #
integer_attrib-name_attrib-gen-attrib $-1 -1 $315 $-1 $152 2 1 1 1 1 1 1 1 1 1 1 1 1 1 0 1 1 1 @8 CUBIT_ID 1 #
point $-1 -1 -1 $-1 4.1275000000000004 -4.1275000000000004 5.0018703700000007 #
integer_attrib-name_attrib-gen-attrib $-1 -1 $316 $-1 $153 2 1 1 1 1 1 1 1 1 1 1 1 1 1 0 1 1 1 @8 CUBIT_ID 2 #
point $-1 -1 -1 $-1 4.1275000000000004 4.1275000000000004 5.0018703700000007 #
integer_attrib-name_attrib-gen-attrib $-1 -1 $317 $-1 $157 2 1 1 1 1 1 1 1 1 1 1 1 1 1 0 1 1 1 @8 CUBIT_ID 14 #
vertex $318 -1 -1 $-1 $157 $319 #
ellipse-curve $-1 -1 -1 $-1 0 0 7.1018703700000003 0 0 1 3.8100000000000001 0 0 1 I I #
simple-snl-attrib $-1 -1 $-1 $158 $108 1 1 1 1 1 1 1 1 1 1 1 1 0 1 0 1 1 1 @17 NEW_SIMPLE_ATTRIB 1 @9 ENTITY_ID 0 3 13 -2147483648 -1 #
integer_attrib-name_attrib-gen-attrib $-1 -1 $320 $-1 $159 2 1 1 1 1 1 1 1 1 1 1 1 1 1 0 1 1 1 @8 CUBIT_ID 9 #
point $-1 -1 -1 $-1 3.8100000000000001 0 5.1018703700000003 #
simple-snl-attrib $-1 -1 $-1 $162 $111 1 1 1 1 1 1 1 1 1 1 1 1 0 1 0 1 1 1 @17 NEW_SIMPLE_ATTRIB 1 @9 ENTITY_ID 0 3 18 -2147483648 -1 #
coedge $-1 -1 -1 $-1 $238 $238 $166 $239 reversed $163 $-1 #
edge $321 -1 -1 $-1 $322 0 $322 6.2831853071795862 $238 $323 forward @7 unknown T -10 -10 9.9000000000000004 10 10 9.9000000000000004 #
integer_attrib-name_attrib-gen-attrib $-1 -1 $324 $-1 $167 2 1 1 1 1 1 1 1 1 1 1 1 1 1 0 1 1 1 @8 CUBIT_ID 19 #
vertex $325 -1 -1 $-1 $167 $326 #
ellipse-curve $-1 -1 -1 $-1 0 0 -0.099999999999999645 0 0 -1 10 0 0 1 I I #
integer_attrib-name_attrib-gen-attrib $-1 -1 $327 $-1 $170 2 1 1 1 1 1 1 1 1 1 1 1 1 1 0 1 1 1 @8 CUBIT_ID 18 #
vertex $328 -1 -1 $-1 $170 $329 #
ellipse-curve $-1 -1 -1 $-1 0 0 10.4 0 0 1 10.5 0 0 1 I I #
simple-snl-attrib $-1 -1 $-1 $171 $122 1 1 1 1 1 1 1 1 1 1 1 1 0 1 0 1 1 1 @17 NEW_SIMPLE_ATTRIB 1 @9 ENTITY_ID 0 3 17 -2147483648 -1 #
integer_attrib-name_attrib-gen-attrib $-1 -1 $330 $-1 $172 2 1 1 1 1 1 1 1 1 1 1 1 1 1 0 1 1 1 @8 CUBIT_ID 13 #
point $-1 -1 -1 $-1 10.5 0 -0.59999999999999964 #
simple-snl-attrib $-1 -1 $-1 $175 $125 1 1 1 1 1 1 1 1 1 1 1 1 0 1 0 1 1 1 @17 NEW_SIMPLE_ATTRIB 1 @9 ENTITY_ID 0 3 22 -2147483648 -1 #
integer_attrib-name_attrib-gen-attrib $-1 -1 $331 $-1 $176 2 1 1 1 1 1 1 1 1 1 1 1 1 1 0 1 1 1 @8 CUBIT_ID 23 #
face $332 -1 -1 $-1 $-1 $191 $27 $-1 $333 reversed single T 4.4450000000000003 -4.4450000000000003 4.897435185 4.4450000000000003 4.4450000000000003 4.8999999999999995 F #
loop $-1 -1 -1 $-1 $-1 $268 $176 T -4.4450000000000003 4.4450000000000003 4.897435185 4.4450000000000003 4.4450000000000003 4.8999999999999995 unknown #
plane-surface $-1 -1 -1 $-1 0 4.4450000000000003 4.8987175924999997 0 -1 0 0 0 -1 forward_v I I I I #
coedge $-1 -1 -1 $-1 $334 $266 $269 $335 forward $177 $-1 #
coedge $-1 -1 -1 $-1 $273 $179 $180 $259 reversed $126 $-1 #
coedge $-1 -1 -1 $-1 $266 $334 $179 $257 reversed $177 $-1 #
edge $336 -1 -1 $-1 $275 -0.0012824074999999999 $337 0.0012824074999999999 $256 $338 forward @7 unknown T -4.4450000000000003 -4.4450000000000003 4.897435185 -4.4450000000000003 -4.4450000000000003 4.8999999999999995 #
coedge $-1 -1 -1 $-1 $181 $180 $334 $339 forward $89 $-1 #
edge $340 -1 -1 $-1 $264 -4.4450000000000003 $337 4.4450000000000003 $255 $341 forward @7 unknown T -4.4450000000000003 -4.4450000000000003 4.897435185 4.4450000000000003 -4.4450000000000003 4.897435185 #
coedge $-1 -1 -1 $-1 $269 $268 $181 $261 reversed $252 $-1 #
edge $342 -1 -1 $-1 $343 -4.4450000000000003 $263 4.4450000000000003 $260 $344 forward @7 unknown T -4.4450000000000003 4.4450000000000003 4.897435185 4.4450000000000003 4.4450000000000003 4.897435185 #
integer_attrib-name_attrib-gen-attrib $-1 -1 $345 $-1 $183 2 1 1 1 1 1 1 1 1 1 1 1 1 1 0 1 1 1 @8 CUBIT_ID 25 #
vertex $346 -1 -1 $-1 $183 $347 #
vertex $348 -1 -1 $-1 $277 $349 #
straight-curve $-1 -1 -1 $-1 4.4450000000000003 0 4.897435185 0 -1 0 I I #
coedge $-1 -1 -1 $-1 $254 $256 $184 $267 reversed $177 $-1 #
edge $350 -1 -1 $-1 $271 -4.4450000000000003 $275 4.4450000000000003 $266 $351 forward @7 unknown T -4.4450000000000003 -4.4450000000000003 4.8999999999999995 -4.4450000000000003 4.4450000000000003 4.8999999999999995 #
coedge $-1 -1 -1 $-1 $260 $185 $190 $278 forward $252 $-1 #
coedge $-1 -1 -1 $-1 $185 $260 $254 $335 reversed $252 $-1 #
integer_attrib-name_attrib-gen-attrib $-1 -1 $352 $-1 $186 2 1 1 1 1 1 1 1 1 1 1 1 1 1 0 1 1 1 @8 CUBIT_ID 22 #
vertex $353 -1 -1 $-1 $186 $354 #
straight-curve $-1 -1 -1 $-1 0 4.4450000000000003 4.8999999999999995 -1 0 0 I I #
coedge $-1 -1 -1 $-1 $187 $255 $189 $277 reversed $126 $-1 #
integer_attrib-name_attrib-gen-attrib $-1 -1 $355 $-1 $188 2 1 1 1 1 1 1 1 1 1 1 1 1 1 0 1 1 1 @8 CUBIT_ID 24 #
vertex $356 -1 -1 $-1 $267 $357 #
straight-curve $-1 -1 -1 $-1 0 -4.4450000000000003 4.8999999999999995 1 0 0 I I #
edge $358 -1 -1 $-1 $193 -0.0012824074999999999 $264 0.0012824074999999999 $189 $359 forward @7 unknown T 4.4450000000000003 -4.4450000000000003 4.897435185 4.4450000000000003 -4.4450000000000003 4.8999999999999995 #
edge $360 -1 -1 $-1 $194 -0.0012824074999999999 $263 0.0012824074999999999 $190 $361 forward @7 unknown T 4.4450000000000003 4.4450000000000003 4.897435185 4.4450000000000003 4.4450000000000003 4.8999999999999995 #
simple-snl-attrib $-1 -1 $-1 $192 $132 1 1 1 1 1 1 1 1 1 1 1 1 0 1 0 1 1 1 @17 NEW_SIMPLE_ATTRIB 1 @9 ENTITY_ID 0 3 21 -2147483648 -1 #
integer_attrib-name_attrib-gen-attrib $-1 -1 $362 $-1 $193 2 1 1 1 1 1 1 1 1 1 1 1 1 1 0 1 1 1 @8 CUBIT_ID 17 #
point $-1 -1 -1 $-1 4.4450000000000003 -4.4450000000000003 4.8999999999999995 #
integer_attrib-name_attrib-gen-attrib $-1 -1 $363 $-1 $194 2 1 1 1 1 1 1 1 1 1 1 1 1 1 0 1 1 1 @8 CUBIT_ID 18 #
point $-1 -1 -1 $-1 4.4450000000000003 4.4450000000000003 4.8999999999999995 #
simple-snl-attrib $-1 -1 $-1 $197 $135 1 1 1 1 1 1 1 1 1 1 1 1 0 1 0 1 1 1 @17 NEW_SIMPLE_ATTRIB 1 @9 ENTITY_ID 0 3 5 -2147483648 -1 #
integer_attrib-name_attrib-gen-attrib $-1 -1 $364 $-1 $198 2 1 1 1 1 1 1 1 1 1 1 1 1 1 0 1 1 1 @8 CUBIT_ID 6 #
plane-surface $-1 -1 -1 $-1 4.1275000000000004 0 5.0009351850000003 -1 0 0 0 0 1 forward_v I I I I #
coedge $-1 -1 -1 $-1 $203 $201 $205 $292 reversed $136 $-1 #
edge $365 -1 -1 $-1 $218 -0.00093518500000000005 $296 0.00093518500000000005 $216 $366 forward @7 unknown T -4.1275000000000004 4.1275000000000004 5 -4.1275000000000004 4.1275000000000004 5.0018703700000007 #
integer_attrib-name_attrib-gen-attrib $-1 -1 $367 $-1 $204 2 1 1 1 1 1 1 1 1 1 1 1 1 1 0 1 1 1 @8 CUBIT_ID 9 #
vertex $368 -1 -1 $-1 $292 $369 #
straight-curve $-1 -1 -1 $-1 -4.1275000000000004 -4.1275000000000004 5.0009351850000003 0 0 -1 I I #
edge $370 -1 -1 $-1 $290 -4.1275000000000004 $296 4.1275000000000004 $287 $371 forward @7 unknown T -4.1275000000000004 -4.1275000000000004 5 -4.1275000000000004 4.1275000000000004 5 #
integer_attrib-name_attrib-gen-attrib $-1 -1 $372 $-1 $206 2 1 1 1 1 1 1 1 1 1 1 1 1 1 0 1 1 1 @8 CUBIT_ID 6 #
straight-curve $-1 -1 -1 $-1 0 -4.1275000000000004 5 -1 0 0 I I #
integer_attrib-name_attrib-gen-attrib $-1 -1 $373 $-1 $208 2 1 1 1 1 1 1 1 1 1 1 1 1 1 0 1 1 1 @8 CUBIT_ID 8 #
vertex $374 -1 -1 $-1 $208 $375 #
straight-curve $-1 -1 -1 $-1 0 4.1275000000000004 5 1 0 0 I I #
simple-snl-attrib $-1 -1 $-1 $209 $142 1 1 1 1 1 1 1 1 1 1 1 1 0 1 0 1 1 1 @17 NEW_SIMPLE_ATTRIB 1 @9 ENTITY_ID 0 3 5 -2147483648 -1 #
integer_attrib-name_attrib-gen-attrib $-1 -1 $376 $-1 $210 2 1 1 1 1 1 1 1 1 1 1 1 1 1 0 1 1 1 @8 CUBIT_ID 5 #
point $-1 -1 -1 $-1 4.1275000000000004 4.1275000000000004 5 #
integer_attrib-name_attrib-gen-attrib $-1 -1 $377 $-1 $211 2 1 1 1 1 1 1 1 1 1 1 1 1 1 0 1 1 1 @8 CUBIT_ID 6 #
point $-1 -1 -1 $-1 4.1275000000000004 -4.1275000000000004 5 #
integer_attrib-name_attrib-gen-attrib $-1 -1 $378 $-1 $214 2 1 1 1 1 1 1 1 1 1 1 1 1 1 0 1 1 1 @8 CUBIT_ID 3 #
straight-curve $-1 -1 -1 $-1 -4.1275000000000004 0 5.0018703700000007 0 -1 0 I I #
simple-snl-attrib $-1 -1 $-1 $217 $145 1 1 1 1 1 1 1 1 1 1 1 1 0 1 0 1 1 1 @17 NEW_SIMPLE_ATTRIB 1 @9 ENTITY_ID 0 3 2 -2147483648 -1 #
integer_attrib-name_attrib-gen-attrib $-1 -1 $379 $-1 $218 2 1 1 1 1 1 1 1 1 1 1 1 1 1 0 1 1 1 @8 CUBIT_ID 3 #
point $-1 -1 -1 $-1 -4.1275000000000004 4.1275000000000004 5.0018703700000007 #
simple-snl-attrib $-1 -1 $-1 $221 $147 1 1 1 1 1 1 1 1 1 1 1 1 0 1 0 1 1 1 @17 NEW_SIMPLE_ATTRIB 1 @9 ENTITY_ID 0 3 4 -2147483648 -1 #
integer_attrib-name_attrib-gen-attrib $-1 -1 $380 $-1 $222 2 1 1 1 1 1 1 1 1 1 1 1 1 1 0 1 1 1 @8 CUBIT_ID 4 #
point $-1 -1 -1 $-1 -4.1275000000000004 -4.1275000000000004 5.0018703700000007 #
integer_attrib-name_attrib-gen-attrib $-1 -1 $381 $-1 $224 2 1 1 1 1 1 1 1 1 1 1 1 1 1 0 1 1 1 @8 CUBIT_ID 10 #
straight-curve $-1 -1 -1 $-1 4.1275000000000004 -4.1275000000000004 5.0009351850000003 0 0 -1 I I #
integer_attrib-name_attrib-gen-attrib $-1 -1 $382 $-1 $225 2 1 1 1 1 1 1 1 1 1 1 1 1 1 0 1 1 1 @8 CUBIT_ID 12 #
straight-curve $-1 -1 -1 $-1 4.1275000000000004 4.1275000000000004 5.0009351850000003 0 0 -1 I I #
simple-snl-attrib $-1 -1 $-1 $227 $152 1 1 1 1 1 1 1 1 1 1 1 1 0 1 0 1 1 1 @17 NEW_SIMPLE_ATTRIB 1 @9 ENTITY_ID 0 3 1 -2147483648 -1 #
simple-snl-attrib $-1 -1 $-1 $229 $153 1 1 1 1 1 1 1 1 1 1 1 1 0 1 0 1 1 1 @17 NEW_SIMPLE_ATTRIB 1 @9 ENTITY_ID 0 3 2 -2147483648 -1 #
simple-snl-attrib $-1 -1 $-1 $231 $157 1 1 1 1 1 1 1 1 1 1 1 1 0 1 0 1 1 1 @17 NEW_SIMPLE_ATTRIB 1 @9 ENTITY_ID 0 3 14 -2147483648 -1 #
integer_attrib-name_attrib-gen-attrib $-1 -1 $383 $-1 $232 2 1 1 1 1 1 1 1 1 1 1 1 1 1 0 1 1 1 @8 CUBIT_ID 10 #
point $-1 -1 -1 $-1 3.8100000000000001 0 7.1018703700000003 #
simple-snl-attrib $-1 -1 $-1 $235 $159 1 1 1 1 1 1 1 1 1 1 1 1 0 1 0 1 1 1 @17 NEW_SIMPLE_ATTRIB 1 @9 ENTITY_ID 0 3 9 -2147483648 -1 #
integer_attrib-name_attrib-gen-attrib $-1 -1 $384 $-1 $239 2 1 1 1 1 1 1 1 1 1 1 1 1 1 0 1 1 1 @8 CUBIT_ID 20 #
vertex $385 -1 -1 $-1 $239 $386 #
ellipse-curve $-1 -1 -1 $-1 0 0 9.9000000000000004 0 0 1 10 0 0 1 I I #
simple-snl-attrib $-1 -1 $-1 $240 $167 1 1 1 1 1 1 1 1 1 1 1 1 0 1 0 1 1 1 @17 NEW_SIMPLE_ATTRIB 1 @9 ENTITY_ID 0 3 19 -2147483648 -1 #
integer_attrib-name_attrib-gen-attrib $-1 -1 $387 $-1 $241 2 1 1 1 1 1 1 1 1 1 1 1 1 1 0 1 1 1 @8 CUBIT_ID 15 #
point $-1 -1 -1 $-1 10 0 -0.099999999999999645 #
simple-snl-attrib $-1 -1 $-1 $243 $170 1 1 1 1 1 1 1 1 1 1 1 1 0 1 0 1 1 1 @17 NEW_SIMPLE_ATTRIB 1 @9 ENTITY_ID 0 3 18 -2147483648 -1 #
integer_attrib-name_attrib-gen-attrib $-1 -1 $388 $-1 $244 2 1 1 1 1 1 1 1 1 1 1 1 1 1 0 1 1 1 @8 CUBIT_ID 14 #
point $-1 -1 -1 $-1 10.5 0 10.4 #
simple-snl-attrib $-1 -1 $-1 $247 $172 1 1 1 1 1 1 1 1 1 1 1 1 0 1 0 1 1 1 @17 NEW_SIMPLE_ATTRIB 1 @9 ENTITY_ID 0 3 13 -2147483648 -1 #
simple-snl-attrib $-1 -1 $-1 $250 $176 1 1 1 1 1 1 1 1 1 1 1 1 0 1 0 1 1 1 @17 NEW_SIMPLE_ATTRIB 1 @9 ENTITY_ID 0 3 23 -2147483648 -1 #
integer_attrib-name_attrib-gen-attrib $-1 -1 $389 $-1 $251 2 1 1 1 1 1 1 1 1 1 1 1 1 1 0 1 1 1 @8 CUBIT_ID 24 #
plane-surface $-1 -1 -1 $-1 4.4450000000000003 0 4.8987175924999997 -1 0 0 0 0 1 forward_v I I I I #
coedge $-1 -1 -1 $-1 $256 $254 $258 $339 reversed $177 $-1 #
edge $390 -1 -1 $-1 $271 -0.0012824074999999999 $343 0.0012824074999999999 $269 $391 forward @7 unknown T -4.4450000000000003 4.4450000000000003 4.897435185 -4.4450000000000003 4.4450000000000003 4.8999999999999995 #
integer_attrib-name_attrib-gen-attrib $-1 -1 $392 $-1 $257 2 1 1 1 1 1 1 1 1 1 1 1 1 1 0 1 1 1 @8 CUBIT_ID 29 #
vertex $393 -1 -1 $-1 $339 $394 #
straight-curve $-1 -1 -1 $-1 -4.4450000000000003 -4.4450000000000003 4.8987175924999997 0 0 -1 I I #
edge $395 -1 -1 $-1 $337 -4.4450000000000003 $343 4.4450000000000003 $334 $396 forward @7 unknown T -4.4450000000000003 -4.4450000000000003 4.897435185 -4.4450000000000003 4.4450000000000003 4.897435185 #
integer_attrib-name_attrib-gen-attrib $-1 -1 $397 $-1 $259 2 1 1 1 1 1 1 1 1 1 1 1 1 1 0 1 1 1 @8 CUBIT_ID 26 #
straight-curve $-1 -1 -1 $-1 0 -4.4450000000000003 4.897435185 -1 0 0 I I #
integer_attrib-name_attrib-gen-attrib $-1 -1 $398 $-1 $261 2 1 1 1 1 1 1 1 1 1 1 1 1 1 0 1 1 1 @8 CUBIT_ID 28 #
vertex $399 -1 -1 $-1 $261 $400 #
straight-curve $-1 -1 -1 $-1 0 4.4450000000000003 4.897435185 1 0 0 I I #
simple-snl-attrib $-1 -1 $-1 $262 $183 1 1 1 1 1 1 1 1 1 1 1 1 0 1 0 1 1 1 @17 NEW_SIMPLE_ATTRIB 1 @9 ENTITY_ID 0 3 25 -2147483648 -1 #
integer_attrib-name_attrib-gen-attrib $-1 -1 $401 $-1 $263 2 1 1 1 1 1 1 1 1 1 1 1 1 1 0 1 1 1 @8 CUBIT_ID 21 #
point $-1 -1 -1 $-1 4.4450000000000003 4.4450000000000003 4.897435185 #
integer_attrib-name_attrib-gen-attrib $-1 -1 $402 $-1 $264 2 1 1 1 1 1 1 1 1 1 1 1 1 1 0 1 1 1 @8 CUBIT_ID 22 #
point $-1 -1 -1 $-1 4.4450000000000003 -4.4450000000000003 4.897435185 #
integer_attrib-name_attrib-gen-attrib $-1 -1 $403 $-1 $267 2 1 1 1 1 1 1 1 1 1 1 1 1 1 0 1 1 1 @8 CUBIT_ID 23 #
straight-curve $-1 -1 -1 $-1 -4.4450000000000003 0 4.8999999999999995 0 -1 0 I I #
simple-snl-attrib $-1 -1 $-1 $270 $186 1 1 1 1 1 1 1 1 1 1 1 1 0 1 0 1 1 1 @17 NEW_SIMPLE_ATTRIB 1 @9 ENTITY_ID 0 3 22 -2147483648 -1 #
integer_attrib-name_attrib-gen-attrib $-1 -1 $404 $-1 $271 2 1 1 1 1 1 1 1 1 1 1 1 1 1 0 1 1 1 @8 CUBIT_ID 19 #
point $-1 -1 -1 $-1 -4.4450000000000003 4.4450000000000003 4.8999999999999995 #
simple-snl-attrib $-1 -1 $-1 $274 $188 1 1 1 1 1 1 1 1 1 1 1 1 0 1 0 1 1 1 @17 NEW_SIMPLE_ATTRIB 1 @9 ENTITY_ID 0 3 24 -2147483648 -1 #
integer_attrib-name_attrib-gen-attrib $-1 -1 $405 $-1 $275 2 1 1 1 1 1 1 1 1 1 1 1 1 1 0 1 1 1 @8 CUBIT_ID 20 #
point $-1 -1 -1 $-1 -4.4450000000000003 -4.4450000000000003 4.8999999999999995 #
integer_attrib-name_attrib-gen-attrib $-1 -1 $406 $-1 $277 2 1 1 1 1 1 1 1 1 1 1 1 1 1 0 1 1 1 @8 CUBIT_ID 30 #
straight-curve $-1 -1 -1 $-1 4.4450000000000003 -4.4450000000000003 4.8987175924999997 0 0 -1 I I #
integer_attrib-name_attrib-gen-attrib $-1 -1 $407 $-1 $278 2 1 1 1 1 1 1 1 1 1 1 1 1 1 0 1 1 1 @8 CUBIT_ID 32 #
straight-curve $-1 -1 -1 $-1 4.4450000000000003 4.4450000000000003 4.8987175924999997 0 0 -1 I I #
simple-snl-attrib $-1 -1 $-1 $280 $193 1 1 1 1 1 1 1 1 1 1 1 1 0 1 0 1 1 1 @17 NEW_SIMPLE_ATTRIB 1 @9 ENTITY_ID 0 3 17 -2147483648 -1 #
simple-snl-attrib $-1 -1 $-1 $282 $194 1 1 1 1 1 1 1 1 1 1 1 1 0 1 0 1 1 1 @17 NEW_SIMPLE_ATTRIB 1 @9 ENTITY_ID 0 3 18 -2147483648 -1 #
simple-snl-attrib $-1 -1 $-1 $285 $198 1 1 1 1 1 1 1 1 1 1 1 1 0 1 0 1 1 1 @17 NEW_SIMPLE_ATTRIB 1 @9 ENTITY_ID 0 3 6 -2147483648 -1 #
integer_attrib-name_attrib-gen-attrib $-1 -1 $408 $-1 $288 2 1 1 1 1 1 1 1 1 1 1 1 1 1 0 1 1 1 @8 CUBIT_ID 11 #
straight-curve $-1 -1 -1 $-1 -4.1275000000000004 4.1275000000000004 5.0009351850000003 0 0 -1 I I #
simple-snl-attrib $-1 -1 $-1 $289 $204 1 1 1 1 1 1 1 1 1 1 1 1 0 1 0 1 1 1 @17 NEW_SIMPLE_ATTRIB 1 @9 ENTITY_ID 0 3 9 -2147483648 -1 #
integer_attrib-name_attrib-gen-attrib $-1 -1 $409 $-1 $290 2 1 1 1 1 1 1 1 1 1 1 1 1 1 0 1 1 1 @8 CUBIT_ID 7 #
point $-1 -1 -1 $-1 -4.1275000000000004 -4.1275000000000004 5 #
integer_attrib-name_attrib-gen-attrib $-1 -1 $410 $-1 $292 2 1 1 1 1 1 1 1 1 1 1 1 1 1 0 1 1 1 @8 CUBIT_ID 7 #
straight-curve $-1 -1 -1 $-1 -4.1275000000000004 0 5 0 1 0 I I #
simple-snl-attrib $-1 -1 $-1 $293 $206 1 1 1 1 1 1 1 1 1 1 1 1 0 1 0 1 1 1 @17 NEW_SIMPLE_ATTRIB 1 @9 ENTITY_ID 0 3 6 -2147483648 -1 #
simple-snl-attrib $-1 -1 $-1 $295 $208 1 1 1 1 1 1 1 1 1 1 1 1 0 1 0 1 1 1 @17 NEW_SIMPLE_ATTRIB 1 @9 ENTITY_ID 0 3 8 -2147483648 -1 #
integer_attrib-name_attrib-gen-attrib $-1 -1 $411 $-1 $296 2 1 1 1 1 1 1 1 1 1 1 1 1 1 0 1 1 1 @8 CUBIT_ID 8 #
point $-1 -1 -1 $-1 -4.1275000000000004 4.1275000000000004 5 #
simple-snl-attrib $-1 -1 $-1 $299 $210 1 1 1 1 1 1 1 1 1 1 1 1 0 1 0 1 1 1 @17 NEW_SIMPLE_ATTRIB 1 @9 ENTITY_ID 0 3 5 -2147483648 -1 #
simple-snl-attrib $-1 -1 $-1 $301 $211 1 1 1 1 1 1 1 1 1 1 1 1 0 1 0 1 1 1 @17 NEW_SIMPLE_ATTRIB 1 @9 ENTITY_ID 0 3 6 -2147483648 -1 #
simple-snl-attrib $-1 -1 $-1 $303 $214 1 1 1 1 1 1 1 1 1 1 1 1 0 1 0 1 1 1 @17 NEW_SIMPLE_ATTRIB 1 @9 ENTITY_ID 0 3 3 -2147483648 -1 #
simple-snl-attrib $-1 -1 $-1 $306 $218 1 1 1 1 1 1 1 1 1 1 1 1 0 1 0 1 1 1 @17 NEW_SIMPLE_ATTRIB 1 @9 ENTITY_ID 0 3 3 -2147483648 -1 #
simple-snl-attrib $-1 -1 $-1 $309 $222 1 1 1 1 1 1 1 1 1 1 1 1 0 1 0 1 1 1 @17 NEW_SIMPLE_ATTRIB 1 @9 ENTITY_ID 0 3 4 -2147483648 -1 #
simple-snl-attrib $-1 -1 $-1 $311 $224 1 1 1 1 1 1 1 1 1 1 1 1 0 1 0 1 1 1 @17 NEW_SIMPLE_ATTRIB 1 @9 ENTITY_ID 0 3 10 -2147483648 -1 #
simple-snl-attrib $-1 -1 $-1 $313 $225 1 1 1 1 1 1 1 1 1 1 1 1 0 1 0 1 1 1 @17 NEW_SIMPLE_ATTRIB 1 @9 ENTITY_ID 0 3 12 -2147483648 -1 #
simple-snl-attrib $-1 -1 $-1 $318 $232 1 1 1 1 1 1 1 1 1 1 1 1 0 1 0 1 1 1 @17 NEW_SIMPLE_ATTRIB 1 @9 ENTITY_ID 0 3 10 -2147483648 -1 #
simple-snl-attrib $-1 -1 $-1 $321 $239 1 1 1 1 1 1 1 1 1 1 1 1 0 1 0 1 1 1 @17 NEW_SIMPLE_ATTRIB 1 @9 ENTITY_ID 0 3 20 -2147483648 -1 #
integer_attrib-name_attrib-gen-attrib $-1 -1 $412 $-1 $322 2 1 1 1 1 1 1 1 1 1 1 1 1 1 0 1 1 1 @8 CUBIT_ID 16 #
point $-1 -1 -1 $-1 10 0 9.9000000000000004 #
simple-snl-attrib $-1 -1 $-1 $325 $241 1 1 1 1 1 1 1 1 1 1 1 1 0 1 0 1 1 1 @17 NEW_SIMPLE_ATTRIB 1 @9 ENTITY_ID 0 3 15 -2147483648 -1 #
simple-snl-attrib $-1 -1 $-1 $328 $244 1 1 1 1 1 1 1 1 1 1 1 1 0 1 0 1 1 1 @17 NEW_SIMPLE_ATTRIB 1 @9 ENTITY_ID 0 3 14 -2147483648 -1 #
simple-snl-attrib $-1 -1 $-1 $332 $251 1 1 1 1 1 1 1 1 1 1 1 1 0 1 0 1 1 1 @17 NEW_SIMPLE_ATTRIB 1 @9 ENTITY_ID 0 3 24 -2147483648 -1 #
integer_attrib-name_attrib-gen-attrib $-1 -1 $413 $-1 $335 2 1 1 1 1 1 1 1 1 1 1 1 1 1 0 1 1 1 @8 CUBIT_ID 31 #
straight-curve $-1 -1 -1 $-1 -4.4450000000000003 4.4450000000000003 4.8987175924999997 0 0 -1 I I #
simple-snl-attrib $-1 -1 $-1 $336 $257 1 1 1 1 1 1 1 1 1 1 1 1 0 1 0 1 1 1 @17 NEW_SIMPLE_ATTRIB 1 @9 ENTITY_ID 0 3 29 -2147483648 -1 #
integer_attrib-name_attrib-gen-attrib $-1 -1 $414 $-1 $337 2 1 1 1 1 1 1 1 1 1 1 1 1 1 0 1 1 1 @8 CUBIT_ID 23 #
point $-1 -1 -1 $-1 -4.4450000000000003 -4.4450000000000003 4.897435185 #
integer_attrib-name_attrib-gen-attrib $-1 -1 $415 $-1 $339 2 1 1 1 1 1 1 1 1 1 1 1 1 1 0 1 1 1 @8 CUBIT_ID 27 #
straight-curve $-1 -1 -1 $-1 -4.4450000000000003 0 4.897435185 0 1 0 I I #
simple-snl-attrib $-1 -1 $-1 $340 $259 1 1 1 1 1 1 1 1 1 1 1 1 0 1 0 1 1 1 @17 NEW_SIMPLE_ATTRIB 1 @9 ENTITY_ID 0 3 26 -2147483648 -1 #
simple-snl-attrib $-1 -1 $-1 $342 $261 1 1 1 1 1 1 1 1 1 1 1 1 0 1 0 1 1 1 @17 NEW_SIMPLE_ATTRIB 1 @9 ENTITY_ID 0 3 28 -2147483648 -1 #
integer_attrib-name_attrib-gen-attrib $-1 -1 $416 $-1 $343 2 1 1 1 1 1 1 1 1 1 1 1 1 1 0 1 1 1 @8 CUBIT_ID 24 #
point $-1 -1 -1 $-1 -4.4450000000000003 4.4450000000000003 4.897435185 #
simple-snl-attrib $-1 -1 $-1 $346 $263 1 1 1 1 1 1 1 1 1 1 1 1 0 1 0 1 1 1 @17 NEW_SIMPLE_ATTRIB 1 @9 ENTITY_ID 0 3 21 -2147483648 -1 #
simple-snl-attrib $-1 -1 $-1 $348 $264 1 1 1 1 1 1 1 1 1 1 1 1 0 1 0 1 1 1 @17 NEW_SIMPLE_ATTRIB 1 @9 ENTITY_ID 0 3 22 -2147483648 -1 #
simple-snl-attrib $-1 -1 $-1 $350 $267 1 1 1 1 1 1 1 1 1 1 1 1 0 1 0 1 1 1 @17 NEW_SIMPLE_ATTRIB 1 @9 ENTITY_ID 0 3 23 -2147483648 -1 #
simple-snl-attrib $-1 -1 $-1 $353 $271 1 1 1 1 1 1 1 1 1 1 1 1 0 1 0 1 1 1 @17 NEW_SIMPLE_ATTRIB 1 @9 ENTITY_ID 0 3 19 -2147483648 -1 #
simple-snl-attrib $-1 -1 $-1 $356 $275 1 1 1 1 1 1 1 1 1 1 1 1 0 1 0 1 1 1 @17 NEW_SIMPLE_ATTRIB 1 @9 ENTITY_ID 0 3 20 -2147483648 -1 #
simple-snl-attrib $-1 -1 $-1 $358 $277 1 1 1 1 1 1 1 1 1 1 1 1 0 1 0 1 1 1 @17 NEW_SIMPLE_ATTRIB 1 @9 ENTITY_ID 0 3 30 -2147483648 -1 #
simple-snl-attrib $-1 -1 $-1 $360 $278 1 1 1 1 1 1 1 1 1 1 1 1 0 1 0 1 1 1 @17 NEW_SIMPLE_ATTRIB 1 @9 ENTITY_ID 0 3 32 -2147483648 -1 #
simple-snl-attrib $-1 -1 $-1 $365 $288 1 1 1 1 1 1 1 1 1 1 1 1 0 1 0 1 1 1 @17 NEW_SIMPLE_ATTRIB 1 @9 ENTITY_ID 0 3 11 -2147483648 -1 #
simple-snl-attrib $-1 -1 $-1 $368 $290 1 1 1 1 1 1 1 1 1 1 1 1 0 1 0 1 1 1 @17 NEW_SIMPLE_ATTRIB 1 @9 ENTITY_ID 0 3 7 -2147483648 -1 #
simple-snl-attrib $-1 -1 $-1 $370 $292 1 1 1 1 1 1 1 1 1 1 1 1 0 1 0 1 1 1 @17 NEW_SIMPLE_ATTRIB 1 @9 ENTITY_ID 0 3 7 -2147483648 -1 #
simple-snl-attrib $-1 -1 $-1 $374 $296 1 1 1 1 1 1 1 1 1 1 1 1 0 1 0 1 1 1 @17 NEW_SIMPLE_ATTRIB 1 @9 ENTITY_ID 0 3 8 -2147483648 -1 #
simple-snl-attrib $-1 -1 $-1 $385 $322 1 1 1 1 1 1 1 1 1 1 1 1 0 1 0 1 1 1 @17 NEW_SIMPLE_ATTRIB 1 @9 ENTITY_ID 0 3 16 -2147483648 -1 #
simple-snl-attrib $-1 -1 $-1 $390 $335 1 1 1 1 1 1 1 1 1 1 1 1 0 1 0 1 1 1 @17 NEW_SIMPLE_ATTRIB 1 @9 ENTITY_ID 0 3 31 -2147483648 -1 #
simple-snl-attrib $-1 -1 $-1 $393 $337 1 1 1 1 1 1 1 1 1 1 1 1 0 1 0 1 1 1 @17 NEW_SIMPLE_ATTRIB 1 @9 ENTITY_ID 0 3 23 -2147483648 -1 #
simple-snl-attrib $-1 -1 $-1 $395 $339 1 1 1 1 1 1 1 1 1 1 1 1 0 1 0 1 1 1 @17 NEW_SIMPLE_ATTRIB 1 @9 ENTITY_ID 0 3 27 -2147483648 -1 #
simple-snl-attrib $-1 -1 $-1 $399 $343 1 1 1 1 1 1 1 1 1 1 1 1 0 1 0 1 1 1 @17 NEW_SIMPLE_ATTRIB 1 @9 ENTITY_ID 0 3 24 -2147483648 -1 #
End-of-ACIS-data 