1900 0 3 0           
10 Cubit 14.0 17 ACIS 22.0.2 Linux 24 Fri May 25 13:55:36 2018 
1 9.9999999999999995e-07 1e-10 
body $3 -1 -1 $-1 $4 $-1 $5 T -4.1275000000000004 -4.1275000000000004 5 4.1275000000000004 4.1275000000000004 5.0018703700000007 #
body $6 -1 -1 $-1 $7 $-1 $8 T -0.20949999999999999 -0.20949999999999999 4.95662037037037 0.20949999999999999 0.20949999999999999 5.45662037037037 #
body $9 -1 -1 $-1 $10 $-1 $11 T -10.5 -10.5 -0.59999999999999964 10.5 10.5 10.4 #
integer_attrib-name_attrib-gen-attrib $-1 -1 $12 $-1 $0 2 1 1 1 1 1 1 1 1 1 1 1 1 1 0 1 1 1 @8 CUBIT_ID 2 #
lump $13 -1 -1 $-1 $-1 $14 $0 T -4.1275000000000004 -4.1275000000000004 5 4.1275000000000004 4.1275000000000004 5.0018703700000007 #
transform $-1 -1 1 0 0 0 1 0 0 0 1 0 0 0 1 no_rotate no_reflect no_shear #
integer_attrib-name_attrib-gen-attrib $-1 -1 $15 $-1 $1 2 1 1 1 1 1 1 1 1 1 1 1 1 1 0 1 1 1 @8 CUBIT_ID 3 #
lump $16 -1 -1 $-1 $-1 $17 $1 T -0.20949999999999999 -0.20949999999999999 4.95662037037037 0.20949999999999999 0.20949999999999999 5.45662037037037 #
transform $-1 -1 1 0 0 0 1 0 0 0 1 0 0 0 1 no_rotate no_reflect no_shear #
integer_attrib-name_attrib-gen-attrib $-1 -1 $18 $-1 $2 2 1 1 1 1 1 1 1 1 1 1 1 1 1 0 1 1 1 @8 CUBIT_ID 5 #
lump $19 -1 -1 $-1 $-1 $20 $2 T -10.5 -10.5 -0.59999999999999964 10.5 10.5 10.4 #
transform $-1 -1 1 0 0 0 1 0 0 0 1 0 0 0 1 no_rotate no_reflect no_shear #
simple-snl-attrib $-1 -1 $-1 $3 $0 1 1 1 1 1 1 1 1 1 1 1 1 0 1 0 1 1 1 @17 NEW_SIMPLE_ATTRIB 1 @9 ENTITY_ID 0 3 2 -2147483648 -1 #
integer_attrib-name_attrib-gen-attrib $-1 -1 $21 $-1 $4 2 1 1 1 1 1 1 1 1 1 1 1 1 1 0 1 1 1 @8 CUBIT_ID 2 #
shell $-1 -1 -1 $-1 $-1 $-1 $22 $-1 $4 T -4.1275000000000004 -4.1275000000000004 5 4.1275000000000004 4.1275000000000004 5.0018703700000007 #
simple-snl-attrib $-1 -1 $-1 $6 $1 1 1 1 1 1 1 1 1 1 1 1 1 0 1 0 1 1 1 @17 NEW_SIMPLE_ATTRIB 1 @9 ENTITY_ID 0 3 3 -2147483648 -1 #
integer_attrib-name_attrib-gen-attrib $-1 -1 $23 $-1 $7 2 1 1 1 1 1 1 1 1 1 1 1 1 1 0 1 1 1 @8 CUBIT_ID 3 #
shell $-1 -1 -1 $-1 $-1 $-1 $24 $-1 $7 T -0.20949999999999999 -0.20949999999999999 4.95662037037037 0.20949999999999999 0.20949999999999999 5.45662037037037 #
simple-snl-attrib $-1 -1 $-1 $9 $2 1 1 1 1 1 1 1 1 1 1 1 1 0 1 0 1 1 1 @17 NEW_SIMPLE_ATTRIB 1 @9 ENTITY_ID 0 3 5 -2147483648 -1 #
integer_attrib-name_attrib-gen-attrib $-1 -1 $25 $-1 $10 2 1 1 1 1 1 1 1 1 1 1 1 1 1 0 1 1 1 @8 CUBIT_ID 6 #
shell $-1 -1 -1 $-1 $26 $-1 $27 $-1 $10 T -10.5 -10.5 -0.59999999999999964 10.5 10.5 10.4 #
simple-snl-attrib $-1 -1 $28 $13 $4 1 1 1 1 1 1 1 1 1 1 1 1 0 1 0 1 1 1 @17 NEW_SIMPLE_ATTRIB 1 @9 ENTITY_ID 0 3 2 -2147483648 -1 #
face $29 -1 -1 $-1 $30 $31 $14 $-1 $32 reversed single T -4.1275000000000004 -4.1275000000000004 5 4.1275000000000004 4.1275000000000004 5 F #
simple-snl-attrib $-1 -1 $33 $16 $7 1 1 1 1 1 1 1 1 1 1 1 1 0 1 0 1 1 1 @17 NEW_SIMPLE_ATTRIB 1 @9 ENTITY_ID 0 3 3 -2147483648 -1 #
face $34 -1 -1 $-1 $35 $36 $17 $-1 $37 forward single T -0.20949999999999999 -0.20949999999999999 5.0018703700000007 0.20949999999999999 0.20949999999999999 5.45662037037037 F #
simple-snl-attrib $-1 -1 $38 $19 $10 1 1 1 1 1 1 1 1 1 1 1 1 0 1 0 1 1 1 @17 NEW_SIMPLE_ATTRIB 1 @9 ENTITY_ID 0 3 6 -2147483648 -1 #
shell $-1 -1 -1 $-1 $-1 $-1 $39 $-1 $10 T -10 -10 -0.099999999999999645 10 10 9.9000000000000004 #
face $40 -1 -1 $-1 $41 $42 $20 $-1 $43 forward single T -10.5 -10.5 -0.59999999999999964 10.5 10.5 10.4 F #
simple-snl-attrib $-1 -1 $44 $21 $4 1 1 1 1 1 1 1 1 1 1 1 1 0 1 0 1 1 1 @17 NEW_SIMPLE_ATTRIB 3 @5 GROUP @23 material_1_density_-2.7 @31 estimator_1.cell.pulse.height.e 0 11 2 3 4 179023034 1393854920 0 0 0 0 0 0 #
integer_attrib-name_attrib-gen-attrib $-1 -1 $45 $-1 $22 2 1 1 1 1 1 1 1 1 1 1 1 1 1 0 1 1 1 @8 CUBIT_ID 35 #
face $46 -1 -1 $-1 $47 $48 $14 $-1 $49 forward single T -4.1275000000000004 -4.1275000000000004 5.0018703700000007 4.1275000000000004 4.1275000000000004 5.0018703700000007 F #
loop $-1 -1 -1 $-1 $50 $51 $22 T -4.1275000000000004 -4.1275000000000004 5 4.1275000000000004 4.1275000000000004 5 unknown #
plane-surface $-1 -1 -1 $-1 0 0 5 0 0 1 0.70710678118654746 0.70710678118654746 0 forward_v I I I I #
simple-snl-attrib $-1 -1 $52 $23 $7 1 1 1 1 1 1 1 1 1 1 1 1 0 1 0 1 1 1 @17 NEW_SIMPLE_ATTRIB 2 @5 GROUP @23 material_1_density_-2.7 0 7 1 3 179023034 1 0 0 0 #
integer_attrib-name_attrib-gen-attrib $-1 -1 $53 $-1 $24 2 1 1 1 1 1 1 1 1 1 1 1 1 1 0 1 1 1 @8 CUBIT_ID 39 #
face $54 -1 -1 $-1 $55 $56 $17 $-1 $37 forward single T -0.20949999999999999 -0.20949999999999999 5 0.20949999999999999 0.20949999999999999 5.0018703700000007 F #
loop $-1 -1 -1 $-1 $57 $58 $24 T -0.20949999999999999 -0.20949999999999999 5.0018703700000007 0.20949999999999999 0.20949999999999999 5.0018703700000007 unknown #
cone-surface $-1 -1 -1 $-1 0 0 5.20662037037037 0 0 1 0.20949999999999999 0 0 1 I I 0 1 0.20949999999999999 forward I I I I #
simple-snl-attrib $-1 -1 $59 $25 $10 1 1 1 1 1 1 1 1 1 1 1 1 0 1 0 1 1 1 @17 NEW_SIMPLE_ATTRIB 2 @5 GROUP @16 termination.cell 0 7 1 2 964776987 0 0 0 0 #
face $60 -1 -1 $-1 $61 $62 $26 $-1 $63 reversed single T -10 -10 -0.099999999999999645 10 10 9.9000000000000004 F #
integer_attrib-name_attrib-gen-attrib $-1 -1 $64 $-1 $27 2 1 1 1 1 1 1 1 1 1 1 1 1 1 0 1 1 1 @8 CUBIT_ID 29 #
face $65 -1 -1 $-1 $66 $67 $20 $-1 $68 forward single T -10.5 -10.5 -0.59999999999999964 10.5 10.5 -0.59999999999999964 F #
loop $-1 -1 -1 $-1 $69 $70 $27 T -10.5 -10.5 -0.59999999999999964 10.5 10.5 -0.59999999999999964 unknown #
cone-surface $-1 -1 -1 $-1 0 0 4.9000000000000004 0 0 1 10.5 0 0 1 I I 0 1 10.5 forward I I I I #
simple-snl-attrib $-1 -1 $-1 $28 $4 1 1 1 1 1 1 1 1 1 1 1 1 0 1 0 1 1 1 @17 NEW_SIMPLE_ATTRIB 2 @11 ENTITY_NAME @11 calorimeter 0 0 #
simple-snl-attrib $-1 -1 $-1 $29 $22 1 1 1 1 1 1 1 1 1 1 1 1 0 1 0 1 1 1 @17 NEW_SIMPLE_ATTRIB 1 @9 ENTITY_ID 0 3 35 -2147483648 -1 #
integer_attrib-name_attrib-gen-attrib $-1 -1 $71 $-1 $30 2 1 1 1 1 1 1 1 1 1 1 1 1 1 0 1 1 1 @8 CUBIT_ID 36 #
face $72 -1 -1 $-1 $73 $74 $14 $-1 $75 reversed single T -1.5875000000267008 -4.1275000000000004 5 1.5875000000267008 -4.1275000000000004 5.0018703700000007 F #
loop $-1 -1 -1 $-1 $76 $77 $30 T -4.1275000000000004 -4.1275000000000004 5.0018703700000007 4.1275000000000004 4.1275000000000004 5.0018703700000007 unknown #
plane-surface $-1 -1 -1 $-1 0 0 5.0018703700000007 0 0 1 0.70710678118654746 0.70710678118654746 0 forward_v I I I I #
loop $-1 -1 -1 $-1 $-1 $78 $22 T -0.20949999999999999 -0.20949999999999999 5 0.20949999999999999 0.20949999999999999 5 unknown #
coedge $-1 -1 -1 $-1 $79 $80 $81 $82 reversed $31 $-1 #
simple-snl-attrib $-1 -1 $-1 $33 $7 1 1 1 1 1 1 1 1 1 1 1 1 0 1 0 1 1 1 @17 NEW_SIMPLE_ATTRIB 2 @11 ENTITY_NAME @14 infinite_plate 0 0 #
simple-snl-attrib $-1 -1 $-1 $34 $24 1 1 1 1 1 1 1 1 1 1 1 1 0 1 0 1 1 1 @17 NEW_SIMPLE_ATTRIB 1 @9 ENTITY_ID 0 3 39 -2147483648 -1 #
integer_attrib-name_attrib-gen-attrib $-1 -1 $83 $-1 $35 2 1 1 1 1 1 1 1 1 1 1 1 1 1 0 1 1 1 @8 CUBIT_ID 40 #
face $84 -1 -1 $-1 $85 $86 $17 $-1 $37 forward single T -0.20949999999999999 -0.20949999999999999 4.95662037037037 0.20949999999999999 0.20949999999999999 5 F #
loop $-1 -1 -1 $-1 $87 $88 $35 T -0.20949999999999999 -0.20949999999999999 5.0018703700000007 0.20949999999999999 0.20949999999999999 5.0018703700000007 u_sep $37 F #
loop $-1 -1 -1 $-1 $-1 $89 $24 T -0.20949999999999999 -0.20949999999999999 5.45662037037037 0.20949999999999999 0.20949999999999999 5.45662037037037 unknown #
coedge $-1 -1 -1 $-1 $58 $58 $88 $90 forward $36 $-1 #
simple-snl-attrib $-1 -1 $-1 $38 $10 1 1 1 1 1 1 1 1 1 1 1 1 0 1 0 1 1 1 @17 NEW_SIMPLE_ATTRIB 2 @11 ENTITY_NAME @9 graveyard 0 0 #
integer_attrib-name_attrib-gen-attrib $-1 -1 $91 $-1 $39 2 1 1 1 1 1 1 1 1 1 1 1 1 1 0 1 1 1 @8 CUBIT_ID 32 #
face $92 -1 -1 $-1 $93 $94 $26 $-1 $95 reversed single T -10 -10 -0.099999999999999645 10 10 -0.099999999999999645 F #
loop $-1 -1 -1 $-1 $96 $97 $39 T -10 -10 -0.099999999999999645 10 10 -0.099999999999999645 unknown #
cone-surface $-1 -1 -1 $-1 0 0 4.9000000000000004 0 0 1 10 0 0 1 I I 0 1 10 forward I I I I #
simple-snl-attrib $-1 -1 $-1 $40 $27 1 1 1 1 1 1 1 1 1 1 1 1 0 1 0 1 1 1 @17 NEW_SIMPLE_ATTRIB 1 @9 ENTITY_ID 0 3 29 -2147483648 -1 #
integer_attrib-name_attrib-gen-attrib $-1 -1 $98 $-1 $41 2 1 1 1 1 1 1 1 1 1 1 1 1 1 0 1 1 1 @8 CUBIT_ID 30 #
face $99 -1 -1 $-1 $-1 $100 $20 $-1 $101 forward single T -10.5 -10.5 10.4 10.5 10.5 10.4 F #
loop $-1 -1 -1 $-1 $-1 $102 $41 T -10.5 -10.5 -0.59999999999999964 10.5 10.5 -0.59999999999999964 unknown #
plane-surface $-1 -1 -1 $-1 0 0 -0.59999999999999964 0 0 -1 -1 0 0 forward_v I I I I #
loop $-1 -1 -1 $-1 $-1 $103 $27 T -10.5 -10.5 10.4 10.5 10.5 10.4 unknown #
coedge $-1 -1 -1 $-1 $70 $70 $102 $104 reversed $42 $-1 #
simple-snl-attrib $-1 -1 $-1 $46 $30 1 1 1 1 1 1 1 1 1 1 1 1 0 1 0 1 1 1 @17 NEW_SIMPLE_ATTRIB 1 @9 ENTITY_ID 0 3 36 -2147483648 -1 #
integer_attrib-name_attrib-gen-attrib $-1 -1 $105 $-1 $47 2 1 1 1 1 1 1 1 1 1 1 1 1 1 0 1 1 1 @8 CUBIT_ID 13 #
face $106 -1 -1 $-1 $107 $108 $14 $-1 $109 reversed single T 4.1275000000000004 -1.5875000000267008 5 4.1275000000000004 1.5875000000267008 5.0018703700000007 F #
loop $-1 -1 -1 $-1 $-1 $110 $47 T -1.5875000000267008 -4.1275000000000004 5 1.5875000000267008 -4.1275000000000004 5.0018703700000007 unknown #
plane-surface $-1 -1 -1 $-1 0 -4.1275000000000004 5.0009351850000003 0 1 0 0 0 1 forward_v I I I I #
loop $-1 -1 -1 $-1 $-1 $111 $30 T -0.20949999999999999 -0.20949999999999999 5.0018703700000007 0.20949999999999999 0.20949999999999999 5.0018703700000007 unknown #
coedge $-1 -1 -1 $-1 $112 $113 $114 $115 reversed $48 $-1 #
coedge $-1 -1 -1 $-1 $78 $78 $116 $117 reversed $50 $-1 #
coedge $-1 -1 -1 $-1 $118 $51 $119 $120 forward $31 $-1 #
coedge $-1 -1 -1 $-1 $51 $121 $122 $123 forward $31 $-1 #
coedge $-1 -1 -1 $-1 $124 $125 $51 $82 forward $126 $-1 #
edge $127 -1 -1 $-1 $128 -1.5875000000267008 $129 1.5875000000267008 $51 $130 forward @7 unknown T -4.1275000000000004 -1.5875000000267008 5 -4.1275000000000004 1.5875000000267008 5 #
simple-snl-attrib $-1 -1 $-1 $54 $35 1 1 1 1 1 1 1 1 1 1 1 1 0 1 0 1 1 1 @17 NEW_SIMPLE_ATTRIB 1 @9 ENTITY_ID 0 3 40 -2147483648 -1 #
integer_attrib-name_attrib-gen-attrib $-1 -1 $131 $-1 $55 2 1 1 1 1 1 1 1 1 1 1 1 1 1 0 1 1 1 @8 CUBIT_ID 41 #
face $132 -1 -1 $-1 $133 $134 $17 $-1 $135 forward single T -0.20949999999999999 -0.20949999999999999 4.95662037037037 0.20949999999999999 0.20949999999999999 4.95662037037037 F #
loop $-1 -1 -1 $-1 $136 $137 $55 T -0.20949999999999999 -0.20949999999999999 5 0.20949999999999999 0.20949999999999999 5 u_sep $37 F #
loop $-1 -1 -1 $-1 $-1 $138 $35 T -0.20949999999999999 -0.20949999999999999 5 0.20949999999999999 0.20949999999999999 5 u_sep $37 F #
coedge $-1 -1 -1 $-1 $88 $88 $58 $90 reversed $56 $-1 #
coedge $-1 -1 -1 $-1 $89 $89 $139 $140 reversed $57 $-1 #
edge $141 -1 -1 $-1 $142 -3.1415926535897931 $142 3.1415926535897931 $58 $143 forward @7 unknown T -0.20949999999999999 -0.20949999999999999 5.0018703700000007 0.20949999999999999 0.20949999999999999 5.0018703700000007 #
simple-snl-attrib $-1 -1 $-1 $60 $39 1 1 1 1 1 1 1 1 1 1 1 1 0 1 0 1 1 1 @17 NEW_SIMPLE_ATTRIB 1 @9 ENTITY_ID 0 3 32 -2147483648 -1 #
integer_attrib-name_attrib-gen-attrib $-1 -1 $144 $-1 $61 2 1 1 1 1 1 1 1 1 1 1 1 1 1 0 1 1 1 @8 CUBIT_ID 33 #
face $145 -1 -1 $-1 $-1 $146 $26 $-1 $147 reversed single T -10 -10 9.9000000000000004 10 10 9.9000000000000004 F #
loop $-1 -1 -1 $-1 $-1 $148 $61 T -10 -10 -0.099999999999999645 10 10 -0.099999999999999645 unknown #
plane-surface $-1 -1 -1 $-1 0 0 -0.099999999999999645 0 0 -1 -1 0 0 forward_v I I I I #
loop $-1 -1 -1 $-1 $-1 $149 $39 T -10 -10 9.9000000000000004 10 10 9.9000000000000004 unknown #
coedge $-1 -1 -1 $-1 $97 $97 $148 $150 forward $62 $-1 #
simple-snl-attrib $-1 -1 $-1 $65 $41 1 1 1 1 1 1 1 1 1 1 1 1 0 1 0 1 1 1 @17 NEW_SIMPLE_ATTRIB 1 @9 ENTITY_ID 0 3 30 -2147483648 -1 #
integer_attrib-name_attrib-gen-attrib $-1 -1 $151 $-1 $66 2 1 1 1 1 1 1 1 1 1 1 1 1 1 0 1 1 1 @8 CUBIT_ID 31 #
loop $-1 -1 -1 $-1 $-1 $152 $66 T -10.5 -10.5 10.4 10.5 10.5 10.4 unknown #
plane-surface $-1 -1 -1 $-1 0 0 10.4 0 0 1 1 0 0 forward_v I I I I #
coedge $-1 -1 -1 $-1 $102 $102 $70 $104 forward $67 $-1 #
coedge $-1 -1 -1 $-1 $103 $103 $152 $153 reversed $69 $-1 #
edge $154 -1 -1 $-1 $155 0 $155 6.2831853071795862 $102 $156 forward @7 unknown T -10.5 -10.5 -0.59999999999999964 10.5 10.5 -0.59999999999999964 #
simple-snl-attrib $-1 -1 $-1 $72 $47 1 1 1 1 1 1 1 1 1 1 1 1 0 1 0 1 1 1 @17 NEW_SIMPLE_ATTRIB 1 @9 ENTITY_ID 0 3 13 -2147483648 -1 #
integer_attrib-name_attrib-gen-attrib $-1 -1 $157 $-1 $73 2 1 1 1 1 1 1 1 1 1 1 1 1 1 0 1 1 1 @8 CUBIT_ID 14 #
face $158 -1 -1 $-1 $159 $126 $14 $-1 $160 reversed single T -4.1275000000000004 -1.5875000000267008 5 -4.1275000000000004 1.5875000000267008 5.0018703700000007 F #
loop $-1 -1 -1 $-1 $-1 $161 $73 T 4.1275000000000004 -1.5875000000267008 5 4.1275000000000004 1.5875000000267008 5.0018703700000007 unknown #
plane-surface $-1 -1 -1 $-1 4.1275000000000004 0 5.0009351850000003 -1 0 0 0 0 1 forward_v I I I I #
coedge $-1 -1 -1 $-1 $162 $163 $164 $165 forward $74 $-1 #
coedge $-1 -1 -1 $-1 $111 $111 $166 $167 reversed $76 $-1 #
coedge $-1 -1 -1 $-1 $168 $77 $169 $170 forward $48 $-1 #
coedge $-1 -1 -1 $-1 $77 $171 $172 $173 forward $48 $-1 #
coedge $-1 -1 -1 $-1 $125 $124 $77 $115 forward $126 $-1 #
edge $174 -1 -1 $-1 $175 -1.5875000000267008 $176 1.5875000000267008 $77 $177 forward @7 unknown T -4.1275000000000004 -1.5875000000267008 5.0018703700000007 -4.1275000000000004 1.5875000000267008 5.0018703700000007 #
coedge $-1 -1 -1 $-1 $116 $116 $78 $117 forward $178 $-1 #
edge $179 -1 -1 $-1 $180 -3.1415926535897931 $180 3.1415926535897931 $116 $181 forward @7 unknown T -0.20949999999999999 -0.20949999999999999 5 0.20949999999999999 0.20949999999999999 5 #
coedge $-1 -1 -1 $-1 $182 $79 $183 $184 reversed $31 $-1 #
coedge $-1 -1 -1 $-1 $185 $186 $79 $120 reversed $187 $-1 #
edge $188 -1 -1 $-1 $128 -1.7960512241949507 $189 1.7960512241949507 $119 $190 forward @7 unknown T -4.1275000000000004 1.5875000000267008 5 -1.5875000000267008 4.1275000000000004 5 #
coedge $-1 -1 -1 $-1 $80 $191 $162 $192 reversed $31 $-1 #
coedge $-1 -1 -1 $-1 $164 $193 $80 $123 reversed $194 $-1 #
edge $195 -1 -1 $-1 $196 -1.7960512241949507 $129 1.7960512241949507 $122 $197 forward @7 unknown T -4.1275000000000004 -4.1275000000000004 5 -1.5875000000267008 -1.5875000000267008 5 #
coedge $-1 -1 -1 $-1 $114 $81 $193 $198 forward $126 $-1 #
coedge $-1 -1 -1 $-1 $81 $114 $185 $199 forward $126 $-1 #
loop $-1 -1 -1 $-1 $-1 $124 $107 T -4.1275000000000004 -1.5875000000267008 5 -4.1275000000000004 1.5875000000267008 5.0018703700000007 unknown #
integer_attrib-name_attrib-gen-attrib $-1 -1 $200 $-1 $82 2 1 1 1 1 1 1 1 1 1 1 1 1 1 0 1 1 1 @8 CUBIT_ID 36 #
vertex $201 -1 -1 $-1 $120 $202 #
vertex $203 -1 -1 $-1 $82 $204 #
straight-curve $-1 -1 -1 $-1 -4.1275000000000004 0 5 0 -1 0 I I #
simple-snl-attrib $-1 -1 $-1 $84 $55 1 1 1 1 1 1 1 1 1 1 1 1 0 1 0 1 1 1 @17 NEW_SIMPLE_ATTRIB 1 @9 ENTITY_ID 0 3 41 -2147483648 -1 #
integer_attrib-name_attrib-gen-attrib $-1 -1 $205 $-1 $85 2 1 1 1 1 1 1 1 1 1 1 1 1 1 0 1 1 1 @8 CUBIT_ID 24 #
face $206 -1 -1 $-1 $-1 $207 $17 $-1 $208 forward single T -0.20949999999999999 -0.20949999999999999 5.45662037037037 0.20949999999999999 0.20949999999999999 5.45662037037037 F #
loop $-1 -1 -1 $-1 $-1 $209 $85 T -0.20949999999999999 -0.20949999999999999 4.95662037037037 0.20949999999999999 0.20949999999999999 4.95662037037037 unknown #
plane-surface $-1 -1 -1 $-1 0 0 4.95662037037037 0 0 -1 -1 0 0 forward_v I I I I #
loop $-1 -1 -1 $-1 $-1 $210 $55 T -0.20949999999999999 -0.20949999999999999 4.95662037037037 0.20949999999999999 0.20949999999999999 4.95662037037037 u_sep $37 F #
coedge $-1 -1 -1 $-1 $137 $137 $138 $211 forward $86 $-1 #
coedge $-1 -1 -1 $-1 $138 $138 $137 $211 reversed $87 $-1 #
coedge $-1 -1 -1 $-1 $139 $139 $89 $140 forward $207 $-1 #
edge $212 -1 -1 $-1 $213 0 $213 6.2831853071795862 $139 $214 forward @7 unknown T -0.20949999999999999 -0.20949999999999999 5.45662037037037 0.20949999999999999 0.20949999999999999 5.45662037037037 #
integer_attrib-name_attrib-gen-attrib $-1 -1 $215 $-1 $90 2 1 1 1 1 1 1 1 1 1 1 1 1 1 0 1 1 1 @8 CUBIT_ID 58 #
vertex $216 -1 -1 $-1 $90 $217 #
ellipse-curve $-1 -1 -1 $-1 0 0 5.0018703700000007 0 0 1 0.20949999999999999 0 0 1 I I #
simple-snl-attrib $-1 -1 $-1 $92 $61 1 1 1 1 1 1 1 1 1 1 1 1 0 1 0 1 1 1 @17 NEW_SIMPLE_ATTRIB 1 @9 ENTITY_ID 0 3 33 -2147483648 -1 #
integer_attrib-name_attrib-gen-attrib $-1 -1 $218 $-1 $93 2 1 1 1 1 1 1 1 1 1 1 1 1 1 0 1 1 1 @8 CUBIT_ID 34 #
loop $-1 -1 -1 $-1 $-1 $219 $93 T -10 -10 9.9000000000000004 10 10 9.9000000000000004 unknown #
plane-surface $-1 -1 -1 $-1 0 0 9.9000000000000004 0 0 1 1 0 0 forward_v I I I I #
coedge $-1 -1 -1 $-1 $148 $148 $97 $150 reversed $94 $-1 #
coedge $-1 -1 -1 $-1 $149 $149 $219 $220 forward $96 $-1 #
edge $221 -1 -1 $-1 $222 0 $222 6.2831853071795862 $148 $223 forward @7 unknown T -10 -10 -0.099999999999999645 10 10 -0.099999999999999645 #
simple-snl-attrib $-1 -1 $-1 $99 $66 1 1 1 1 1 1 1 1 1 1 1 1 0 1 0 1 1 1 @17 NEW_SIMPLE_ATTRIB 1 @9 ENTITY_ID 0 3 31 -2147483648 -1 #
coedge $-1 -1 -1 $-1 $152 $152 $103 $153 forward $100 $-1 #
edge $224 -1 -1 $-1 $225 0 $225 6.2831853071795862 $152 $226 forward @7 unknown T -10.5 -10.5 10.4 10.5 10.5 10.4 #
integer_attrib-name_attrib-gen-attrib $-1 -1 $227 $-1 $104 2 1 1 1 1 1 1 1 1 1 1 1 1 1 0 1 1 1 @8 CUBIT_ID 53 #
vertex $228 -1 -1 $-1 $104 $229 #
ellipse-curve $-1 -1 -1 $-1 0 0 -0.59999999999999964 0 0 -1 10.5 0 0 1 I I #
simple-snl-attrib $-1 -1 $-1 $106 $73 1 1 1 1 1 1 1 1 1 1 1 1 0 1 0 1 1 1 @17 NEW_SIMPLE_ATTRIB 1 @9 ENTITY_ID 0 3 14 -2147483648 -1 #
integer_attrib-name_attrib-gen-attrib $-1 -1 $230 $-1 $107 2 1 1 1 1 1 1 1 1 1 1 1 1 1 0 1 1 1 @8 CUBIT_ID 15 #
face $231 -1 -1 $-1 $232 $233 $14 $-1 $234 reversed single T -1.5875000000267008 4.1275000000000004 5 1.5875000000267008 4.1275000000000004 5.0018703700000007 F #
plane-surface $-1 -1 -1 $-1 -4.1275000000000004 0 5.0009351850000003 1 0 0 0 0 -1 forward_v I I I I #
coedge $-1 -1 -1 $-1 $235 $236 $237 $238 forward $108 $-1 #
coedge $-1 -1 -1 $-1 $239 $110 $121 $192 forward $74 $-1 #
coedge $-1 -1 -1 $-1 $110 $239 $168 $240 forward $74 $-1 #
coedge $-1 -1 -1 $-1 $169 $122 $110 $165 reversed $194 $-1 #
edge $241 -1 -1 $-1 $242 -0.00093518500000000005 $196 0.00093518500000000005 $164 $243 forward @7 unknown T -1.5875000000267008 -4.1275000000000004 5 -1.5875000000267008 -4.1275000000000004 5.0018703700000007 #
coedge $-1 -1 -1 $-1 $166 $166 $111 $167 forward $244 $-1 #
edge $245 -1 -1 $-1 $246 -3.1415926535897931 $246 3.1415926535897931 $166 $247 forward @7 unknown T -0.20949999999999999 -0.20949999999999999 5.0018703700000007 0.20949999999999999 0.20949999999999999 5.0018703700000007 #
coedge $-1 -1 -1 $-1 $248 $112 $163 $240 reversed $48 $-1 #
coedge $-1 -1 -1 $-1 $193 $164 $112 $170 reversed $194 $-1 #
edge $249 -1 -1 $-1 $175 -1.7960512241949507 $242 1.7960512241949507 $169 $250 forward @7 unknown T -4.1275000000000004 -4.1275000000000004 5.0018703700000007 -1.5875000000267008 -1.5875000000267008 5.0018703700000007 #
coedge $-1 -1 -1 $-1 $113 $251 $252 $253 reversed $48 $-1 #
coedge $-1 -1 -1 $-1 $186 $185 $113 $173 reversed $187 $-1 #
edge $254 -1 -1 $-1 $255 -1.7960512241949507 $176 1.7960512241949507 $172 $256 forward @7 unknown T -4.1275000000000004 1.5875000000267008 5.0018703700000007 -1.5875000000267008 4.1275000000000004 5.0018703700000007 #
integer_attrib-name_attrib-gen-attrib $-1 -1 $257 $-1 $115 2 1 1 1 1 1 1 1 1 1 1 1 1 1 0 1 1 1 @8 CUBIT_ID 34 #
vertex $258 -1 -1 $-1 $170 $259 #
vertex $260 -1 -1 $-1 $199 $261 #
straight-curve $-1 -1 -1 $-1 -4.1275000000000004 0 5.0018703700000007 0 1 0 I I #
loop $-1 -1 -1 $-1 $-1 $116 $262 T -0.20949999999999999 -0.20949999999999999 5 0.20949999999999999 0.20949999999999999 5 periphery $32 T #
integer_attrib-name_attrib-gen-attrib $-1 -1 $263 $-1 $117 2 1 1 1 1 1 1 1 1 1 1 1 1 1 0 1 1 1 @8 CUBIT_ID 57 #
vertex $264 -1 -1 $-1 $117 $265 #
ellipse-curve $-1 -1 -1 $-1 0 0 5 -0 -0 -1 0.20949999999999999 0 0 1 I I #
coedge $-1 -1 -1 $-1 $266 $118 $267 $268 forward $31 $-1 #
coedge $-1 -1 -1 $-1 $269 $270 $118 $184 forward $233 $-1 #
edge $271 -1 -1 $-1 $272 -1.5875000000267008 $189 1.5875000000267008 $118 $273 forward @7 unknown T -1.5875000000267008 4.1275000000000004 5 1.5875000000267008 4.1275000000000004 5 #
coedge $-1 -1 -1 $-1 $172 $119 $125 $199 reversed $187 $-1 #
coedge $-1 -1 -1 $-1 $119 $172 $269 $274 reversed $187 $-1 #
loop $-1 -1 -1 $-1 $-1 $185 $275 T -4.1275000000000004 1.5875000000267008 5 -1.5875000000267008 4.1275000000000004 5.0018703700000007 unknown #
integer_attrib-name_attrib-gen-attrib $-1 -1 $276 $-1 $120 2 1 1 1 1 1 1 1 1 1 1 1 1 1 0 1 1 1 @8 CUBIT_ID 47 #
vertex $277 -1 -1 $-1 $184 $278 #
straight-curve $-1 -1 -1 $-1 -2.8575000000133506 2.8575000000133506 5 0.70710678118654724 0.70710678118654724 0 I I #
coedge $-1 -1 -1 $-1 $121 $266 $279 $280 forward $31 $-1 #
edge $281 -1 -1 $-1 $196 -1.5875000000267008 $282 1.5875000000267008 $121 $283 forward @7 unknown T -1.5875000000267008 -4.1275000000000004 5 1.5875000000267008 -4.1275000000000004 5 #
coedge $-1 -1 -1 $-1 $122 $169 $124 $198 reversed $194 $-1 #
loop $-1 -1 -1 $-1 $-1 $193 $232 T -4.1275000000000004 -4.1275000000000004 5 -1.5875000000267008 -1.5875000000267008 5.0018703700000007 unknown #
integer_attrib-name_attrib-gen-attrib $-1 -1 $284 $-1 $123 2 1 1 1 1 1 1 1 1 1 1 1 1 1 0 1 1 1 @8 CUBIT_ID 41 #
vertex $285 -1 -1 $-1 $123 $286 #
straight-curve $-1 -1 -1 $-1 -2.8575000000133506 -2.8575000000133506 5 -0.70710678118654724 0.70710678118654724 0 I I #
edge $287 -1 -1 $-1 $129 -0.00093518500000000005 $175 0.00093518500000000005 $193 $288 forward @7 unknown T -4.1275000000000004 -1.5875000000267008 5 -4.1275000000000004 -1.5875000000267008 5.0018703700000007 #
edge $289 -1 -1 $-1 $176 -0.00093518500000000005 $128 0.00093518500000000005 $185 $290 forward @7 unknown T -4.1275000000000004 1.5875000000267008 5 -4.1275000000000004 1.5875000000267008 5.0018703700000007 #
simple-snl-attrib $-1 -1 $-1 $127 $82 1 1 1 1 1 1 1 1 1 1 1 1 0 1 0 1 1 1 @17 NEW_SIMPLE_ATTRIB 1 @9 ENTITY_ID 0 3 36 -2147483648 -1 #
integer_attrib-name_attrib-gen-attrib $-1 -1 $291 $-1 $128 2 1 1 1 1 1 1 1 1 1 1 1 1 1 0 1 1 1 @8 CUBIT_ID 28 #
point $-1 -1 -1 $-1 -4.1275000000000004 1.5875000000267008 5 #
integer_attrib-name_attrib-gen-attrib $-1 -1 $292 $-1 $129 2 1 1 1 1 1 1 1 1 1 1 1 1 1 0 1 1 1 @8 CUBIT_ID 25 #
point $-1 -1 -1 $-1 -4.1275000000000004 -1.5875000000267008 5 #
simple-snl-attrib $-1 -1 $-1 $132 $85 1 1 1 1 1 1 1 1 1 1 1 1 0 1 0 1 1 1 @17 NEW_SIMPLE_ATTRIB 1 @9 ENTITY_ID 0 3 24 -2147483648 -1 #
integer_attrib-name_attrib-gen-attrib $-1 -1 $293 $-1 $133 2 1 1 1 1 1 1 1 1 1 1 1 1 1 0 1 1 1 @8 CUBIT_ID 25 #
loop $-1 -1 -1 $-1 $-1 $139 $133 T -0.20949999999999999 -0.20949999999999999 5.45662037037037 0.20949999999999999 0.20949999999999999 5.45662037037037 unknown #
plane-surface $-1 -1 -1 $-1 0 0 5.45662037037037 0 0 1 1 0 0 forward_v I I I I #
coedge $-1 -1 -1 $-1 $209 $209 $210 $294 forward $134 $-1 #
coedge $-1 -1 -1 $-1 $210 $210 $209 $294 reversed $136 $-1 #
edge $295 -1 -1 $-1 $296 -3.1415926535897931 $296 3.1415926535897931 $137 $297 forward @7 unknown T -0.20949999999999999 -0.20949999999999999 5 0.20949999999999999 0.20949999999999999 5 #
integer_attrib-name_attrib-gen-attrib $-1 -1 $298 $-1 $140 2 1 1 1 1 1 1 1 1 1 1 1 1 1 0 1 1 1 @8 CUBIT_ID 50 #
vertex $299 -1 -1 $-1 $140 $300 #
ellipse-curve $-1 -1 -1 $-1 0 0 5.45662037037037 0 0 1 0.20949999999999999 0 0 1 I I #
simple-snl-attrib $-1 -1 $301 $141 $90 1 1 1 1 1 1 1 1 1 1 1 1 0 1 0 1 1 1 @17 NEW_SIMPLE_ATTRIB 2 @14 SOURCE_FEATURE @7 IMPRINT 0 0 #
integer_attrib-name_attrib-gen-attrib $-1 -1 $302 $-1 $142 2 1 1 1 1 1 1 1 1 1 1 1 1 1 0 1 1 1 @8 CUBIT_ID 42 #
point $-1 -1 -1 $-1 -0.20949999999999999 -2.5656350442137042e-17 5.0018703700000007 #
simple-snl-attrib $-1 -1 $-1 $145 $93 1 1 1 1 1 1 1 1 1 1 1 1 0 1 0 1 1 1 @17 NEW_SIMPLE_ATTRIB 1 @9 ENTITY_ID 0 3 34 -2147483648 -1 #
coedge $-1 -1 -1 $-1 $219 $219 $149 $220 reversed $146 $-1 #
edge $303 -1 -1 $-1 $304 0 $304 6.2831853071795862 $219 $305 forward @7 unknown T -10 -10 9.9000000000000004 10 10 9.9000000000000004 #
integer_attrib-name_attrib-gen-attrib $-1 -1 $306 $-1 $150 2 1 1 1 1 1 1 1 1 1 1 1 1 1 0 1 1 1 @8 CUBIT_ID 55 #
vertex $307 -1 -1 $-1 $150 $308 #
ellipse-curve $-1 -1 -1 $-1 0 0 -0.099999999999999645 0 0 -1 10 0 0 1 I I #
integer_attrib-name_attrib-gen-attrib $-1 -1 $309 $-1 $153 2 1 1 1 1 1 1 1 1 1 1 1 1 1 0 1 1 1 @8 CUBIT_ID 54 #
vertex $310 -1 -1 $-1 $153 $311 #
ellipse-curve $-1 -1 -1 $-1 0 0 10.4 0 0 1 10.5 0 0 1 I I #
simple-snl-attrib $-1 -1 $-1 $154 $104 1 1 1 1 1 1 1 1 1 1 1 1 0 1 0 1 1 1 @17 NEW_SIMPLE_ATTRIB 1 @9 ENTITY_ID 0 3 53 -2147483648 -1 #
integer_attrib-name_attrib-gen-attrib $-1 -1 $312 $-1 $155 2 1 1 1 1 1 1 1 1 1 1 1 1 1 0 1 1 1 @8 CUBIT_ID 37 #
point $-1 -1 -1 $-1 10.5 0 -0.59999999999999964 #
simple-snl-attrib $-1 -1 $-1 $158 $107 1 1 1 1 1 1 1 1 1 1 1 1 0 1 0 1 1 1 @17 NEW_SIMPLE_ATTRIB 1 @9 ENTITY_ID 0 3 15 -2147483648 -1 #
integer_attrib-name_attrib-gen-attrib $-1 -1 $313 $-1 $159 2 1 1 1 1 1 1 1 1 1 1 1 1 1 0 1 1 1 @8 CUBIT_ID 16 #
face $314 -1 -1 $-1 $315 $194 $14 $-1 $316 reversed single T -4.1275000000000004 -4.1275000000000004 5 -1.5875000000267008 -1.5875000000267008 5.0018703700000007 F #
loop $-1 -1 -1 $-1 $-1 $269 $159 T -1.5875000000267008 4.1275000000000004 5 1.5875000000267008 4.1275000000000004 5.0018703700000007 unknown #
plane-surface $-1 -1 -1 $-1 0 4.1275000000000004 5.0009351850000003 0 -1 0 0 0 -1 forward_v I I I I #
coedge $-1 -1 -1 $-1 $317 $161 $266 $318 forward $108 $-1 #
coedge $-1 -1 -1 $-1 $161 $317 $319 $320 forward $108 $-1 #
coedge $-1 -1 -1 $-1 $321 $279 $161 $238 reversed $322 $-1 #
edge $323 -1 -1 $-1 $324 -0.00093518500000000005 $325 0.00093518500000000005 $237 $326 forward @7 unknown T 4.1275000000000004 -1.5875000000267008 5 4.1275000000000004 -1.5875000000267008 5.0018703700000007 #
coedge $-1 -1 -1 $-1 $163 $162 $327 $328 forward $74 $-1 #
edge $329 -1 -1 $-1 $330 -1.5875000000267008 $242 1.5875000000267008 $168 $331 forward @7 unknown T -1.5875000000267008 -4.1275000000000004 5.0018703700000007 1.5875000000267008 -4.1275000000000004 5.0018703700000007 #
integer_attrib-name_attrib-gen-attrib $-1 -1 $332 $-1 $165 2 1 1 1 1 1 1 1 1 1 1 1 1 1 0 1 1 1 @8 CUBIT_ID 25 #
vertex $333 -1 -1 $-1 $240 $334 #
straight-curve $-1 -1 -1 $-1 -1.5875000000267008 -4.1275000000000004 5.0009351850000003 0 0 -1 I I #
loop $-1 -1 -1 $-1 $-1 $166 $335 T -0.20949999999999999 -0.20949999999999999 5.0018703700000007 0.20949999999999999 0.20949999999999999 5.0018703700000007 periphery $49 F #
integer_attrib-name_attrib-gen-attrib $-1 -1 $336 $-1 $167 2 1 1 1 1 1 1 1 1 1 1 1 1 1 0 1 1 1 @8 CUBIT_ID 58 #
vertex $337 -1 -1 $-1 $167 $338 #
ellipse-curve $-1 -1 -1 $-1 0 0 5.0018703700000007 0 0 1 0.20949999999999999 0 0 1 I I #
coedge $-1 -1 -1 $-1 $319 $168 $321 $339 forward $48 $-1 #
integer_attrib-name_attrib-gen-attrib $-1 -1 $340 $-1 $170 2 1 1 1 1 1 1 1 1 1 1 1 1 1 0 1 1 1 @8 CUBIT_ID 42 #
straight-curve $-1 -1 -1 $-1 -2.8575000000133506 -2.8575000000133506 5.0018703700000007 0.70710678118654724 -0.70710678118654724 0 I I #
coedge $-1 -1 -1 $-1 $171 $319 $341 $342 forward $48 $-1 #
coedge $-1 -1 -1 $-1 $270 $269 $171 $253 forward $233 $-1 #
edge $343 -1 -1 $-1 $255 -1.5875000000267008 $344 1.5875000000267008 $171 $345 forward @7 unknown T -1.5875000000267008 4.1275000000000004 5.0018703700000007 1.5875000000267008 4.1275000000000004 5.0018703700000007 #
integer_attrib-name_attrib-gen-attrib $-1 -1 $346 $-1 $173 2 1 1 1 1 1 1 1 1 1 1 1 1 1 0 1 1 1 @8 CUBIT_ID 48 #
vertex $347 -1 -1 $-1 $173 $348 #
straight-curve $-1 -1 -1 $-1 -2.8575000000133506 2.8575000000133506 5.0018703700000007 -0.70710678118654724 -0.70710678118654724 0 I I #
simple-snl-attrib $-1 -1 $-1 $174 $115 1 1 1 1 1 1 1 1 1 1 1 1 0 1 0 1 1 1 @17 NEW_SIMPLE_ATTRIB 1 @9 ENTITY_ID 0 3 34 -2147483648 -1 #
integer_attrib-name_attrib-gen-attrib $-1 -1 $349 $-1 $175 2 1 1 1 1 1 1 1 1 1 1 1 1 1 0 1 1 1 @8 CUBIT_ID 26 #
point $-1 -1 -1 $-1 -4.1275000000000004 -1.5875000000267008 5.0018703700000007 #
integer_attrib-name_attrib-gen-attrib $-1 -1 $350 $-1 $176 2 1 1 1 1 1 1 1 1 1 1 1 1 1 0 1 1 1 @8 CUBIT_ID 27 #
point $-1 -1 -1 $-1 -4.1275000000000004 1.5875000000267008 5.0018703700000007 #
face $351 -1 -1 $-1 $335 $178 $14 $-1 $32 reversed single T -0.20949999999999999 -0.20949999999999999 5 0.20949999999999999 0.20949999999999999 5 F #
simple-snl-attrib $-1 -1 $352 $179 $117 1 1 1 1 1 1 1 1 1 1 1 1 0 1 0 1 1 1 @17 NEW_SIMPLE_ATTRIB 2 @14 SOURCE_FEATURE @7 IMPRINT 0 0 #
integer_attrib-name_attrib-gen-attrib $-1 -1 $353 $-1 $180 2 1 1 1 1 1 1 1 1 1 1 1 1 1 0 1 1 1 @8 CUBIT_ID 41 #
point $-1 -1 -1 $-1 -0.20949999999999999 2.5656350442137042e-17 5 #
coedge $-1 -1 -1 $-1 $191 $182 $235 $318 reversed $31 $-1 #
coedge $-1 -1 -1 $-1 $354 $355 $182 $268 reversed $356 $-1 #
edge $357 -1 -1 $-1 $272 -1.7960512241949507 $358 1.7960512241949507 $267 $359 forward @7 unknown T 1.5875000000267008 1.5875000000267008 5 4.1275000000000004 4.1275000000000004 5 #
coedge $-1 -1 -1 $-1 $252 $183 $186 $274 forward $233 $-1 #
coedge $-1 -1 -1 $-1 $183 $252 $354 $360 forward $233 $-1 #
integer_attrib-name_attrib-gen-attrib $-1 -1 $361 $-1 $184 2 1 1 1 1 1 1 1 1 1 1 1 1 1 0 1 1 1 @8 CUBIT_ID 40 #
vertex $362 -1 -1 $-1 $268 $363 #
straight-curve $-1 -1 -1 $-1 0 4.1275000000000004 5 -1 0 0 I I #
edge $364 -1 -1 $-1 $189 -0.00093518500000000005 $255 0.00093518500000000005 $186 $365 forward @7 unknown T -1.5875000000267008 4.1275000000000004 5 -1.5875000000267008 4.1275000000000004 5.0018703700000007 #
face $366 -1 -1 $-1 $-1 $187 $14 $-1 $367 reversed single T -4.1275000000000004 1.5875000000267008 5 -1.5875000000267008 4.1275000000000004 5.0018703700000007 F #
simple-snl-attrib $-1 -1 $-1 $188 $120 1 1 1 1 1 1 1 1 1 1 1 1 0 1 0 1 1 1 @17 NEW_SIMPLE_ATTRIB 1 @9 ENTITY_ID 0 3 47 -2147483648 -1 #
integer_attrib-name_attrib-gen-attrib $-1 -1 $368 $-1 $189 2 1 1 1 1 1 1 1 1 1 1 1 1 1 0 1 1 1 @8 CUBIT_ID 29 #
point $-1 -1 -1 $-1 -1.5875000000267008 4.1275000000000004 5 #
coedge $-1 -1 -1 $-1 $237 $327 $191 $280 reversed $322 $-1 #
edge $369 -1 -1 $-1 $325 -1.7960512241949507 $282 1.7960512241949507 $279 $370 forward @7 unknown T 1.5875000000267008 -4.1275000000000004 5 4.1275000000000004 -1.5875000000267008 5 #
integer_attrib-name_attrib-gen-attrib $-1 -1 $371 $-1 $192 2 1 1 1 1 1 1 1 1 1 1 1 1 1 0 1 1 1 @8 CUBIT_ID 26 #
vertex $372 -1 -1 $-1 $192 $373 #
straight-curve $-1 -1 -1 $-1 0 -4.1275000000000004 5 1 0 0 I I #
simple-snl-attrib $-1 -1 $-1 $195 $123 1 1 1 1 1 1 1 1 1 1 1 1 0 1 0 1 1 1 @17 NEW_SIMPLE_ATTRIB 1 @9 ENTITY_ID 0 3 41 -2147483648 -1 #
integer_attrib-name_attrib-gen-attrib $-1 -1 $374 $-1 $196 2 1 1 1 1 1 1 1 1 1 1 1 1 1 0 1 1 1 @8 CUBIT_ID 18 #
point $-1 -1 -1 $-1 -1.5875000000267008 -4.1275000000000004 5 #
integer_attrib-name_attrib-gen-attrib $-1 -1 $375 $-1 $198 2 1 1 1 1 1 1 1 1 1 1 1 1 1 0 1 1 1 @8 CUBIT_ID 33 #
straight-curve $-1 -1 -1 $-1 -4.1275000000000004 -1.5875000000267008 5.0009351850000003 0 0 1 I I #
integer_attrib-name_attrib-gen-attrib $-1 -1 $376 $-1 $199 2 1 1 1 1 1 1 1 1 1 1 1 1 1 0 1 1 1 @8 CUBIT_ID 35 #
straight-curve $-1 -1 -1 $-1 -4.1275000000000004 1.5875000000267008 5.0009351850000003 0 0 -1 I I #
simple-snl-attrib $-1 -1 $-1 $201 $128 1 1 1 1 1 1 1 1 1 1 1 1 0 1 0 1 1 1 @17 NEW_SIMPLE_ATTRIB 1 @9 ENTITY_ID 0 3 28 -2147483648 -1 #
simple-snl-attrib $-1 -1 $-1 $203 $129 1 1 1 1 1 1 1 1 1 1 1 1 0 1 0 1 1 1 @17 NEW_SIMPLE_ATTRIB 1 @9 ENTITY_ID 0 3 25 -2147483648 -1 #
simple-snl-attrib $-1 -1 $-1 $206 $133 1 1 1 1 1 1 1 1 1 1 1 1 0 1 0 1 1 1 @17 NEW_SIMPLE_ATTRIB 1 @9 ENTITY_ID 0 3 25 -2147483648 -1 #
edge $377 -1 -1 $-1 $378 0 $378 6.2831853071795862 $209 $379 forward @7 unknown T -0.20949999999999999 -0.20949999999999999 4.95662037037037 0.20949999999999999 0.20949999999999999 4.95662037037037 #
integer_attrib-name_attrib-gen-attrib $-1 -1 $380 $-1 $211 2 1 1 1 1 1 1 1 1 1 1 1 1 1 0 1 1 1 @8 CUBIT_ID 57 #
vertex $381 -1 -1 $-1 $211 $382 #
ellipse-curve $-1 -1 -1 $-1 0 0 5 -0 -0 -1 0.20949999999999999 0 0 1 I I #
simple-snl-attrib $-1 -1 $-1 $212 $140 1 1 1 1 1 1 1 1 1 1 1 1 0 1 0 1 1 1 @17 NEW_SIMPLE_ATTRIB 1 @9 ENTITY_ID 0 3 50 -2147483648 -1 #
integer_attrib-name_attrib-gen-attrib $-1 -1 $383 $-1 $213 2 1 1 1 1 1 1 1 1 1 1 1 1 1 0 1 1 1 @8 CUBIT_ID 34 #
point $-1 -1 -1 $-1 0.20949999999999999 0 5.45662037037037 #
simple-snl-attrib $-1 -1 $384 $215 $90 1 1 1 1 1 1 1 1 1 1 1 1 0 1 0 1 1 1 @17 NEW_SIMPLE_ATTRIB 1 @9 UNIQUE_ID 0 1 2014907335 #
simple-snl-attrib $-1 -1 $385 $216 $142 1 1 1 1 1 1 1 1 1 1 1 1 0 1 0 1 1 1 @17 NEW_SIMPLE_ATTRIB 1 @9 ENTITY_ID 0 3 42 -2147483648 -1 #
integer_attrib-name_attrib-gen-attrib $-1 -1 $386 $-1 $220 2 1 1 1 1 1 1 1 1 1 1 1 1 1 0 1 1 1 @8 CUBIT_ID 56 #
vertex $387 -1 -1 $-1 $220 $388 #
ellipse-curve $-1 -1 -1 $-1 0 0 9.9000000000000004 0 0 1 10 0 0 1 I I #
simple-snl-attrib $-1 -1 $-1 $221 $150 1 1 1 1 1 1 1 1 1 1 1 1 0 1 0 1 1 1 @17 NEW_SIMPLE_ATTRIB 1 @9 ENTITY_ID 0 3 55 -2147483648 -1 #
integer_attrib-name_attrib-gen-attrib $-1 -1 $389 $-1 $222 2 1 1 1 1 1 1 1 1 1 1 1 1 1 0 1 1 1 @8 CUBIT_ID 39 #
point $-1 -1 -1 $-1 10 0 -0.099999999999999645 #
simple-snl-attrib $-1 -1 $-1 $224 $153 1 1 1 1 1 1 1 1 1 1 1 1 0 1 0 1 1 1 @17 NEW_SIMPLE_ATTRIB 1 @9 ENTITY_ID 0 3 54 -2147483648 -1 #
integer_attrib-name_attrib-gen-attrib $-1 -1 $390 $-1 $225 2 1 1 1 1 1 1 1 1 1 1 1 1 1 0 1 1 1 @8 CUBIT_ID 38 #
point $-1 -1 -1 $-1 10.5 0 10.4 #
simple-snl-attrib $-1 -1 $-1 $228 $155 1 1 1 1 1 1 1 1 1 1 1 1 0 1 0 1 1 1 @17 NEW_SIMPLE_ATTRIB 1 @9 ENTITY_ID 0 3 37 -2147483648 -1 #
simple-snl-attrib $-1 -1 $-1 $231 $159 1 1 1 1 1 1 1 1 1 1 1 1 0 1 0 1 1 1 @17 NEW_SIMPLE_ATTRIB 1 @9 ENTITY_ID 0 3 16 -2147483648 -1 #
integer_attrib-name_attrib-gen-attrib $-1 -1 $391 $-1 $232 2 1 1 1 1 1 1 1 1 1 1 1 1 1 0 1 1 1 @8 CUBIT_ID 17 #
face $392 -1 -1 $-1 $393 $322 $14 $-1 $394 reversed single T 1.5875000000267008 -4.1275000000000004 5 4.1275000000000004 -1.5875000000267008 5.0018703700000007 F #
plane-surface $-1 -1 -1 $-1 -2.8575000000133506 -2.8575000000133506 5.0009351850000003 0.70710678118654746 0.70710678118654746 0 0 0 -1 forward_v I I I I #
coedge $-1 -1 -1 $-1 $236 $235 $355 $395 forward $108 $-1 #
edge $396 -1 -1 $-1 $325 -1.5875000000267008 $358 1.5875000000267008 $266 $397 forward @7 unknown T 4.1275000000000004 -1.5875000000267008 5 4.1275000000000004 1.5875000000267008 5 #
coedge $-1 -1 -1 $-1 $251 $248 $236 $320 reversed $48 $-1 #
edge $398 -1 -1 $-1 $399 -1.5875000000267008 $324 1.5875000000267008 $319 $400 forward @7 unknown T 4.1275000000000004 -1.5875000000267008 5.0018703700000007 4.1275000000000004 1.5875000000267008 5.0018703700000007 #
coedge $-1 -1 -1 $-1 $327 $237 $248 $339 reversed $322 $-1 #
loop $-1 -1 -1 $-1 $-1 $327 $315 T 1.5875000000267008 -4.1275000000000004 5 4.1275000000000004 -1.5875000000267008 5.0018703700000007 unknown #
integer_attrib-name_attrib-gen-attrib $-1 -1 $401 $-1 $238 2 1 1 1 1 1 1 1 1 1 1 1 1 1 0 1 1 1 @8 CUBIT_ID 29 #
vertex $402 -1 -1 $-1 $238 $403 #
vertex $404 -1 -1 $-1 $280 $405 #
straight-curve $-1 -1 -1 $-1 4.1275000000000004 -1.5875000000267008 5.0009351850000003 0 0 -1 I I #
coedge $-1 -1 -1 $-1 $279 $321 $239 $328 reversed $322 $-1 #
edge $406 -1 -1 $-1 $282 -0.00093518500000000005 $330 0.00093518500000000005 $327 $407 forward @7 unknown T 1.5875000000267008 -4.1275000000000004 5 1.5875000000267008 -4.1275000000000004 5.0018703700000007 #
integer_attrib-name_attrib-gen-attrib $-1 -1 $408 $-1 $240 2 1 1 1 1 1 1 1 1 1 1 1 1 1 0 1 1 1 @8 CUBIT_ID 28 #
vertex $409 -1 -1 $-1 $339 $410 #
straight-curve $-1 -1 -1 $-1 0 -4.1275000000000004 5.0018703700000007 -1 0 0 I I #
simple-snl-attrib $-1 -1 $-1 $241 $165 1 1 1 1 1 1 1 1 1 1 1 1 0 1 0 1 1 1 @17 NEW_SIMPLE_ATTRIB 1 @9 ENTITY_ID 0 3 25 -2147483648 -1 #
integer_attrib-name_attrib-gen-attrib $-1 -1 $411 $-1 $242 2 1 1 1 1 1 1 1 1 1 1 1 1 1 0 1 1 1 @8 CUBIT_ID 17 #
point $-1 -1 -1 $-1 -1.5875000000267008 -4.1275000000000004 5.0018703700000007 #
face $412 -1 -1 $-1 $275 $244 $14 $-1 $49 forward single T -0.20949999999999999 -0.20949999999999999 5.0018703700000007 0.20949999999999999 0.20949999999999999 5.0018703700000007 F #
simple-snl-attrib $-1 -1 $413 $245 $167 1 1 1 1 1 1 1 1 1 1 1 1 0 1 0 1 1 1 @17 NEW_SIMPLE_ATTRIB 2 @14 SOURCE_FEATURE @7 IMPRINT 0 0 #
integer_attrib-name_attrib-gen-attrib $-1 -1 $414 $-1 $246 2 1 1 1 1 1 1 1 1 1 1 1 1 1 0 1 1 1 @8 CUBIT_ID 42 #
point $-1 -1 -1 $-1 -0.20949999999999999 -2.5656350442137042e-17 5.0018703700000007 #
edge $415 -1 -1 $-1 $330 -1.7960512241949507 $324 1.7960512241949507 $321 $416 forward @7 unknown T 1.5875000000267008 -4.1275000000000004 5.0018703700000007 4.1275000000000004 -1.5875000000267008 5.0018703700000007 #
simple-snl-attrib $-1 -1 $-1 $249 $170 1 1 1 1 1 1 1 1 1 1 1 1 0 1 0 1 1 1 @17 NEW_SIMPLE_ATTRIB 1 @9 ENTITY_ID 0 3 42 -2147483648 -1 #
coedge $-1 -1 -1 $-1 $355 $354 $251 $342 reversed $356 $-1 #
edge $417 -1 -1 $-1 $399 -1.7960512241949507 $344 1.7960512241949507 $341 $418 forward @7 unknown T 1.5875000000267008 1.5875000000267008 5.0018703700000007 4.1275000000000004 4.1275000000000004 5.0018703700000007 #
integer_attrib-name_attrib-gen-attrib $-1 -1 $419 $-1 $253 2 1 1 1 1 1 1 1 1 1 1 1 1 1 0 1 1 1 @8 CUBIT_ID 38 #
vertex $420 -1 -1 $-1 $360 $421 #
straight-curve $-1 -1 -1 $-1 0 4.1275000000000004 5.0018703700000007 1 0 0 I I #
simple-snl-attrib $-1 -1 $-1 $254 $173 1 1 1 1 1 1 1 1 1 1 1 1 0 1 0 1 1 1 @17 NEW_SIMPLE_ATTRIB 1 @9 ENTITY_ID 0 3 48 -2147483648 -1 #
integer_attrib-name_attrib-gen-attrib $-1 -1 $422 $-1 $255 2 1 1 1 1 1 1 1 1 1 1 1 1 1 0 1 1 1 @8 CUBIT_ID 30 #
point $-1 -1 -1 $-1 -1.5875000000267008 4.1275000000000004 5.0018703700000007 #
simple-snl-attrib $-1 -1 $-1 $258 $175 1 1 1 1 1 1 1 1 1 1 1 1 0 1 0 1 1 1 @17 NEW_SIMPLE_ATTRIB 1 @9 ENTITY_ID 0 3 26 -2147483648 -1 #
simple-snl-attrib $-1 -1 $-1 $260 $176 1 1 1 1 1 1 1 1 1 1 1 1 0 1 0 1 1 1 @17 NEW_SIMPLE_ATTRIB 1 @9 ENTITY_ID 0 3 27 -2147483648 -1 #
integer_attrib-name_attrib-gen-attrib $-1 -1 $423 $-1 $262 2 1 1 1 1 1 1 1 1 1 1 1 1 1 0 1 1 1 @8 CUBIT_ID 37 #
simple-snl-attrib $-1 -1 $424 $263 $117 1 1 1 1 1 1 1 1 1 1 1 1 0 1 0 1 1 1 @17 NEW_SIMPLE_ATTRIB 1 @9 UNIQUE_ID 0 1 449390878 #
simple-snl-attrib $-1 -1 $425 $264 $180 1 1 1 1 1 1 1 1 1 1 1 1 0 1 0 1 1 1 @17 NEW_SIMPLE_ATTRIB 1 @9 ENTITY_ID 0 3 41 -2147483648 -1 #
coedge $-1 -1 -1 $-1 $341 $267 $270 $360 reversed $356 $-1 #
coedge $-1 -1 -1 $-1 $267 $341 $317 $395 reversed $356 $-1 #
loop $-1 -1 -1 $-1 $-1 $355 $393 T 1.5875000000267008 1.5875000000267008 5 4.1275000000000004 4.1275000000000004 5.0018703700000007 unknown #
integer_attrib-name_attrib-gen-attrib $-1 -1 $426 $-1 $268 2 1 1 1 1 1 1 1 1 1 1 1 1 1 0 1 1 1 @8 CUBIT_ID 45 #
vertex $427 -1 -1 $-1 $318 $428 #
straight-curve $-1 -1 -1 $-1 2.8575000000133506 2.8575000000133506 5 0.70710678118654724 -0.70710678118654724 0 I I #
edge $429 -1 -1 $-1 $344 -0.00093518500000000005 $272 0.00093518500000000005 $354 $430 forward @7 unknown T 1.5875000000267008 4.1275000000000004 5 1.5875000000267008 4.1275000000000004 5.0018703700000007 #
simple-snl-attrib $-1 -1 $-1 $271 $184 1 1 1 1 1 1 1 1 1 1 1 1 0 1 0 1 1 1 @17 NEW_SIMPLE_ATTRIB 1 @9 ENTITY_ID 0 3 40 -2147483648 -1 #
integer_attrib-name_attrib-gen-attrib $-1 -1 $431 $-1 $272 2 1 1 1 1 1 1 1 1 1 1 1 1 1 0 1 1 1 @8 CUBIT_ID 32 #
point $-1 -1 -1 $-1 1.5875000000267008 4.1275000000000004 5 #
integer_attrib-name_attrib-gen-attrib $-1 -1 $432 $-1 $274 2 1 1 1 1 1 1 1 1 1 1 1 1 1 0 1 1 1 @8 CUBIT_ID 37 #
straight-curve $-1 -1 -1 $-1 -1.5875000000267008 4.1275000000000004 5.0009351850000003 0 0 1 I I #
integer_attrib-name_attrib-gen-attrib $-1 -1 $433 $-1 $275 2 1 1 1 1 1 1 1 1 1 1 1 1 1 0 1 1 1 @8 CUBIT_ID 22 #
plane-surface $-1 -1 -1 $-1 -2.8575000000133506 2.8575000000133506 5.0009351850000003 0.70710678118654746 -0.70710678118654746 0 0 0 -1 forward_v I I I I #
simple-snl-attrib $-1 -1 $-1 $277 $189 1 1 1 1 1 1 1 1 1 1 1 1 0 1 0 1 1 1 @17 NEW_SIMPLE_ATTRIB 1 @9 ENTITY_ID 0 3 29 -2147483648 -1 #
integer_attrib-name_attrib-gen-attrib $-1 -1 $434 $-1 $280 2 1 1 1 1 1 1 1 1 1 1 1 1 1 0 1 1 1 @8 CUBIT_ID 43 #
straight-curve $-1 -1 -1 $-1 2.8575000000133506 -2.8575000000133506 5 -0.70710678118654724 -0.70710678118654724 0 I I #
simple-snl-attrib $-1 -1 $-1 $281 $192 1 1 1 1 1 1 1 1 1 1 1 1 0 1 0 1 1 1 @17 NEW_SIMPLE_ATTRIB 1 @9 ENTITY_ID 0 3 26 -2147483648 -1 #
integer_attrib-name_attrib-gen-attrib $-1 -1 $435 $-1 $282 2 1 1 1 1 1 1 1 1 1 1 1 1 1 0 1 1 1 @8 CUBIT_ID 19 #
point $-1 -1 -1 $-1 1.5875000000267008 -4.1275000000000004 5 #
simple-snl-attrib $-1 -1 $-1 $285 $196 1 1 1 1 1 1 1 1 1 1 1 1 0 1 0 1 1 1 @17 NEW_SIMPLE_ATTRIB 1 @9 ENTITY_ID 0 3 18 -2147483648 -1 #
simple-snl-attrib $-1 -1 $-1 $287 $198 1 1 1 1 1 1 1 1 1 1 1 1 0 1 0 1 1 1 @17 NEW_SIMPLE_ATTRIB 1 @9 ENTITY_ID 0 3 33 -2147483648 -1 #
simple-snl-attrib $-1 -1 $-1 $289 $199 1 1 1 1 1 1 1 1 1 1 1 1 0 1 0 1 1 1 @17 NEW_SIMPLE_ATTRIB 1 @9 ENTITY_ID 0 3 35 -2147483648 -1 #
integer_attrib-name_attrib-gen-attrib $-1 -1 $436 $-1 $294 2 1 1 1 1 1 1 1 1 1 1 1 1 1 0 1 1 1 @8 CUBIT_ID 49 #
vertex $437 -1 -1 $-1 $294 $438 #
ellipse-curve $-1 -1 -1 $-1 0 0 4.95662037037037 0 0 -1 0.20949999999999999 0 0 1 I I #
simple-snl-attrib $-1 -1 $439 $295 $211 1 1 1 1 1 1 1 1 1 1 1 1 0 1 0 1 1 1 @17 NEW_SIMPLE_ATTRIB 2 @14 SOURCE_FEATURE @7 IMPRINT 0 0 #
integer_attrib-name_attrib-gen-attrib $-1 -1 $440 $-1 $296 2 1 1 1 1 1 1 1 1 1 1 1 1 1 0 1 1 1 @8 CUBIT_ID 41 #
point $-1 -1 -1 $-1 -0.20949999999999999 2.5656350442137042e-17 5 #
simple-snl-attrib $-1 -1 $-1 $299 $213 1 1 1 1 1 1 1 1 1 1 1 1 0 1 0 1 1 1 @17 NEW_SIMPLE_ATTRIB 1 @9 ENTITY_ID 0 3 34 -2147483648 -1 #
simple-snl-attrib $-1 -1 $441 $301 $90 1 1 1 1 1 1 1 1 1 1 1 1 0 1 0 1 1 1 @17 NEW_SIMPLE_ATTRIB 1 @9 ENTITY_ID 3 0.10474999999999997 -0.18143232209283988 5.0018703700000007 3 58 759602081 0 #
simple-snl-attrib $-1 -1 $442 $302 $142 1 1 1 1 1 1 1 1 1 1 1 1 0 1 0 1 1 1 @17 NEW_SIMPLE_ATTRIB 1 @13 MERGE_PARTNER 0 4 759602081 1 43 0 #
simple-snl-attrib $-1 -1 $-1 $303 $220 1 1 1 1 1 1 1 1 1 1 1 1 0 1 0 1 1 1 @17 NEW_SIMPLE_ATTRIB 1 @9 ENTITY_ID 0 3 56 -2147483648 -1 #
integer_attrib-name_attrib-gen-attrib $-1 -1 $443 $-1 $304 2 1 1 1 1 1 1 1 1 1 1 1 1 1 0 1 1 1 @8 CUBIT_ID 40 #
point $-1 -1 -1 $-1 10 0 9.9000000000000004 #
simple-snl-attrib $-1 -1 $-1 $307 $222 1 1 1 1 1 1 1 1 1 1 1 1 0 1 0 1 1 1 @17 NEW_SIMPLE_ATTRIB 1 @9 ENTITY_ID 0 3 39 -2147483648 -1 #
simple-snl-attrib $-1 -1 $-1 $310 $225 1 1 1 1 1 1 1 1 1 1 1 1 0 1 0 1 1 1 @17 NEW_SIMPLE_ATTRIB 1 @9 ENTITY_ID 0 3 38 -2147483648 -1 #
simple-snl-attrib $-1 -1 $-1 $314 $232 1 1 1 1 1 1 1 1 1 1 1 1 0 1 0 1 1 1 @17 NEW_SIMPLE_ATTRIB 1 @9 ENTITY_ID 0 3 17 -2147483648 -1 #
integer_attrib-name_attrib-gen-attrib $-1 -1 $444 $-1 $315 2 1 1 1 1 1 1 1 1 1 1 1 1 1 0 1 1 1 @8 CUBIT_ID 18 #
face $445 -1 -1 $-1 $262 $356 $14 $-1 $446 reversed single T 1.5875000000267008 1.5875000000267008 5 4.1275000000000004 4.1275000000000004 5.0018703700000007 F #
plane-surface $-1 -1 -1 $-1 2.8575000000133506 -2.8575000000133506 5.0009351850000003 -0.70710678118654746 0.70710678118654746 0 0 0 1 forward_v I I I I #
edge $447 -1 -1 $-1 $358 -0.00093518500000000005 $399 0.00093518500000000005 $355 $448 forward @7 unknown T 4.1275000000000004 1.5875000000267008 5 4.1275000000000004 1.5875000000267008 5.0018703700000007 #
integer_attrib-name_attrib-gen-attrib $-1 -1 $449 $-1 $318 2 1 1 1 1 1 1 1 1 1 1 1 1 1 0 1 1 1 @8 CUBIT_ID 30 #
straight-curve $-1 -1 -1 $-1 4.1275000000000004 0 5 0 1 0 I I #
integer_attrib-name_attrib-gen-attrib $-1 -1 $450 $-1 $320 2 1 1 1 1 1 1 1 1 1 1 1 1 1 0 1 1 1 @8 CUBIT_ID 32 #
vertex $451 -1 -1 $-1 $342 $452 #
straight-curve $-1 -1 -1 $-1 4.1275000000000004 0 5.0018703700000007 0 -1 0 I I #
simple-snl-attrib $-1 -1 $-1 $323 $238 1 1 1 1 1 1 1 1 1 1 1 1 0 1 0 1 1 1 @17 NEW_SIMPLE_ATTRIB 1 @9 ENTITY_ID 0 3 29 -2147483648 -1 #
integer_attrib-name_attrib-gen-attrib $-1 -1 $453 $-1 $324 2 1 1 1 1 1 1 1 1 1 1 1 1 1 0 1 1 1 @8 CUBIT_ID 21 #
point $-1 -1 -1 $-1 4.1275000000000004 -1.5875000000267008 5.0018703700000007 #
integer_attrib-name_attrib-gen-attrib $-1 -1 $454 $-1 $325 2 1 1 1 1 1 1 1 1 1 1 1 1 1 0 1 1 1 @8 CUBIT_ID 22 #
point $-1 -1 -1 $-1 4.1275000000000004 -1.5875000000267008 5 #
integer_attrib-name_attrib-gen-attrib $-1 -1 $455 $-1 $328 2 1 1 1 1 1 1 1 1 1 1 1 1 1 0 1 1 1 @8 CUBIT_ID 27 #
straight-curve $-1 -1 -1 $-1 1.5875000000267008 -4.1275000000000004 5.0009351850000003 0 0 1 I I #
simple-snl-attrib $-1 -1 $-1 $329 $240 1 1 1 1 1 1 1 1 1 1 1 1 0 1 0 1 1 1 @17 NEW_SIMPLE_ATTRIB 1 @9 ENTITY_ID 0 3 28 -2147483648 -1 #
integer_attrib-name_attrib-gen-attrib $-1 -1 $456 $-1 $330 2 1 1 1 1 1 1 1 1 1 1 1 1 1 0 1 1 1 @8 CUBIT_ID 20 #
point $-1 -1 -1 $-1 1.5875000000267008 -4.1275000000000004 5.0018703700000007 #
simple-snl-attrib $-1 -1 $-1 $333 $242 1 1 1 1 1 1 1 1 1 1 1 1 0 1 0 1 1 1 @17 NEW_SIMPLE_ATTRIB 1 @9 ENTITY_ID 0 3 17 -2147483648 -1 #
integer_attrib-name_attrib-gen-attrib $-1 -1 $457 $-1 $335 2 1 1 1 1 1 1 1 1 1 1 1 1 1 0 1 1 1 @8 CUBIT_ID 38 #
simple-snl-attrib $-1 -1 $458 $336 $167 1 1 1 1 1 1 1 1 1 1 1 1 0 1 0 1 1 1 @17 NEW_SIMPLE_ATTRIB 1 @9 UNIQUE_ID 0 1 2014907335 #
simple-snl-attrib $-1 -1 $459 $337 $246 1 1 1 1 1 1 1 1 1 1 1 1 0 1 0 1 1 1 @17 NEW_SIMPLE_ATTRIB 1 @9 ENTITY_ID 0 3 42 -2147483648 -1 #
integer_attrib-name_attrib-gen-attrib $-1 -1 $460 $-1 $339 2 1 1 1 1 1 1 1 1 1 1 1 1 1 0 1 1 1 @8 CUBIT_ID 44 #
straight-curve $-1 -1 -1 $-1 2.8575000000133506 -2.8575000000133506 5.0018703700000007 0.70710678118654724 0.70710678118654724 0 I I #
integer_attrib-name_attrib-gen-attrib $-1 -1 $461 $-1 $342 2 1 1 1 1 1 1 1 1 1 1 1 1 1 0 1 1 1 @8 CUBIT_ID 46 #
straight-curve $-1 -1 -1 $-1 2.8575000000133506 2.8575000000133506 5.0018703700000007 -0.70710678118654724 0.70710678118654724 0 I I #
simple-snl-attrib $-1 -1 $-1 $343 $253 1 1 1 1 1 1 1 1 1 1 1 1 0 1 0 1 1 1 @17 NEW_SIMPLE_ATTRIB 1 @9 ENTITY_ID 0 3 38 -2147483648 -1 #
integer_attrib-name_attrib-gen-attrib $-1 -1 $462 $-1 $344 2 1 1 1 1 1 1 1 1 1 1 1 1 1 0 1 1 1 @8 CUBIT_ID 31 #
point $-1 -1 -1 $-1 1.5875000000267008 4.1275000000000004 5.0018703700000007 #
simple-snl-attrib $-1 -1 $-1 $347 $255 1 1 1 1 1 1 1 1 1 1 1 1 0 1 0 1 1 1 @17 NEW_SIMPLE_ATTRIB 1 @9 ENTITY_ID 0 3 30 -2147483648 -1 #
simple-snl-attrib $-1 -1 $-1 $351 $262 1 1 1 1 1 1 1 1 1 1 1 1 0 1 0 1 1 1 @17 NEW_SIMPLE_ATTRIB 1 @9 ENTITY_ID 0 3 37 -2147483648 -1 #
simple-snl-attrib $-1 -1 $463 $352 $117 1 1 1 1 1 1 1 1 1 1 1 1 0 1 0 1 1 1 @17 NEW_SIMPLE_ATTRIB 1 @9 ENTITY_ID 3 0.10474999999999997 0.18143232209283988 5 3 57 1253631112 0 #
simple-snl-attrib $-1 -1 $464 $353 $180 1 1 1 1 1 1 1 1 1 1 1 1 0 1 0 1 1 1 @17 NEW_SIMPLE_ATTRIB 1 @13 MERGE_PARTNER 0 4 1253631112 1 41 1 #
simple-snl-attrib $-1 -1 $-1 $357 $268 1 1 1 1 1 1 1 1 1 1 1 1 0 1 0 1 1 1 @17 NEW_SIMPLE_ATTRIB 1 @9 ENTITY_ID 0 3 45 -2147483648 -1 #
integer_attrib-name_attrib-gen-attrib $-1 -1 $465 $-1 $358 2 1 1 1 1 1 1 1 1 1 1 1 1 1 0 1 1 1 @8 CUBIT_ID 23 #
point $-1 -1 -1 $-1 4.1275000000000004 1.5875000000267008 5 #
integer_attrib-name_attrib-gen-attrib $-1 -1 $466 $-1 $360 2 1 1 1 1 1 1 1 1 1 1 1 1 1 0 1 1 1 @8 CUBIT_ID 39 #
straight-curve $-1 -1 -1 $-1 1.5875000000267008 4.1275000000000004 5.0009351850000003 0 0 -1 I I #
simple-snl-attrib $-1 -1 $-1 $362 $272 1 1 1 1 1 1 1 1 1 1 1 1 0 1 0 1 1 1 @17 NEW_SIMPLE_ATTRIB 1 @9 ENTITY_ID 0 3 32 -2147483648 -1 #
simple-snl-attrib $-1 -1 $-1 $364 $274 1 1 1 1 1 1 1 1 1 1 1 1 0 1 0 1 1 1 @17 NEW_SIMPLE_ATTRIB 1 @9 ENTITY_ID 0 3 37 -2147483648 -1 #
simple-snl-attrib $-1 -1 $-1 $366 $275 1 1 1 1 1 1 1 1 1 1 1 1 0 1 0 1 1 1 @17 NEW_SIMPLE_ATTRIB 1 @9 ENTITY_ID 0 3 22 -2147483648 -1 #
simple-snl-attrib $-1 -1 $-1 $369 $280 1 1 1 1 1 1 1 1 1 1 1 1 0 1 0 1 1 1 @17 NEW_SIMPLE_ATTRIB 1 @9 ENTITY_ID 0 3 43 -2147483648 -1 #
simple-snl-attrib $-1 -1 $-1 $372 $282 1 1 1 1 1 1 1 1 1 1 1 1 0 1 0 1 1 1 @17 NEW_SIMPLE_ATTRIB 1 @9 ENTITY_ID 0 3 19 -2147483648 -1 #
simple-snl-attrib $-1 -1 $-1 $377 $294 1 1 1 1 1 1 1 1 1 1 1 1 0 1 0 1 1 1 @17 NEW_SIMPLE_ATTRIB 1 @9 ENTITY_ID 0 3 49 -2147483648 -1 #
integer_attrib-name_attrib-gen-attrib $-1 -1 $467 $-1 $378 2 1 1 1 1 1 1 1 1 1 1 1 1 1 0 1 1 1 @8 CUBIT_ID 33 #
point $-1 -1 -1 $-1 0.20949999999999999 0 4.95662037037037 #
simple-snl-attrib $-1 -1 $468 $380 $211 1 1 1 1 1 1 1 1 1 1 1 1 0 1 0 1 1 1 @17 NEW_SIMPLE_ATTRIB 1 @9 UNIQUE_ID 0 1 449390878 #
simple-snl-attrib $-1 -1 $469 $381 $296 1 1 1 1 1 1 1 1 1 1 1 1 0 1 0 1 1 1 @17 NEW_SIMPLE_ATTRIB 1 @9 ENTITY_ID 0 3 41 -2147483648 -1 #
simple-snl-attrib $-1 -1 $-1 $384 $90 1 1 1 1 1 1 1 1 1 1 1 1 0 1 0 1 1 1 @17 NEW_SIMPLE_ATTRIB 1 @13 MERGE_PARTNER 0 4 2014907335 1 59 0 #
simple-snl-attrib $-1 -1 $-1 $385 $142 1 1 1 1 1 1 1 1 1 1 1 1 0 1 0 1 1 1 @17 NEW_SIMPLE_ATTRIB 1 @9 UNIQUE_ID 0 1 759602081 #
simple-snl-attrib $-1 -1 $-1 $387 $304 1 1 1 1 1 1 1 1 1 1 1 1 0 1 0 1 1 1 @17 NEW_SIMPLE_ATTRIB 1 @9 ENTITY_ID 0 3 40 -2147483648 -1 #
simple-snl-attrib $-1 -1 $-1 $392 $315 1 1 1 1 1 1 1 1 1 1 1 1 0 1 0 1 1 1 @17 NEW_SIMPLE_ATTRIB 1 @9 ENTITY_ID 0 3 18 -2147483648 -1 #
integer_attrib-name_attrib-gen-attrib $-1 -1 $470 $-1 $393 2 1 1 1 1 1 1 1 1 1 1 1 1 1 0 1 1 1 @8 CUBIT_ID 19 #
plane-surface $-1 -1 -1 $-1 2.8575000000133506 2.8575000000133506 5.0009351850000003 -0.70710678118654746 -0.70710678118654746 0 0 0 1 forward_v I I I I #
integer_attrib-name_attrib-gen-attrib $-1 -1 $471 $-1 $395 2 1 1 1 1 1 1 1 1 1 1 1 1 1 0 1 1 1 @8 CUBIT_ID 31 #
straight-curve $-1 -1 -1 $-1 4.1275000000000004 1.5875000000267008 5.0009351850000003 0 0 1 I I #
simple-snl-attrib $-1 -1 $-1 $396 $318 1 1 1 1 1 1 1 1 1 1 1 1 0 1 0 1 1 1 @17 NEW_SIMPLE_ATTRIB 1 @9 ENTITY_ID 0 3 30 -2147483648 -1 #
simple-snl-attrib $-1 -1 $-1 $398 $320 1 1 1 1 1 1 1 1 1 1 1 1 0 1 0 1 1 1 @17 NEW_SIMPLE_ATTRIB 1 @9 ENTITY_ID 0 3 32 -2147483648 -1 #
integer_attrib-name_attrib-gen-attrib $-1 -1 $472 $-1 $399 2 1 1 1 1 1 1 1 1 1 1 1 1 1 0 1 1 1 @8 CUBIT_ID 24 #
point $-1 -1 -1 $-1 4.1275000000000004 1.5875000000267008 5.0018703700000007 #
simple-snl-attrib $-1 -1 $-1 $402 $324 1 1 1 1 1 1 1 1 1 1 1 1 0 1 0 1 1 1 @17 NEW_SIMPLE_ATTRIB 1 @9 ENTITY_ID 0 3 21 -2147483648 -1 #
simple-snl-attrib $-1 -1 $-1 $404 $325 1 1 1 1 1 1 1 1 1 1 1 1 0 1 0 1 1 1 @17 NEW_SIMPLE_ATTRIB 1 @9 ENTITY_ID 0 3 22 -2147483648 -1 #
simple-snl-attrib $-1 -1 $-1 $406 $328 1 1 1 1 1 1 1 1 1 1 1 1 0 1 0 1 1 1 @17 NEW_SIMPLE_ATTRIB 1 @9 ENTITY_ID 0 3 27 -2147483648 -1 #
simple-snl-attrib $-1 -1 $-1 $409 $330 1 1 1 1 1 1 1 1 1 1 1 1 0 1 0 1 1 1 @17 NEW_SIMPLE_ATTRIB 1 @9 ENTITY_ID 0 3 20 -2147483648 -1 #
simple-snl-attrib $-1 -1 $-1 $412 $335 1 1 1 1 1 1 1 1 1 1 1 1 0 1 0 1 1 1 @17 NEW_SIMPLE_ATTRIB 1 @9 ENTITY_ID 0 3 38 -2147483648 -1 #
simple-snl-attrib $-1 -1 $473 $413 $167 1 1 1 1 1 1 1 1 1 1 1 1 0 1 0 1 1 1 @17 NEW_SIMPLE_ATTRIB 1 @9 ENTITY_ID 3 0.10474999999999997 -0.18143232209283988 5.0018703700000007 3 58 759602081 0 #
simple-snl-attrib $-1 -1 $474 $414 $246 1 1 1 1 1 1 1 1 1 1 1 1 0 1 0 1 1 1 @17 NEW_SIMPLE_ATTRIB 1 @13 MERGE_PARTNER 0 4 759602081 1 42 1 #
simple-snl-attrib $-1 -1 $-1 $415 $339 1 1 1 1 1 1 1 1 1 1 1 1 0 1 0 1 1 1 @17 NEW_SIMPLE_ATTRIB 1 @9 ENTITY_ID 0 3 44 -2147483648 -1 #
simple-snl-attrib $-1 -1 $-1 $417 $342 1 1 1 1 1 1 1 1 1 1 1 1 0 1 0 1 1 1 @17 NEW_SIMPLE_ATTRIB 1 @9 ENTITY_ID 0 3 46 -2147483648 -1 #
simple-snl-attrib $-1 -1 $-1 $420 $344 1 1 1 1 1 1 1 1 1 1 1 1 0 1 0 1 1 1 @17 NEW_SIMPLE_ATTRIB 1 @9 ENTITY_ID 0 3 31 -2147483648 -1 #
simple-snl-attrib $-1 -1 $-1 $424 $117 1 1 1 1 1 1 1 1 1 1 1 1 0 1 0 1 1 1 @17 NEW_SIMPLE_ATTRIB 1 @13 MERGE_PARTNER 0 4 449390878 1 57 1 #
simple-snl-attrib $-1 -1 $-1 $425 $180 1 1 1 1 1 1 1 1 1 1 1 1 0 1 0 1 1 1 @17 NEW_SIMPLE_ATTRIB 1 @9 UNIQUE_ID 0 1 1253631112 #
simple-snl-attrib $-1 -1 $-1 $427 $358 1 1 1 1 1 1 1 1 1 1 1 1 0 1 0 1 1 1 @17 NEW_SIMPLE_ATTRIB 1 @9 ENTITY_ID 0 3 23 -2147483648 -1 #
simple-snl-attrib $-1 -1 $-1 $429 $360 1 1 1 1 1 1 1 1 1 1 1 1 0 1 0 1 1 1 @17 NEW_SIMPLE_ATTRIB 1 @9 ENTITY_ID 0 3 39 -2147483648 -1 #
simple-snl-attrib $-1 -1 $-1 $437 $378 1 1 1 1 1 1 1 1 1 1 1 1 0 1 0 1 1 1 @17 NEW_SIMPLE_ATTRIB 1 @9 ENTITY_ID 0 3 33 -2147483648 -1 #
simple-snl-attrib $-1 -1 $475 $439 $211 1 1 1 1 1 1 1 1 1 1 1 1 0 1 0 1 1 1 @17 NEW_SIMPLE_ATTRIB 1 @9 ENTITY_ID 3 0.10474999999999997 0.18143232209283988 5 3 57 1253631112 0 #
simple-snl-attrib $-1 -1 $476 $440 $296 1 1 1 1 1 1 1 1 1 1 1 1 0 1 0 1 1 1 @17 NEW_SIMPLE_ATTRIB 1 @13 MERGE_PARTNER 0 4 1253631112 1 44 0 #
simple-snl-attrib $-1 -1 $-1 $445 $393 1 1 1 1 1 1 1 1 1 1 1 1 0 1 0 1 1 1 @17 NEW_SIMPLE_ATTRIB 1 @9 ENTITY_ID 0 3 19 -2147483648 -1 #
simple-snl-attrib $-1 -1 $-1 $447 $395 1 1 1 1 1 1 1 1 1 1 1 1 0 1 0 1 1 1 @17 NEW_SIMPLE_ATTRIB 1 @9 ENTITY_ID 0 3 31 -2147483648 -1 #
simple-snl-attrib $-1 -1 $-1 $451 $399 1 1 1 1 1 1 1 1 1 1 1 1 0 1 0 1 1 1 @17 NEW_SIMPLE_ATTRIB 1 @9 ENTITY_ID 0 3 24 -2147483648 -1 #
simple-snl-attrib $-1 -1 $-1 $458 $167 1 1 1 1 1 1 1 1 1 1 1 1 0 1 0 1 1 1 @17 NEW_SIMPLE_ATTRIB 1 @13 MERGE_PARTNER 0 4 2014907335 1 58 1 #
simple-snl-attrib $-1 -1 $-1 $459 $246 1 1 1 1 1 1 1 1 1 1 1 1 0 1 0 1 1 1 @17 NEW_SIMPLE_ATTRIB 1 @9 UNIQUE_ID 0 1 759602081 #
simple-snl-attrib $-1 -1 $-1 $468 $211 1 1 1 1 1 1 1 1 1 1 1 1 0 1 0 1 1 1 @17 NEW_SIMPLE_ATTRIB 1 @13 MERGE_PARTNER 0 4 449390878 1 60 0 #
simple-snl-attrib $-1 -1 $-1 $469 $296 1 1 1 1 1 1 1 1 1 1 1 1 0 1 0 1 1 1 @17 NEW_SIMPLE_ATTRIB 1 @9 UNIQUE_ID 0 1 1253631112 #
End-of-ACIS-data 