1900 0 3 0           
10 Cubit 14.0 17 ACIS 22.0.2 Linux 24 Wed Feb 28 14:15:31 2018 
1 9.9999999999999995e-07 1e-10 
body $3 -1 -1 $-1 $4 $-1 $5 T -4.1275000000000004 -4.1275000000000004 5 4.1275000000000004 4.1275000000000004 5.0018703700000007 #
body $6 -1 -1 $-1 $7 $-1 $8 T -3.8100000000000001 -3.8100000000000001 5.1018703700000003 3.8100000000000001 3.8100000000000001 7.1018703700000003 #
body $9 -1 -1 $-1 $10 $-1 $11 T -10.5 -10.5 -0.59999999999999964 10.5 10.5 10.4 #
integer_attrib-name_attrib-gen-attrib $-1 -1 $12 $-1 $0 2 1 1 1 1 1 1 1 1 1 1 1 1 1 0 1 1 1 @8 CUBIT_ID 1 #
lump $13 -1 -1 $-1 $-1 $14 $0 T -4.1275000000000004 -4.1275000000000004 5 4.1275000000000004 4.1275000000000004 5.0018703700000007 #
transform $-1 -1 1 0 0 0 1 0 0 0 1 0 0 0 1 no_rotate no_reflect no_shear #
integer_attrib-name_attrib-gen-attrib $-1 -1 $15 $-1 $1 2 1 1 1 1 1 1 1 1 1 1 1 1 1 0 1 1 1 @8 CUBIT_ID 2 #
lump $16 -1 -1 $-1 $-1 $17 $1 T -3.8100000000000001 -3.8100000000000001 5.1018703700000003 3.8100000000000001 3.8100000000000001 7.1018703700000003 #
transform $-1 -1 1 0 0 0 1 0 0 0 1 0 0 0 1 no_rotate no_reflect no_shear #
integer_attrib-name_attrib-gen-attrib $-1 -1 $18 $-1 $2 2 1 1 1 1 1 1 1 1 1 1 1 1 1 0 1 1 1 @8 CUBIT_ID 4 #
lump $19 -1 -1 $-1 $-1 $20 $2 T -10.5 -10.5 -0.59999999999999964 10.5 10.5 10.4 #
transform $-1 -1 1 0 0 0 1 0 0 0 1 0 0 0 1 no_rotate no_reflect no_shear #
simple-snl-attrib $-1 -1 $-1 $3 $0 1 1 1 1 1 1 1 1 1 1 1 1 0 1 0 1 1 1 @17 NEW_SIMPLE_ATTRIB 1 @9 ENTITY_ID 0 3 1 -2147483648 -1 #
integer_attrib-name_attrib-gen-attrib $-1 -1 $21 $-1 $4 2 1 1 1 1 1 1 1 1 1 1 1 1 1 0 1 1 1 @8 CUBIT_ID 1 #
shell $-1 -1 -1 $-1 $-1 $-1 $22 $-1 $4 T -4.1275000000000004 -4.1275000000000004 5 4.1275000000000004 4.1275000000000004 5.0018703700000007 #
simple-snl-attrib $-1 -1 $-1 $6 $1 1 1 1 1 1 1 1 1 1 1 1 1 0 1 0 1 1 1 @17 NEW_SIMPLE_ATTRIB 1 @9 ENTITY_ID 0 3 2 -2147483648 -1 #
integer_attrib-name_attrib-gen-attrib $-1 -1 $23 $-1 $7 2 1 1 1 1 1 1 1 1 1 1 1 1 1 0 1 1 1 @8 CUBIT_ID 2 #
shell $-1 -1 -1 $-1 $-1 $-1 $24 $-1 $7 T -3.8100000000000001 -3.8100000000000001 5.1018703700000003 3.8100000000000001 3.8100000000000001 7.1018703700000003 #
simple-snl-attrib $-1 -1 $-1 $9 $2 1 1 1 1 1 1 1 1 1 1 1 1 0 1 0 1 1 1 @17 NEW_SIMPLE_ATTRIB 1 @9 ENTITY_ID 0 3 4 -2147483648 -1 #
integer_attrib-name_attrib-gen-attrib $-1 -1 $25 $-1 $10 2 1 1 1 1 1 1 1 1 1 1 1 1 1 0 1 1 1 @8 CUBIT_ID 5 #
shell $-1 -1 -1 $-1 $26 $-1 $27 $-1 $10 T -10.5 -10.5 -0.59999999999999964 10.5 10.5 10.4 #
simple-snl-attrib $-1 -1 $28 $13 $4 1 1 1 1 1 1 1 1 1 1 1 1 0 1 0 1 1 1 @17 NEW_SIMPLE_ATTRIB 1 @9 ENTITY_ID 0 3 1 -2147483648 -1 #
face $29 -1 -1 $-1 $30 $31 $14 $-1 $32 forward single T -4.1275000000000004 -4.1275000000000004 5.0018703700000007 4.1275000000000004 4.1275000000000004 5.0018703700000007 F #
simple-snl-attrib $-1 -1 $33 $16 $7 1 1 1 1 1 1 1 1 1 1 1 1 0 1 0 1 1 1 @17 NEW_SIMPLE_ATTRIB 1 @9 ENTITY_ID 0 3 2 -2147483648 -1 #
face $34 -1 -1 $-1 $35 $36 $17 $-1 $37 forward single T -3.8100000000000001 -3.8100000000000001 5.1018703700000003 3.8100000000000001 3.8100000000000001 7.1018703700000003 F #
simple-snl-attrib $-1 -1 $38 $19 $10 1 1 1 1 1 1 1 1 1 1 1 1 0 1 0 1 1 1 @17 NEW_SIMPLE_ATTRIB 1 @9 ENTITY_ID 0 3 5 -2147483648 -1 #
shell $-1 -1 -1 $-1 $-1 $-1 $39 $-1 $10 T -10 -10 -0.099999999999999645 10 10 9.9000000000000004 #
face $40 -1 -1 $-1 $41 $42 $20 $-1 $43 forward single T -10.5 -10.5 -0.59999999999999964 10.5 10.5 10.4 F #
simple-snl-attrib $-1 -1 $44 $21 $4 1 1 1 1 1 1 1 1 1 1 1 1 0 1 0 1 1 1 @17 NEW_SIMPLE_ATTRIB 3 @5 GROUP @23 material_1_density_-2.7 @31 estimator_1.cell.pulse.height.e 0 11 2 3 4 1158833223 1154547181 0 0 0 0 0 0 #
integer_attrib-name_attrib-gen-attrib $-1 -1 $45 $-1 $22 2 1 1 1 1 1 1 1 1 1 1 1 1 1 0 1 1 1 @8 CUBIT_ID 1 #
face $46 -1 -1 $-1 $47 $48 $14 $-1 $49 reversed single T -4.1275000000000004 -4.1275000000000004 5 4.1275000000000004 4.1275000000000004 5 F #
loop $-1 -1 -1 $-1 $-1 $50 $22 T -4.1275000000000004 -4.1275000000000004 5.0018703700000007 4.1275000000000004 4.1275000000000004 5.0018703700000007 unknown #
plane-surface $-1 -1 -1 $-1 0 0 5.0018703700000007 0 0 1 1 0 0 forward_v I I I I #
simple-snl-attrib $-1 -1 $51 $23 $7 1 1 1 1 1 1 1 1 1 1 1 1 0 1 0 1 1 1 @17 NEW_SIMPLE_ATTRIB 2 @5 GROUP @23 material_1_density_-2.7 0 7 1 3 1158833223 1 0 0 0 #
integer_attrib-name_attrib-gen-attrib $-1 -1 $52 $-1 $24 2 1 1 1 1 1 1 1 1 1 1 1 1 1 0 1 1 1 @8 CUBIT_ID 7 #
face $53 -1 -1 $-1 $54 $55 $17 $-1 $56 forward single T -3.8100000000000001 -3.8100000000000001 5.1018703700000003 3.8100000000000001 3.8100000000000001 5.1018703700000003 F #
loop $-1 -1 -1 $-1 $57 $58 $24 T -3.8100000000000001 -3.8100000000000001 5.1018703700000003 3.8100000000000001 3.8100000000000001 5.1018703700000003 unknown #
cone-surface $-1 -1 -1 $-1 0 0 6.1018703700000003 0 0 1 3.8100000000000001 0 0 1 I I 0 1 3.8100000000000001 forward I I I I #
simple-snl-attrib $-1 -1 $59 $25 $10 1 1 1 1 1 1 1 1 1 1 1 1 0 1 0 1 1 1 @17 NEW_SIMPLE_ATTRIB 2 @5 GROUP @16 termination.cell 0 7 1 2 1694582777 0 0 0 0 #
face $60 -1 -1 $-1 $61 $62 $26 $-1 $63 reversed single T -10 -10 -0.099999999999999645 10 10 9.9000000000000004 F #
integer_attrib-name_attrib-gen-attrib $-1 -1 $64 $-1 $27 2 1 1 1 1 1 1 1 1 1 1 1 1 1 0 1 1 1 @8 CUBIT_ID 13 #
face $65 -1 -1 $-1 $66 $67 $20 $-1 $68 forward single T -10.5 -10.5 -0.59999999999999964 10.5 10.5 -0.59999999999999964 F #
loop $-1 -1 -1 $-1 $69 $70 $27 T -10.5 -10.5 -0.59999999999999964 10.5 10.5 -0.59999999999999964 u_sep $43 F #
cone-surface $-1 -1 -1 $-1 0 0 4.9000000000000004 0 0 1 10.5 0 0 1 I I 0 1 10.5 forward I I I I #
simple-snl-attrib $-1 -1 $-1 $28 $4 1 1 1 1 1 1 1 1 1 1 1 1 0 1 0 1 1 1 @17 NEW_SIMPLE_ATTRIB 2 @11 ENTITY_NAME @11 Calorimeter 0 0 #
simple-snl-attrib $-1 -1 $-1 $29 $22 1 1 1 1 1 1 1 1 1 1 1 1 0 1 0 1 1 1 @17 NEW_SIMPLE_ATTRIB 1 @9 ENTITY_ID 0 3 1 -2147483648 -1 #
integer_attrib-name_attrib-gen-attrib $-1 -1 $71 $-1 $30 2 1 1 1 1 1 1 1 1 1 1 1 1 1 0 1 1 1 @8 CUBIT_ID 2 #
face $72 -1 -1 $-1 $73 $74 $14 $-1 $75 reversed single T -4.1275000000000004 -4.1275000000000004 5 4.1275000000000004 -4.1275000000000004 5.0018703700000007 F #
loop $-1 -1 -1 $-1 $-1 $76 $30 T -4.1275000000000004 -4.1275000000000004 5 4.1275000000000004 4.1275000000000004 5 unknown #
plane-surface $-1 -1 -1 $-1 0 0 5 0 0 1 1 0 0 forward_v I I I I #
coedge $-1 -1 -1 $-1 $77 $78 $79 $80 forward $31 $-1 #
simple-snl-attrib $-1 -1 $-1 $33 $7 1 1 1 1 1 1 1 1 1 1 1 1 0 1 0 1 1 1 @17 NEW_SIMPLE_ATTRIB 3 @11 ENTITY_NAME @14 Infinite Plate @14 Infinite_Plate 0 0 #
simple-snl-attrib $-1 -1 $-1 $34 $24 1 1 1 1 1 1 1 1 1 1 1 1 0 1 0 1 1 1 @17 NEW_SIMPLE_ATTRIB 1 @9 ENTITY_ID 0 3 7 -2147483648 -1 #
integer_attrib-name_attrib-gen-attrib $-1 -1 $81 $-1 $35 2 1 1 1 1 1 1 1 1 1 1 1 1 1 0 1 1 1 @8 CUBIT_ID 8 #
face $82 -1 -1 $-1 $-1 $83 $17 $-1 $84 forward single T -3.8100000000000001 -3.8100000000000001 7.1018703700000003 3.8100000000000001 3.8100000000000001 7.1018703700000003 F #
loop $-1 -1 -1 $-1 $-1 $85 $35 T -3.8100000000000001 -3.8100000000000001 5.1018703700000003 3.8100000000000001 3.8100000000000001 5.1018703700000003 unknown #
plane-surface $-1 -1 -1 $-1 0 0 5.1018703700000003 0 0 -1 -1 0 0 forward_v I I I I #
loop $-1 -1 -1 $-1 $-1 $86 $24 T -3.8100000000000001 -3.8100000000000001 7.1018703700000003 3.8100000000000001 3.8100000000000001 7.1018703700000003 unknown #
coedge $-1 -1 -1 $-1 $58 $58 $85 $87 reversed $36 $-1 #
simple-snl-attrib $-1 -1 $-1 $38 $10 1 1 1 1 1 1 1 1 1 1 1 1 0 1 0 1 1 1 @17 NEW_SIMPLE_ATTRIB 2 @11 ENTITY_NAME @9 Graveyard 0 0 #
integer_attrib-name_attrib-gen-attrib $-1 -1 $88 $-1 $39 2 1 1 1 1 1 1 1 1 1 1 1 1 1 0 1 1 1 @8 CUBIT_ID 16 #
face $89 -1 -1 $-1 $90 $91 $26 $-1 $92 reversed single T -10 -10 -0.099999999999999645 10 10 -0.099999999999999645 F #
loop $-1 -1 -1 $-1 $93 $94 $39 T -10 -10 -0.099999999999999645 10 10 -0.099999999999999645 u_sep $63 T #
cone-surface $-1 -1 -1 $-1 0 0 4.9000000000000004 0 0 1 10 0 0 1 I I 0 1 10 forward I I I I #
simple-snl-attrib $-1 -1 $-1 $40 $27 1 1 1 1 1 1 1 1 1 1 1 1 0 1 0 1 1 1 @17 NEW_SIMPLE_ATTRIB 1 @9 ENTITY_ID 0 3 13 -2147483648 -1 #
integer_attrib-name_attrib-gen-attrib $-1 -1 $95 $-1 $41 2 1 1 1 1 1 1 1 1 1 1 1 1 1 0 1 1 1 @8 CUBIT_ID 14 #
face $96 -1 -1 $-1 $-1 $97 $20 $-1 $98 forward single T -10.5 -10.5 10.4 10.5 10.5 10.4 F #
loop $-1 -1 -1 $-1 $-1 $99 $41 T -10.5 -10.5 -0.59999999999999964 10.5 10.5 -0.59999999999999964 unknown #
plane-surface $-1 -1 -1 $-1 0 0 -0.59999999999999964 0 0 -1 -1 0 0 forward_v I I I I #
loop $-1 -1 -1 $-1 $-1 $100 $27 T -10.5 -10.5 10.4 10.5 10.5 10.4 u_sep $43 F #
coedge $-1 -1 -1 $-1 $70 $70 $99 $101 reversed $42 $-1 #
simple-snl-attrib $-1 -1 $-1 $46 $30 1 1 1 1 1 1 1 1 1 1 1 1 0 1 0 1 1 1 @17 NEW_SIMPLE_ATTRIB 1 @9 ENTITY_ID 0 3 2 -2147483648 -1 #
integer_attrib-name_attrib-gen-attrib $-1 -1 $102 $-1 $47 2 1 1 1 1 1 1 1 1 1 1 1 1 1 0 1 1 1 @8 CUBIT_ID 3 #
face $103 -1 -1 $-1 $104 $105 $14 $-1 $106 reversed single T -4.1275000000000004 -4.1275000000000004 5 -4.1275000000000004 4.1275000000000004 5.0018703700000007 F #
loop $-1 -1 -1 $-1 $-1 $107 $47 T -4.1275000000000004 -4.1275000000000004 5 4.1275000000000004 -4.1275000000000004 5.0018703700000007 unknown #
plane-surface $-1 -1 -1 $-1 0 -4.1275000000000004 5.0009351850000003 0 1 0 0 0 1 forward_v I I I I #
coedge $-1 -1 -1 $-1 $108 $109 $110 $111 forward $48 $-1 #
coedge $-1 -1 -1 $-1 $112 $50 $113 $114 forward $31 $-1 #
coedge $-1 -1 -1 $-1 $50 $112 $115 $116 forward $31 $-1 #
coedge $-1 -1 -1 $-1 $117 $118 $50 $80 reversed $119 $-1 #
edge $120 -1 -1 $-1 $121 -4.1275000000000004 $122 4.1275000000000004 $79 $123 forward @7 unknown T 4.1275000000000004 -4.1275000000000004 5.0018703700000007 4.1275000000000004 4.1275000000000004 5.0018703700000007 #
simple-snl-attrib $-1 -1 $-1 $53 $35 1 1 1 1 1 1 1 1 1 1 1 1 0 1 0 1 1 1 @17 NEW_SIMPLE_ATTRIB 1 @9 ENTITY_ID 0 3 8 -2147483648 -1 #
integer_attrib-name_attrib-gen-attrib $-1 -1 $124 $-1 $54 2 1 1 1 1 1 1 1 1 1 1 1 1 1 0 1 1 1 @8 CUBIT_ID 9 #
loop $-1 -1 -1 $-1 $-1 $125 $54 T -3.8100000000000001 -3.8100000000000001 7.1018703700000003 3.8100000000000001 3.8100000000000001 7.1018703700000003 unknown #
plane-surface $-1 -1 -1 $-1 0 0 7.1018703700000003 0 0 1 1 0 0 forward_v I I I I #
coedge $-1 -1 -1 $-1 $85 $85 $58 $87 forward $55 $-1 #
coedge $-1 -1 -1 $-1 $86 $86 $125 $126 reversed $57 $-1 #
edge $127 -1 -1 $-1 $128 0 $128 6.2831853071795862 $85 $129 forward @7 unknown T -3.8100000000000001 -3.8100000000000001 5.1018703700000003 3.8100000000000001 3.8100000000000001 5.1018703700000003 #
simple-snl-attrib $-1 -1 $-1 $60 $39 1 1 1 1 1 1 1 1 1 1 1 1 0 1 0 1 1 1 @17 NEW_SIMPLE_ATTRIB 1 @9 ENTITY_ID 0 3 16 -2147483648 -1 #
integer_attrib-name_attrib-gen-attrib $-1 -1 $130 $-1 $61 2 1 1 1 1 1 1 1 1 1 1 1 1 1 0 1 1 1 @8 CUBIT_ID 17 #
face $131 -1 -1 $-1 $-1 $132 $26 $-1 $133 reversed single T -10 -10 9.9000000000000004 10 10 9.9000000000000004 F #
loop $-1 -1 -1 $-1 $-1 $134 $61 T -10 -10 -0.099999999999999645 10 10 -0.099999999999999645 unknown #
plane-surface $-1 -1 -1 $-1 0 0 -0.099999999999999645 0 0 -1 -1 0 0 forward_v I I I I #
loop $-1 -1 -1 $-1 $-1 $135 $39 T -10 -10 9.9000000000000004 10 10 9.9000000000000004 u_sep $63 T #
coedge $-1 -1 -1 $-1 $94 $94 $134 $136 forward $62 $-1 #
simple-snl-attrib $-1 -1 $-1 $65 $41 1 1 1 1 1 1 1 1 1 1 1 1 0 1 0 1 1 1 @17 NEW_SIMPLE_ATTRIB 1 @9 ENTITY_ID 0 3 14 -2147483648 -1 #
integer_attrib-name_attrib-gen-attrib $-1 -1 $137 $-1 $66 2 1 1 1 1 1 1 1 1 1 1 1 1 1 0 1 1 1 @8 CUBIT_ID 15 #
loop $-1 -1 -1 $-1 $-1 $138 $66 T -10.5 -10.5 10.4 10.5 10.5 10.4 unknown #
plane-surface $-1 -1 -1 $-1 0 0 10.4 0 0 1 1 0 0 forward_v I I I I #
coedge $-1 -1 -1 $-1 $99 $99 $70 $101 forward $67 $-1 #
coedge $-1 -1 -1 $-1 $100 $100 $138 $139 reversed $69 $-1 #
edge $140 -1 -1 $-1 $141 0 $141 6.2831853071795862 $99 $142 forward @7 unknown T -10.5 -10.5 -0.59999999999999964 10.5 10.5 -0.59999999999999964 #
simple-snl-attrib $-1 -1 $-1 $72 $47 1 1 1 1 1 1 1 1 1 1 1 1 0 1 0 1 1 1 @17 NEW_SIMPLE_ATTRIB 1 @9 ENTITY_ID 0 3 3 -2147483648 -1 #
integer_attrib-name_attrib-gen-attrib $-1 -1 $143 $-1 $73 2 1 1 1 1 1 1 1 1 1 1 1 1 1 0 1 1 1 @8 CUBIT_ID 4 #
face $144 -1 -1 $-1 $145 $146 $14 $-1 $147 reversed single T -4.1275000000000004 4.1275000000000004 5 4.1275000000000004 4.1275000000000004 5.0018703700000007 F #
loop $-1 -1 -1 $-1 $-1 $148 $73 T -4.1275000000000004 -4.1275000000000004 5 -4.1275000000000004 4.1275000000000004 5.0018703700000007 unknown #
plane-surface $-1 -1 -1 $-1 -4.1275000000000004 0 5.0009351850000003 1 0 0 0 0 -1 forward_v I I I I #
coedge $-1 -1 -1 $-1 $149 $115 $150 $151 forward $74 $-1 #
coedge $-1 -1 -1 $-1 $152 $76 $149 $153 forward $48 $-1 #
coedge $-1 -1 -1 $-1 $76 $152 $154 $155 forward $48 $-1 #
coedge $-1 -1 -1 $-1 $118 $117 $76 $111 reversed $119 $-1 #
edge $156 -1 -1 $-1 $157 -4.1275000000000004 $158 4.1275000000000004 $110 $159 forward @7 unknown T 4.1275000000000004 -4.1275000000000004 5 4.1275000000000004 4.1275000000000004 5 #
coedge $-1 -1 -1 $-1 $78 $77 $160 $161 forward $31 $-1 #
coedge $-1 -1 -1 $-1 $162 $163 $77 $114 reversed $146 $-1 #
edge $164 -1 -1 $-1 $122 -4.1275000000000004 $165 4.1275000000000004 $113 $166 forward @7 unknown T -4.1275000000000004 4.1275000000000004 5.0018703700000007 4.1275000000000004 4.1275000000000004 5.0018703700000007 #
coedge $-1 -1 -1 $-1 $107 $167 $78 $116 reversed $74 $-1 #
edge $168 -1 -1 $-1 $169 -4.1275000000000004 $121 4.1275000000000004 $115 $170 forward @7 unknown T -4.1275000000000004 -4.1275000000000004 5.0018703700000007 4.1275000000000004 -4.1275000000000004 5.0018703700000007 #
coedge $-1 -1 -1 $-1 $110 $79 $167 $171 forward $119 $-1 #
coedge $-1 -1 -1 $-1 $79 $110 $162 $172 reversed $119 $-1 #
loop $-1 -1 -1 $-1 $-1 $117 $145 T 4.1275000000000004 -4.1275000000000004 5 4.1275000000000004 4.1275000000000004 5.0018703700000007 unknown #
integer_attrib-name_attrib-gen-attrib $-1 -1 $173 $-1 $80 2 1 1 1 1 1 1 1 1 1 1 1 1 1 0 1 1 1 @8 CUBIT_ID 1 #
vertex $174 -1 -1 $-1 $80 $175 #
vertex $176 -1 -1 $-1 $80 $177 #
straight-curve $-1 -1 -1 $-1 4.1275000000000004 0 5.0018703700000007 0 1 0 I I #
simple-snl-attrib $-1 -1 $-1 $82 $54 1 1 1 1 1 1 1 1 1 1 1 1 0 1 0 1 1 1 @17 NEW_SIMPLE_ATTRIB 1 @9 ENTITY_ID 0 3 9 -2147483648 -1 #
coedge $-1 -1 -1 $-1 $125 $125 $86 $126 forward $83 $-1 #
edge $178 -1 -1 $-1 $179 0 $179 6.2831853071795862 $125 $180 forward @7 unknown T -3.8100000000000001 -3.8100000000000001 7.1018703700000003 3.8100000000000001 3.8100000000000001 7.1018703700000003 #
integer_attrib-name_attrib-gen-attrib $-1 -1 $181 $-1 $87 2 1 1 1 1 1 1 1 1 1 1 1 1 1 0 1 1 1 @8 CUBIT_ID 13 #
vertex $182 -1 -1 $-1 $87 $183 #
ellipse-curve $-1 -1 -1 $-1 0 0 5.1018703700000003 0 0 -1 3.8100000000000001 0 0 1 I I #
simple-snl-attrib $-1 -1 $-1 $89 $61 1 1 1 1 1 1 1 1 1 1 1 1 0 1 0 1 1 1 @17 NEW_SIMPLE_ATTRIB 1 @9 ENTITY_ID 0 3 17 -2147483648 -1 #
integer_attrib-name_attrib-gen-attrib $-1 -1 $184 $-1 $90 2 1 1 1 1 1 1 1 1 1 1 1 1 1 0 1 1 1 @8 CUBIT_ID 18 #
loop $-1 -1 -1 $-1 $-1 $185 $90 T -10 -10 9.9000000000000004 10 10 9.9000000000000004 unknown #
plane-surface $-1 -1 -1 $-1 0 0 9.9000000000000004 0 0 1 1 0 0 forward_v I I I I #
coedge $-1 -1 -1 $-1 $134 $134 $94 $136 reversed $91 $-1 #
coedge $-1 -1 -1 $-1 $135 $135 $185 $186 forward $93 $-1 #
edge $187 -1 -1 $-1 $188 0 $188 6.2831853071795862 $134 $189 forward @7 unknown T -10 -10 -0.099999999999999645 10 10 -0.099999999999999645 #
simple-snl-attrib $-1 -1 $-1 $96 $66 1 1 1 1 1 1 1 1 1 1 1 1 0 1 0 1 1 1 @17 NEW_SIMPLE_ATTRIB 1 @9 ENTITY_ID 0 3 15 -2147483648 -1 #
coedge $-1 -1 -1 $-1 $138 $138 $100 $139 forward $97 $-1 #
edge $190 -1 -1 $-1 $191 0 $191 6.2831853071795862 $138 $192 forward @7 unknown T -10.5 -10.5 10.4 10.5 10.5 10.4 #
integer_attrib-name_attrib-gen-attrib $-1 -1 $193 $-1 $101 2 1 1 1 1 1 1 1 1 1 1 1 1 1 0 1 1 1 @8 CUBIT_ID 17 #
vertex $194 -1 -1 $-1 $101 $195 #
ellipse-curve $-1 -1 -1 $-1 0 0 -0.59999999999999964 0 0 -1 10.5 0 0 1 I I #
simple-snl-attrib $-1 -1 $-1 $103 $73 1 1 1 1 1 1 1 1 1 1 1 1 0 1 0 1 1 1 @17 NEW_SIMPLE_ATTRIB 1 @9 ENTITY_ID 0 3 4 -2147483648 -1 #
integer_attrib-name_attrib-gen-attrib $-1 -1 $196 $-1 $104 2 1 1 1 1 1 1 1 1 1 1 1 1 1 0 1 1 1 @8 CUBIT_ID 5 #
face $197 -1 -1 $-1 $-1 $119 $14 $-1 $198 reversed single T 4.1275000000000004 -4.1275000000000004 5 4.1275000000000004 4.1275000000000004 5.0018703700000007 F #
loop $-1 -1 -1 $-1 $-1 $162 $104 T -4.1275000000000004 4.1275000000000004 5 4.1275000000000004 4.1275000000000004 5.0018703700000007 unknown #
plane-surface $-1 -1 -1 $-1 0 4.1275000000000004 5.0009351850000003 0 -1 0 0 0 -1 forward_v I I I I #
coedge $-1 -1 -1 $-1 $199 $160 $163 $200 forward $105 $-1 #
coedge $-1 -1 -1 $-1 $167 $107 $108 $153 reversed $74 $-1 #
coedge $-1 -1 -1 $-1 $160 $199 $107 $151 reversed $105 $-1 #
edge $201 -1 -1 $-1 $169 -0.00093518500000000005 $202 0.00093518500000000005 $150 $203 forward @7 unknown T -4.1275000000000004 -4.1275000000000004 5 -4.1275000000000004 -4.1275000000000004 5.0018703700000007 #
coedge $-1 -1 -1 $-1 $109 $108 $199 $204 forward $48 $-1 #
edge $205 -1 -1 $-1 $158 -4.1275000000000004 $202 4.1275000000000004 $149 $206 forward @7 unknown T -4.1275000000000004 -4.1275000000000004 5 4.1275000000000004 -4.1275000000000004 5 #
coedge $-1 -1 -1 $-1 $163 $162 $109 $155 reversed $146 $-1 #
edge $207 -1 -1 $-1 $208 -4.1275000000000004 $157 4.1275000000000004 $154 $209 forward @7 unknown T -4.1275000000000004 4.1275000000000004 5 4.1275000000000004 4.1275000000000004 5 #
integer_attrib-name_attrib-gen-attrib $-1 -1 $210 $-1 $111 2 1 1 1 1 1 1 1 1 1 1 1 1 1 0 1 1 1 @8 CUBIT_ID 5 #
vertex $211 -1 -1 $-1 $111 $212 #
vertex $213 -1 -1 $-1 $171 $214 #
straight-curve $-1 -1 -1 $-1 4.1275000000000004 0 5 0 -1 0 I I #
coedge $-1 -1 -1 $-1 $148 $150 $112 $161 reversed $105 $-1 #
edge $215 -1 -1 $-1 $165 -4.1275000000000004 $169 4.1275000000000004 $160 $216 forward @7 unknown T -4.1275000000000004 -4.1275000000000004 5.0018703700000007 -4.1275000000000004 4.1275000000000004 5.0018703700000007 #
coedge $-1 -1 -1 $-1 $154 $113 $118 $172 forward $146 $-1 #
coedge $-1 -1 -1 $-1 $113 $154 $148 $200 reversed $146 $-1 #
integer_attrib-name_attrib-gen-attrib $-1 -1 $217 $-1 $114 2 1 1 1 1 1 1 1 1 1 1 1 1 1 0 1 1 1 @8 CUBIT_ID 2 #
vertex $218 -1 -1 $-1 $114 $219 #
straight-curve $-1 -1 -1 $-1 0 4.1275000000000004 5.0018703700000007 -1 0 0 I I #
coedge $-1 -1 -1 $-1 $115 $149 $117 $171 reversed $74 $-1 #
integer_attrib-name_attrib-gen-attrib $-1 -1 $220 $-1 $116 2 1 1 1 1 1 1 1 1 1 1 1 1 1 0 1 1 1 @8 CUBIT_ID 4 #
vertex $221 -1 -1 $-1 $161 $222 #
straight-curve $-1 -1 -1 $-1 0 -4.1275000000000004 5.0018703700000007 1 0 0 I I #
edge $223 -1 -1 $-1 $121 -0.00093518500000000005 $158 0.00093518500000000005 $117 $224 forward @7 unknown T 4.1275000000000004 -4.1275000000000004 5 4.1275000000000004 -4.1275000000000004 5.0018703700000007 #
edge $225 -1 -1 $-1 $122 -0.00093518500000000005 $157 0.00093518500000000005 $118 $226 forward @7 unknown T 4.1275000000000004 4.1275000000000004 5 4.1275000000000004 4.1275000000000004 5.0018703700000007 #
simple-snl-attrib $-1 -1 $-1 $120 $80 1 1 1 1 1 1 1 1 1 1 1 1 0 1 0 1 1 1 @17 NEW_SIMPLE_ATTRIB 1 @9 ENTITY_ID 0 3 1 -2147483648 -1 #
integer_attrib-name_attrib-gen-attrib $-1 -1 $227 $-1 $121 2 1 1 1 1 1 1 1 1 1 1 1 1 1 0 1 1 1 @8 CUBIT_ID 1 #
point $-1 -1 -1 $-1 4.1275000000000004 -4.1275000000000004 5.0018703700000007 #
integer_attrib-name_attrib-gen-attrib $-1 -1 $228 $-1 $122 2 1 1 1 1 1 1 1 1 1 1 1 1 1 0 1 1 1 @8 CUBIT_ID 2 #
point $-1 -1 -1 $-1 4.1275000000000004 4.1275000000000004 5.0018703700000007 #
integer_attrib-name_attrib-gen-attrib $-1 -1 $229 $-1 $126 2 1 1 1 1 1 1 1 1 1 1 1 1 1 0 1 1 1 @8 CUBIT_ID 14 #
vertex $230 -1 -1 $-1 $126 $231 #
ellipse-curve $-1 -1 -1 $-1 0 0 7.1018703700000003 0 0 1 3.8100000000000001 0 0 1 I I #
simple-snl-attrib $-1 -1 $-1 $127 $87 1 1 1 1 1 1 1 1 1 1 1 1 0 1 0 1 1 1 @17 NEW_SIMPLE_ATTRIB 1 @9 ENTITY_ID 0 3 13 -2147483648 -1 #
integer_attrib-name_attrib-gen-attrib $-1 -1 $232 $-1 $128 2 1 1 1 1 1 1 1 1 1 1 1 1 1 0 1 1 1 @8 CUBIT_ID 9 #
point $-1 -1 -1 $-1 3.8100000000000001 0 5.1018703700000003 #
simple-snl-attrib $-1 -1 $-1 $131 $90 1 1 1 1 1 1 1 1 1 1 1 1 0 1 0 1 1 1 @17 NEW_SIMPLE_ATTRIB 1 @9 ENTITY_ID 0 3 18 -2147483648 -1 #
coedge $-1 -1 -1 $-1 $185 $185 $135 $186 reversed $132 $-1 #
edge $233 -1 -1 $-1 $234 0 $234 6.2831853071795862 $185 $235 forward @7 unknown T -10 -10 9.9000000000000004 10 10 9.9000000000000004 #
integer_attrib-name_attrib-gen-attrib $-1 -1 $236 $-1 $136 2 1 1 1 1 1 1 1 1 1 1 1 1 1 0 1 1 1 @8 CUBIT_ID 19 #
vertex $237 -1 -1 $-1 $136 $238 #
ellipse-curve $-1 -1 -1 $-1 0 0 -0.099999999999999645 0 0 -1 10 0 0 1 I I #
integer_attrib-name_attrib-gen-attrib $-1 -1 $239 $-1 $139 2 1 1 1 1 1 1 1 1 1 1 1 1 1 0 1 1 1 @8 CUBIT_ID 18 #
vertex $240 -1 -1 $-1 $139 $241 #
ellipse-curve $-1 -1 -1 $-1 0 0 10.4 0 0 1 10.5 0 0 1 I I #
simple-snl-attrib $-1 -1 $-1 $140 $101 1 1 1 1 1 1 1 1 1 1 1 1 0 1 0 1 1 1 @17 NEW_SIMPLE_ATTRIB 1 @9 ENTITY_ID 0 3 17 -2147483648 -1 #
integer_attrib-name_attrib-gen-attrib $-1 -1 $242 $-1 $141 2 1 1 1 1 1 1 1 1 1 1 1 1 1 0 1 1 1 @8 CUBIT_ID 13 #
point $-1 -1 -1 $-1 10.5 0 -0.59999999999999964 #
simple-snl-attrib $-1 -1 $-1 $144 $104 1 1 1 1 1 1 1 1 1 1 1 1 0 1 0 1 1 1 @17 NEW_SIMPLE_ATTRIB 1 @9 ENTITY_ID 0 3 5 -2147483648 -1 #
integer_attrib-name_attrib-gen-attrib $-1 -1 $243 $-1 $145 2 1 1 1 1 1 1 1 1 1 1 1 1 1 0 1 1 1 @8 CUBIT_ID 6 #
plane-surface $-1 -1 -1 $-1 4.1275000000000004 0 5.0009351850000003 -1 0 0 0 0 1 forward_v I I I I #
coedge $-1 -1 -1 $-1 $150 $148 $152 $204 reversed $105 $-1 #
edge $244 -1 -1 $-1 $165 -0.00093518500000000005 $208 0.00093518500000000005 $163 $245 forward @7 unknown T -4.1275000000000004 4.1275000000000004 5 -4.1275000000000004 4.1275000000000004 5.0018703700000007 #
integer_attrib-name_attrib-gen-attrib $-1 -1 $246 $-1 $151 2 1 1 1 1 1 1 1 1 1 1 1 1 1 0 1 1 1 @8 CUBIT_ID 9 #
vertex $247 -1 -1 $-1 $204 $248 #
straight-curve $-1 -1 -1 $-1 -4.1275000000000004 -4.1275000000000004 5.0009351850000003 0 0 -1 I I #
edge $249 -1 -1 $-1 $202 -4.1275000000000004 $208 4.1275000000000004 $199 $250 forward @7 unknown T -4.1275000000000004 -4.1275000000000004 5 -4.1275000000000004 4.1275000000000004 5 #
integer_attrib-name_attrib-gen-attrib $-1 -1 $251 $-1 $153 2 1 1 1 1 1 1 1 1 1 1 1 1 1 0 1 1 1 @8 CUBIT_ID 6 #
straight-curve $-1 -1 -1 $-1 0 -4.1275000000000004 5 -1 0 0 I I #
integer_attrib-name_attrib-gen-attrib $-1 -1 $252 $-1 $155 2 1 1 1 1 1 1 1 1 1 1 1 1 1 0 1 1 1 @8 CUBIT_ID 8 #
vertex $253 -1 -1 $-1 $155 $254 #
straight-curve $-1 -1 -1 $-1 0 4.1275000000000004 5 1 0 0 I I #
simple-snl-attrib $-1 -1 $-1 $156 $111 1 1 1 1 1 1 1 1 1 1 1 1 0 1 0 1 1 1 @17 NEW_SIMPLE_ATTRIB 1 @9 ENTITY_ID 0 3 5 -2147483648 -1 #
integer_attrib-name_attrib-gen-attrib $-1 -1 $255 $-1 $157 2 1 1 1 1 1 1 1 1 1 1 1 1 1 0 1 1 1 @8 CUBIT_ID 5 #
point $-1 -1 -1 $-1 4.1275000000000004 4.1275000000000004 5 #
integer_attrib-name_attrib-gen-attrib $-1 -1 $256 $-1 $158 2 1 1 1 1 1 1 1 1 1 1 1 1 1 0 1 1 1 @8 CUBIT_ID 6 #
point $-1 -1 -1 $-1 4.1275000000000004 -4.1275000000000004 5 #
integer_attrib-name_attrib-gen-attrib $-1 -1 $257 $-1 $161 2 1 1 1 1 1 1 1 1 1 1 1 1 1 0 1 1 1 @8 CUBIT_ID 3 #
straight-curve $-1 -1 -1 $-1 -4.1275000000000004 0 5.0018703700000007 0 -1 0 I I #
simple-snl-attrib $-1 -1 $-1 $164 $114 1 1 1 1 1 1 1 1 1 1 1 1 0 1 0 1 1 1 @17 NEW_SIMPLE_ATTRIB 1 @9 ENTITY_ID 0 3 2 -2147483648 -1 #
integer_attrib-name_attrib-gen-attrib $-1 -1 $258 $-1 $165 2 1 1 1 1 1 1 1 1 1 1 1 1 1 0 1 1 1 @8 CUBIT_ID 3 #
point $-1 -1 -1 $-1 -4.1275000000000004 4.1275000000000004 5.0018703700000007 #
simple-snl-attrib $-1 -1 $-1 $168 $116 1 1 1 1 1 1 1 1 1 1 1 1 0 1 0 1 1 1 @17 NEW_SIMPLE_ATTRIB 1 @9 ENTITY_ID 0 3 4 -2147483648 -1 #
integer_attrib-name_attrib-gen-attrib $-1 -1 $259 $-1 $169 2 1 1 1 1 1 1 1 1 1 1 1 1 1 0 1 1 1 @8 CUBIT_ID 4 #
point $-1 -1 -1 $-1 -4.1275000000000004 -4.1275000000000004 5.0018703700000007 #
integer_attrib-name_attrib-gen-attrib $-1 -1 $260 $-1 $171 2 1 1 1 1 1 1 1 1 1 1 1 1 1 0 1 1 1 @8 CUBIT_ID 10 #
straight-curve $-1 -1 -1 $-1 4.1275000000000004 -4.1275000000000004 5.0009351850000003 0 0 -1 I I #
integer_attrib-name_attrib-gen-attrib $-1 -1 $261 $-1 $172 2 1 1 1 1 1 1 1 1 1 1 1 1 1 0 1 1 1 @8 CUBIT_ID 12 #
straight-curve $-1 -1 -1 $-1 4.1275000000000004 4.1275000000000004 5.0009351850000003 0 0 -1 I I #
simple-snl-attrib $-1 -1 $-1 $174 $121 1 1 1 1 1 1 1 1 1 1 1 1 0 1 0 1 1 1 @17 NEW_SIMPLE_ATTRIB 1 @9 ENTITY_ID 0 3 1 -2147483648 -1 #
simple-snl-attrib $-1 -1 $-1 $176 $122 1 1 1 1 1 1 1 1 1 1 1 1 0 1 0 1 1 1 @17 NEW_SIMPLE_ATTRIB 1 @9 ENTITY_ID 0 3 2 -2147483648 -1 #
simple-snl-attrib $-1 -1 $-1 $178 $126 1 1 1 1 1 1 1 1 1 1 1 1 0 1 0 1 1 1 @17 NEW_SIMPLE_ATTRIB 1 @9 ENTITY_ID 0 3 14 -2147483648 -1 #
integer_attrib-name_attrib-gen-attrib $-1 -1 $262 $-1 $179 2 1 1 1 1 1 1 1 1 1 1 1 1 1 0 1 1 1 @8 CUBIT_ID 10 #
point $-1 -1 -1 $-1 3.8100000000000001 0 7.1018703700000003 #
simple-snl-attrib $-1 -1 $-1 $182 $128 1 1 1 1 1 1 1 1 1 1 1 1 0 1 0 1 1 1 @17 NEW_SIMPLE_ATTRIB 1 @9 ENTITY_ID 0 3 9 -2147483648 -1 #
integer_attrib-name_attrib-gen-attrib $-1 -1 $263 $-1 $186 2 1 1 1 1 1 1 1 1 1 1 1 1 1 0 1 1 1 @8 CUBIT_ID 20 #
vertex $264 -1 -1 $-1 $186 $265 #
ellipse-curve $-1 -1 -1 $-1 0 0 9.9000000000000004 0 0 1 10 0 0 1 I I #
simple-snl-attrib $-1 -1 $-1 $187 $136 1 1 1 1 1 1 1 1 1 1 1 1 0 1 0 1 1 1 @17 NEW_SIMPLE_ATTRIB 1 @9 ENTITY_ID 0 3 19 -2147483648 -1 #
integer_attrib-name_attrib-gen-attrib $-1 -1 $266 $-1 $188 2 1 1 1 1 1 1 1 1 1 1 1 1 1 0 1 1 1 @8 CUBIT_ID 15 #
point $-1 -1 -1 $-1 10 0 -0.099999999999999645 #
simple-snl-attrib $-1 -1 $-1 $190 $139 1 1 1 1 1 1 1 1 1 1 1 1 0 1 0 1 1 1 @17 NEW_SIMPLE_ATTRIB 1 @9 ENTITY_ID 0 3 18 -2147483648 -1 #
integer_attrib-name_attrib-gen-attrib $-1 -1 $267 $-1 $191 2 1 1 1 1 1 1 1 1 1 1 1 1 1 0 1 1 1 @8 CUBIT_ID 14 #
point $-1 -1 -1 $-1 10.5 0 10.4 #
simple-snl-attrib $-1 -1 $-1 $194 $141 1 1 1 1 1 1 1 1 1 1 1 1 0 1 0 1 1 1 @17 NEW_SIMPLE_ATTRIB 1 @9 ENTITY_ID 0 3 13 -2147483648 -1 #
simple-snl-attrib $-1 -1 $-1 $197 $145 1 1 1 1 1 1 1 1 1 1 1 1 0 1 0 1 1 1 @17 NEW_SIMPLE_ATTRIB 1 @9 ENTITY_ID 0 3 6 -2147483648 -1 #
integer_attrib-name_attrib-gen-attrib $-1 -1 $268 $-1 $200 2 1 1 1 1 1 1 1 1 1 1 1 1 1 0 1 1 1 @8 CUBIT_ID 11 #
straight-curve $-1 -1 -1 $-1 -4.1275000000000004 4.1275000000000004 5.0009351850000003 0 0 -1 I I #
simple-snl-attrib $-1 -1 $-1 $201 $151 1 1 1 1 1 1 1 1 1 1 1 1 0 1 0 1 1 1 @17 NEW_SIMPLE_ATTRIB 1 @9 ENTITY_ID 0 3 9 -2147483648 -1 #
integer_attrib-name_attrib-gen-attrib $-1 -1 $269 $-1 $202 2 1 1 1 1 1 1 1 1 1 1 1 1 1 0 1 1 1 @8 CUBIT_ID 7 #
point $-1 -1 -1 $-1 -4.1275000000000004 -4.1275000000000004 5 #
integer_attrib-name_attrib-gen-attrib $-1 -1 $270 $-1 $204 2 1 1 1 1 1 1 1 1 1 1 1 1 1 0 1 1 1 @8 CUBIT_ID 7 #
straight-curve $-1 -1 -1 $-1 -4.1275000000000004 0 5 0 1 0 I I #
simple-snl-attrib $-1 -1 $-1 $205 $153 1 1 1 1 1 1 1 1 1 1 1 1 0 1 0 1 1 1 @17 NEW_SIMPLE_ATTRIB 1 @9 ENTITY_ID 0 3 6 -2147483648 -1 #
simple-snl-attrib $-1 -1 $-1 $207 $155 1 1 1 1 1 1 1 1 1 1 1 1 0 1 0 1 1 1 @17 NEW_SIMPLE_ATTRIB 1 @9 ENTITY_ID 0 3 8 -2147483648 -1 #
integer_attrib-name_attrib-gen-attrib $-1 -1 $271 $-1 $208 2 1 1 1 1 1 1 1 1 1 1 1 1 1 0 1 1 1 @8 CUBIT_ID 8 #
point $-1 -1 -1 $-1 -4.1275000000000004 4.1275000000000004 5 #
simple-snl-attrib $-1 -1 $-1 $211 $157 1 1 1 1 1 1 1 1 1 1 1 1 0 1 0 1 1 1 @17 NEW_SIMPLE_ATTRIB 1 @9 ENTITY_ID 0 3 5 -2147483648 -1 #
simple-snl-attrib $-1 -1 $-1 $213 $158 1 1 1 1 1 1 1 1 1 1 1 1 0 1 0 1 1 1 @17 NEW_SIMPLE_ATTRIB 1 @9 ENTITY_ID 0 3 6 -2147483648 -1 #
simple-snl-attrib $-1 -1 $-1 $215 $161 1 1 1 1 1 1 1 1 1 1 1 1 0 1 0 1 1 1 @17 NEW_SIMPLE_ATTRIB 1 @9 ENTITY_ID 0 3 3 -2147483648 -1 #
simple-snl-attrib $-1 -1 $-1 $218 $165 1 1 1 1 1 1 1 1 1 1 1 1 0 1 0 1 1 1 @17 NEW_SIMPLE_ATTRIB 1 @9 ENTITY_ID 0 3 3 -2147483648 -1 #
simple-snl-attrib $-1 -1 $-1 $221 $169 1 1 1 1 1 1 1 1 1 1 1 1 0 1 0 1 1 1 @17 NEW_SIMPLE_ATTRIB 1 @9 ENTITY_ID 0 3 4 -2147483648 -1 #
simple-snl-attrib $-1 -1 $-1 $223 $171 1 1 1 1 1 1 1 1 1 1 1 1 0 1 0 1 1 1 @17 NEW_SIMPLE_ATTRIB 1 @9 ENTITY_ID 0 3 10 -2147483648 -1 #
simple-snl-attrib $-1 -1 $-1 $225 $172 1 1 1 1 1 1 1 1 1 1 1 1 0 1 0 1 1 1 @17 NEW_SIMPLE_ATTRIB 1 @9 ENTITY_ID 0 3 12 -2147483648 -1 #
simple-snl-attrib $-1 -1 $-1 $230 $179 1 1 1 1 1 1 1 1 1 1 1 1 0 1 0 1 1 1 @17 NEW_SIMPLE_ATTRIB 1 @9 ENTITY_ID 0 3 10 -2147483648 -1 #
simple-snl-attrib $-1 -1 $-1 $233 $186 1 1 1 1 1 1 1 1 1 1 1 1 0 1 0 1 1 1 @17 NEW_SIMPLE_ATTRIB 1 @9 ENTITY_ID 0 3 20 -2147483648 -1 #
integer_attrib-name_attrib-gen-attrib $-1 -1 $272 $-1 $234 2 1 1 1 1 1 1 1 1 1 1 1 1 1 0 1 1 1 @8 CUBIT_ID 16 #
point $-1 -1 -1 $-1 10 0 9.9000000000000004 #
simple-snl-attrib $-1 -1 $-1 $237 $188 1 1 1 1 1 1 1 1 1 1 1 1 0 1 0 1 1 1 @17 NEW_SIMPLE_ATTRIB 1 @9 ENTITY_ID 0 3 15 -2147483648 -1 #
simple-snl-attrib $-1 -1 $-1 $240 $191 1 1 1 1 1 1 1 1 1 1 1 1 0 1 0 1 1 1 @17 NEW_SIMPLE_ATTRIB 1 @9 ENTITY_ID 0 3 14 -2147483648 -1 #
simple-snl-attrib $-1 -1 $-1 $244 $200 1 1 1 1 1 1 1 1 1 1 1 1 0 1 0 1 1 1 @17 NEW_SIMPLE_ATTRIB 1 @9 ENTITY_ID 0 3 11 -2147483648 -1 #
simple-snl-attrib $-1 -1 $-1 $247 $202 1 1 1 1 1 1 1 1 1 1 1 1 0 1 0 1 1 1 @17 NEW_SIMPLE_ATTRIB 1 @9 ENTITY_ID 0 3 7 -2147483648 -1 #
simple-snl-attrib $-1 -1 $-1 $249 $204 1 1 1 1 1 1 1 1 1 1 1 1 0 1 0 1 1 1 @17 NEW_SIMPLE_ATTRIB 1 @9 ENTITY_ID 0 3 7 -2147483648 -1 #
simple-snl-attrib $-1 -1 $-1 $253 $208 1 1 1 1 1 1 1 1 1 1 1 1 0 1 0 1 1 1 @17 NEW_SIMPLE_ATTRIB 1 @9 ENTITY_ID 0 3 8 -2147483648 -1 #
simple-snl-attrib $-1 -1 $-1 $264 $234 1 1 1 1 1 1 1 1 1 1 1 1 0 1 0 1 1 1 @17 NEW_SIMPLE_ATTRIB 1 @9 ENTITY_ID 0 3 16 -2147483648 -1 #
End-of-ACIS-data 