1900 0 3 0           
10 Cubit 14.0 17 ACIS 22.0.2 Linux 24 Thu May 17 14:46:32 2018 
1 9.9999999999999995e-07 1e-10 
body $3 -1 -1 $-1 $4 $-1 $5 T -4.1275000000000004 -4.1275000000000004 5 4.1275000000000004 4.1275000000000004 5.0018703700000007 #
body $6 -1 -1 $-1 $7 $-1 $8 T -7.6200000000000001 -7.6200000000000001 5.1018703704000004 7.6200000000000001 7.6200000000000001 7.1018703704000004 #
body $9 -1 -1 $-1 $10 $-1 $11 T -10.5 -10.5 -0.59999999999999964 10.5 10.5 10.4 #
integer_attrib-name_attrib-gen-attrib $-1 -1 $12 $-1 $0 2 1 1 1 1 1 1 1 1 1 1 1 1 1 0 1 1 1 @8 CUBIT_ID 2 #
lump $13 -1 -1 $-1 $-1 $14 $0 T -4.1275000000000004 -4.1275000000000004 5 4.1275000000000004 4.1275000000000004 5.0018703700000007 #
transform $-1 -1 1 0 0 0 1 0 0 0 1 0 0 0 1 no_rotate no_reflect no_shear #
integer_attrib-name_attrib-gen-attrib $-1 -1 $15 $-1 $1 2 1 1 1 1 1 1 1 1 1 1 1 1 1 0 1 1 1 @8 CUBIT_ID 3 #
lump $16 -1 -1 $-1 $-1 $17 $1 T -7.6200000000000001 -7.6200000000000001 5.1018703704000004 7.6200000000000001 7.6200000000000001 7.1018703704000004 #
transform $-1 -1 1 0 0 0 1 0 0 0 1 0 0 0 1 no_rotate no_reflect no_shear #
integer_attrib-name_attrib-gen-attrib $-1 -1 $18 $-1 $2 2 1 1 1 1 1 1 1 1 1 1 1 1 1 0 1 1 1 @8 CUBIT_ID 5 #
lump $19 -1 -1 $-1 $-1 $20 $2 T -10.5 -10.5 -0.59999999999999964 10.5 10.5 10.4 #
transform $-1 -1 1 0 0 0 1 0 0 0 1 0 0 0 1 no_rotate no_reflect no_shear #
simple-snl-attrib $-1 -1 $-1 $3 $0 1 1 1 1 1 1 1 1 1 1 1 1 0 1 0 1 1 1 @17 NEW_SIMPLE_ATTRIB 1 @9 ENTITY_ID 0 3 2 -2147483648 -1 #
integer_attrib-name_attrib-gen-attrib $-1 -1 $21 $-1 $4 2 1 1 1 1 1 1 1 1 1 1 1 1 1 0 1 1 1 @8 CUBIT_ID 2 #
shell $-1 -1 -1 $-1 $-1 $-1 $22 $-1 $4 T -4.1275000000000004 -4.1275000000000004 5 4.1275000000000004 4.1275000000000004 5.0018703700000007 #
simple-snl-attrib $-1 -1 $-1 $6 $1 1 1 1 1 1 1 1 1 1 1 1 1 0 1 0 1 1 1 @17 NEW_SIMPLE_ATTRIB 1 @9 ENTITY_ID 0 3 3 -2147483648 -1 #
integer_attrib-name_attrib-gen-attrib $-1 -1 $23 $-1 $7 2 1 1 1 1 1 1 1 1 1 1 1 1 1 0 1 1 1 @8 CUBIT_ID 3 #
shell $-1 -1 -1 $-1 $-1 $-1 $24 $-1 $7 T -7.6200000000000001 -7.6200000000000001 5.1018703704000004 7.6200000000000001 7.6200000000000001 7.1018703704000004 #
simple-snl-attrib $-1 -1 $-1 $9 $2 1 1 1 1 1 1 1 1 1 1 1 1 0 1 0 1 1 1 @17 NEW_SIMPLE_ATTRIB 1 @9 ENTITY_ID 0 3 5 -2147483648 -1 #
integer_attrib-name_attrib-gen-attrib $-1 -1 $25 $-1 $10 2 1 1 1 1 1 1 1 1 1 1 1 1 1 0 1 1 1 @8 CUBIT_ID 6 #
shell $-1 -1 -1 $-1 $26 $-1 $27 $-1 $10 T -10.5 -10.5 -0.59999999999999964 10.5 10.5 10.4 #
simple-snl-attrib $-1 -1 $28 $13 $4 1 1 1 1 1 1 1 1 1 1 1 1 0 1 0 1 1 1 @17 NEW_SIMPLE_ATTRIB 1 @9 ENTITY_ID 0 3 2 -2147483648 -1 #
face $29 -1 -1 $-1 $30 $31 $14 $-1 $32 reversed single T -1.5875000000267008 -4.1275000000000004 5 1.5875000000267008 -4.1275000000000004 5.0018703700000007 F #
simple-snl-attrib $-1 -1 $33 $16 $7 1 1 1 1 1 1 1 1 1 1 1 1 0 1 0 1 1 1 @17 NEW_SIMPLE_ATTRIB 1 @9 ENTITY_ID 0 3 3 -2147483648 -1 #
face $34 -1 -1 $-1 $35 $36 $17 $-1 $37 forward single T -7.6200000000000001 -7.6200000000000001 5.1018703704000004 7.6200000000000001 7.6200000000000001 7.1018703704000004 F #
simple-snl-attrib $-1 -1 $38 $19 $10 1 1 1 1 1 1 1 1 1 1 1 1 0 1 0 1 1 1 @17 NEW_SIMPLE_ATTRIB 1 @9 ENTITY_ID 0 3 6 -2147483648 -1 #
shell $-1 -1 -1 $-1 $-1 $-1 $39 $-1 $10 T -10 -10 -0.099999999999999645 10 10 9.9000000000000004 #
face $40 -1 -1 $-1 $41 $42 $20 $-1 $43 forward single T -10.5 -10.5 -0.59999999999999964 10.5 10.5 10.4 F #
simple-snl-attrib $-1 -1 $44 $21 $4 1 1 1 1 1 1 1 1 1 1 1 1 0 1 0 1 1 1 @17 NEW_SIMPLE_ATTRIB 3 @5 GROUP @23 material_1_density_-2.7 @31 estimator_1.cell.pulse.height.e 0 11 2 3 4 312395482 18890751 0 0 0 0 0 0 #
integer_attrib-name_attrib-gen-attrib $-1 -1 $45 $-1 $22 2 1 1 1 1 1 1 1 1 1 1 1 1 1 0 1 1 1 @8 CUBIT_ID 13 #
face $46 -1 -1 $-1 $47 $48 $14 $-1 $49 reversed single T 4.1275000000000004 -1.5875000000267008 5 4.1275000000000004 1.5875000000267008 5.0018703700000007 F #
loop $-1 -1 -1 $-1 $-1 $50 $22 T -1.5875000000267008 -4.1275000000000004 5 1.5875000000267008 -4.1275000000000004 5.0018703700000007 unknown #
plane-surface $-1 -1 -1 $-1 0 -4.1275000000000004 5.0009351850000003 0 1 0 0 0 1 forward_v I I I I #
simple-snl-attrib $-1 -1 $51 $23 $7 1 1 1 1 1 1 1 1 1 1 1 1 0 1 0 1 1 1 @17 NEW_SIMPLE_ATTRIB 2 @5 GROUP @23 material_1_density_-2.7 0 7 1 3 312395482 1 0 0 0 #
integer_attrib-name_attrib-gen-attrib $-1 -1 $52 $-1 $24 2 1 1 1 1 1 1 1 1 1 1 1 1 1 0 1 1 1 @8 CUBIT_ID 23 #
face $53 -1 -1 $-1 $54 $55 $17 $-1 $56 forward single T -7.6200000000000001 -7.6200000000000001 5.1018703704000004 7.6200000000000001 7.6200000000000001 5.1018703704000004 F #
loop $-1 -1 -1 $-1 $57 $58 $24 T -7.6200000000000001 -7.6200000000000001 5.1018703704000004 7.6200000000000001 7.6200000000000001 5.1018703704000004 unknown #
cone-surface $-1 -1 -1 $-1 0 0 6.1018703704000004 0 0 1 7.6200000000000001 0 0 1 I I 0 1 7.6200000000000001 forward I I I I #
simple-snl-attrib $-1 -1 $59 $25 $10 1 1 1 1 1 1 1 1 1 1 1 1 0 1 0 1 1 1 @17 NEW_SIMPLE_ATTRIB 2 @5 GROUP @16 termination.cell 0 7 1 2 1509474689 0 0 0 0 #
face $60 -1 -1 $-1 $61 $62 $26 $-1 $63 reversed single T -10 -10 -0.099999999999999645 10 10 9.9000000000000004 F #
integer_attrib-name_attrib-gen-attrib $-1 -1 $64 $-1 $27 2 1 1 1 1 1 1 1 1 1 1 1 1 1 0 1 1 1 @8 CUBIT_ID 29 #
face $65 -1 -1 $-1 $66 $67 $20 $-1 $68 forward single T -10.5 -10.5 -0.59999999999999964 10.5 10.5 -0.59999999999999964 F #
loop $-1 -1 -1 $-1 $69 $70 $27 T -10.5 -10.5 -0.59999999999999964 10.5 10.5 -0.59999999999999964 unknown #
cone-surface $-1 -1 -1 $-1 0 0 4.9000000000000004 0 0 1 10.5 0 0 1 I I 0 1 10.5 forward I I I I #
simple-snl-attrib $-1 -1 $-1 $28 $4 1 1 1 1 1 1 1 1 1 1 1 1 0 1 0 1 1 1 @17 NEW_SIMPLE_ATTRIB 2 @11 ENTITY_NAME @11 calorimeter 0 0 #
simple-snl-attrib $-1 -1 $-1 $29 $22 1 1 1 1 1 1 1 1 1 1 1 1 0 1 0 1 1 1 @17 NEW_SIMPLE_ATTRIB 1 @9 ENTITY_ID 0 3 13 -2147483648 -1 #
integer_attrib-name_attrib-gen-attrib $-1 -1 $71 $-1 $30 2 1 1 1 1 1 1 1 1 1 1 1 1 1 0 1 1 1 @8 CUBIT_ID 14 #
face $72 -1 -1 $-1 $73 $74 $14 $-1 $75 reversed single T -4.1275000000000004 -1.5875000000267008 5 -4.1275000000000004 1.5875000000267008 5.0018703700000007 F #
loop $-1 -1 -1 $-1 $-1 $76 $30 T 4.1275000000000004 -1.5875000000267008 5 4.1275000000000004 1.5875000000267008 5.0018703700000007 unknown #
plane-surface $-1 -1 -1 $-1 4.1275000000000004 0 5.0009351850000003 -1 0 0 0 0 1 forward_v I I I I #
coedge $-1 -1 -1 $-1 $77 $78 $79 $80 forward $31 $-1 #
simple-snl-attrib $-1 -1 $-1 $33 $7 1 1 1 1 1 1 1 1 1 1 1 1 0 1 0 1 1 1 @17 NEW_SIMPLE_ATTRIB 2 @11 ENTITY_NAME @14 infinite_plate 0 0 #
simple-snl-attrib $-1 -1 $-1 $34 $24 1 1 1 1 1 1 1 1 1 1 1 1 0 1 0 1 1 1 @17 NEW_SIMPLE_ATTRIB 1 @9 ENTITY_ID 0 3 23 -2147483648 -1 #
integer_attrib-name_attrib-gen-attrib $-1 -1 $81 $-1 $35 2 1 1 1 1 1 1 1 1 1 1 1 1 1 0 1 1 1 @8 CUBIT_ID 24 #
face $82 -1 -1 $-1 $-1 $83 $17 $-1 $84 forward single T -7.6200000000000001 -7.6200000000000001 7.1018703704000004 7.6200000000000001 7.6200000000000001 7.1018703704000004 F #
loop $-1 -1 -1 $-1 $-1 $85 $35 T -7.6200000000000001 -7.6200000000000001 5.1018703704000004 7.6200000000000001 7.6200000000000001 5.1018703704000004 unknown #
plane-surface $-1 -1 -1 $-1 0 0 5.1018703704000004 0 0 -1 -1 0 0 forward_v I I I I #
loop $-1 -1 -1 $-1 $-1 $86 $24 T -7.6200000000000001 -7.6200000000000001 7.1018703704000004 7.6200000000000001 7.6200000000000001 7.1018703704000004 unknown #
coedge $-1 -1 -1 $-1 $58 $58 $85 $87 reversed $36 $-1 #
simple-snl-attrib $-1 -1 $-1 $38 $10 1 1 1 1 1 1 1 1 1 1 1 1 0 1 0 1 1 1 @17 NEW_SIMPLE_ATTRIB 2 @11 ENTITY_NAME @9 graveyard 0 0 #
integer_attrib-name_attrib-gen-attrib $-1 -1 $88 $-1 $39 2 1 1 1 1 1 1 1 1 1 1 1 1 1 0 1 1 1 @8 CUBIT_ID 32 #
face $89 -1 -1 $-1 $90 $91 $26 $-1 $92 reversed single T -10 -10 -0.099999999999999645 10 10 -0.099999999999999645 F #
loop $-1 -1 -1 $-1 $93 $94 $39 T -10 -10 -0.099999999999999645 10 10 -0.099999999999999645 unknown #
cone-surface $-1 -1 -1 $-1 0 0 4.9000000000000004 0 0 1 10 0 0 1 I I 0 1 10 forward I I I I #
simple-snl-attrib $-1 -1 $-1 $40 $27 1 1 1 1 1 1 1 1 1 1 1 1 0 1 0 1 1 1 @17 NEW_SIMPLE_ATTRIB 1 @9 ENTITY_ID 0 3 29 -2147483648 -1 #
integer_attrib-name_attrib-gen-attrib $-1 -1 $95 $-1 $41 2 1 1 1 1 1 1 1 1 1 1 1 1 1 0 1 1 1 @8 CUBIT_ID 30 #
face $96 -1 -1 $-1 $-1 $97 $20 $-1 $98 forward single T -10.5 -10.5 10.4 10.5 10.5 10.4 F #
loop $-1 -1 -1 $-1 $-1 $99 $41 T -10.5 -10.5 -0.59999999999999964 10.5 10.5 -0.59999999999999964 unknown #
plane-surface $-1 -1 -1 $-1 0 0 -0.59999999999999964 0 0 -1 -1 0 0 forward_v I I I I #
loop $-1 -1 -1 $-1 $-1 $100 $27 T -10.5 -10.5 10.4 10.5 10.5 10.4 unknown #
coedge $-1 -1 -1 $-1 $70 $70 $99 $101 reversed $42 $-1 #
simple-snl-attrib $-1 -1 $-1 $46 $30 1 1 1 1 1 1 1 1 1 1 1 1 0 1 0 1 1 1 @17 NEW_SIMPLE_ATTRIB 1 @9 ENTITY_ID 0 3 14 -2147483648 -1 #
integer_attrib-name_attrib-gen-attrib $-1 -1 $102 $-1 $47 2 1 1 1 1 1 1 1 1 1 1 1 1 1 0 1 1 1 @8 CUBIT_ID 15 #
face $103 -1 -1 $-1 $104 $105 $14 $-1 $106 reversed single T -1.5875000000267008 4.1275000000000004 5 1.5875000000267008 4.1275000000000004 5.0018703700000007 F #
loop $-1 -1 -1 $-1 $-1 $107 $47 T -4.1275000000000004 -1.5875000000267008 5 -4.1275000000000004 1.5875000000267008 5.0018703700000007 unknown #
plane-surface $-1 -1 -1 $-1 -4.1275000000000004 0 5.0009351850000003 1 0 0 0 0 -1 forward_v I I I I #
coedge $-1 -1 -1 $-1 $108 $109 $110 $111 forward $48 $-1 #
coedge $-1 -1 -1 $-1 $112 $50 $113 $114 forward $31 $-1 #
coedge $-1 -1 -1 $-1 $50 $112 $115 $116 forward $31 $-1 #
coedge $-1 -1 -1 $-1 $117 $118 $50 $80 reversed $119 $-1 #
edge $120 -1 -1 $-1 $121 -0.00093518500000000005 $122 0.00093518500000000005 $79 $123 forward @7 unknown T -1.5875000000267008 -4.1275000000000004 5 -1.5875000000267008 -4.1275000000000004 5.0018703700000007 #
simple-snl-attrib $-1 -1 $-1 $53 $35 1 1 1 1 1 1 1 1 1 1 1 1 0 1 0 1 1 1 @17 NEW_SIMPLE_ATTRIB 1 @9 ENTITY_ID 0 3 24 -2147483648 -1 #
integer_attrib-name_attrib-gen-attrib $-1 -1 $124 $-1 $54 2 1 1 1 1 1 1 1 1 1 1 1 1 1 0 1 1 1 @8 CUBIT_ID 25 #
loop $-1 -1 -1 $-1 $-1 $125 $54 T -7.6200000000000001 -7.6200000000000001 7.1018703704000004 7.6200000000000001 7.6200000000000001 7.1018703704000004 unknown #
plane-surface $-1 -1 -1 $-1 0 0 7.1018703704000004 0 0 1 1 0 0 forward_v I I I I #
coedge $-1 -1 -1 $-1 $85 $85 $58 $87 forward $55 $-1 #
coedge $-1 -1 -1 $-1 $86 $86 $125 $126 reversed $57 $-1 #
edge $127 -1 -1 $-1 $128 0 $128 6.2831853071795862 $85 $129 forward @7 unknown T -7.6200000000000001 -7.6200000000000001 5.1018703704000004 7.6200000000000001 7.6200000000000001 5.1018703704000004 #
simple-snl-attrib $-1 -1 $-1 $60 $39 1 1 1 1 1 1 1 1 1 1 1 1 0 1 0 1 1 1 @17 NEW_SIMPLE_ATTRIB 1 @9 ENTITY_ID 0 3 32 -2147483648 -1 #
integer_attrib-name_attrib-gen-attrib $-1 -1 $130 $-1 $61 2 1 1 1 1 1 1 1 1 1 1 1 1 1 0 1 1 1 @8 CUBIT_ID 33 #
face $131 -1 -1 $-1 $-1 $132 $26 $-1 $133 reversed single T -10 -10 9.9000000000000004 10 10 9.9000000000000004 F #
loop $-1 -1 -1 $-1 $-1 $134 $61 T -10 -10 -0.099999999999999645 10 10 -0.099999999999999645 unknown #
plane-surface $-1 -1 -1 $-1 0 0 -0.099999999999999645 0 0 -1 -1 0 0 forward_v I I I I #
loop $-1 -1 -1 $-1 $-1 $135 $39 T -10 -10 9.9000000000000004 10 10 9.9000000000000004 unknown #
coedge $-1 -1 -1 $-1 $94 $94 $134 $136 forward $62 $-1 #
simple-snl-attrib $-1 -1 $-1 $65 $41 1 1 1 1 1 1 1 1 1 1 1 1 0 1 0 1 1 1 @17 NEW_SIMPLE_ATTRIB 1 @9 ENTITY_ID 0 3 30 -2147483648 -1 #
integer_attrib-name_attrib-gen-attrib $-1 -1 $137 $-1 $66 2 1 1 1 1 1 1 1 1 1 1 1 1 1 0 1 1 1 @8 CUBIT_ID 31 #
loop $-1 -1 -1 $-1 $-1 $138 $66 T -10.5 -10.5 10.4 10.5 10.5 10.4 unknown #
plane-surface $-1 -1 -1 $-1 0 0 10.4 0 0 1 1 0 0 forward_v I I I I #
coedge $-1 -1 -1 $-1 $99 $99 $70 $101 forward $67 $-1 #
coedge $-1 -1 -1 $-1 $100 $100 $138 $139 reversed $69 $-1 #
edge $140 -1 -1 $-1 $141 0 $141 6.2831853071795862 $99 $142 forward @7 unknown T -10.5 -10.5 -0.59999999999999964 10.5 10.5 -0.59999999999999964 #
simple-snl-attrib $-1 -1 $-1 $72 $47 1 1 1 1 1 1 1 1 1 1 1 1 0 1 0 1 1 1 @17 NEW_SIMPLE_ATTRIB 1 @9 ENTITY_ID 0 3 15 -2147483648 -1 #
integer_attrib-name_attrib-gen-attrib $-1 -1 $143 $-1 $73 2 1 1 1 1 1 1 1 1 1 1 1 1 1 0 1 1 1 @8 CUBIT_ID 16 #
face $144 -1 -1 $-1 $145 $119 $14 $-1 $146 reversed single T -4.1275000000000004 -4.1275000000000004 5 -1.5875000000267008 -1.5875000000267008 5.0018703700000007 F #
loop $-1 -1 -1 $-1 $-1 $147 $73 T -1.5875000000267008 4.1275000000000004 5 1.5875000000267008 4.1275000000000004 5.0018703700000007 unknown #
plane-surface $-1 -1 -1 $-1 0 4.1275000000000004 5.0009351850000003 0 -1 0 0 0 -1 forward_v I I I I #
coedge $-1 -1 -1 $-1 $148 $149 $150 $151 forward $74 $-1 #
coedge $-1 -1 -1 $-1 $152 $76 $153 $154 forward $48 $-1 #
coedge $-1 -1 -1 $-1 $76 $152 $155 $156 forward $48 $-1 #
coedge $-1 -1 -1 $-1 $157 $158 $76 $111 reversed $159 $-1 #
edge $160 -1 -1 $-1 $161 -0.00093518500000000005 $162 0.00093518500000000005 $110 $163 forward @7 unknown T 4.1275000000000004 -1.5875000000267008 5 4.1275000000000004 -1.5875000000267008 5.0018703700000007 #
coedge $-1 -1 -1 $-1 $78 $77 $164 $165 forward $31 $-1 #
coedge $-1 -1 -1 $-1 $166 $167 $77 $114 reversed $168 $-1 #
edge $169 -1 -1 $-1 $122 -1.5875000000267008 $170 1.5875000000267008 $113 $171 forward @7 unknown T -1.5875000000267008 -4.1275000000000004 5 1.5875000000267008 -4.1275000000000004 5 #
coedge $-1 -1 -1 $-1 $172 $173 $78 $116 reversed $174 $-1 #
edge $175 -1 -1 $-1 $176 -1.5875000000267008 $121 1.5875000000267008 $115 $177 forward @7 unknown T -1.5875000000267008 -4.1275000000000004 5.0018703700000007 1.5875000000267008 -4.1275000000000004 5.0018703700000007 #
coedge $-1 -1 -1 $-1 $150 $79 $173 $178 reversed $119 $-1 #
coedge $-1 -1 -1 $-1 $79 $150 $166 $179 reversed $119 $-1 #
loop $-1 -1 -1 $-1 $-1 $150 $104 T -4.1275000000000004 -4.1275000000000004 5 -1.5875000000267008 -1.5875000000267008 5.0018703700000007 unknown #
integer_attrib-name_attrib-gen-attrib $-1 -1 $180 $-1 $80 2 1 1 1 1 1 1 1 1 1 1 1 1 1 0 1 1 1 @8 CUBIT_ID 25 #
vertex $181 -1 -1 $-1 $116 $182 #
vertex $183 -1 -1 $-1 $179 $184 #
straight-curve $-1 -1 -1 $-1 -1.5875000000267008 -4.1275000000000004 5.0009351850000003 0 0 -1 I I #
simple-snl-attrib $-1 -1 $-1 $82 $54 1 1 1 1 1 1 1 1 1 1 1 1 0 1 0 1 1 1 @17 NEW_SIMPLE_ATTRIB 1 @9 ENTITY_ID 0 3 25 -2147483648 -1 #
coedge $-1 -1 -1 $-1 $125 $125 $86 $126 forward $83 $-1 #
edge $185 -1 -1 $-1 $186 0 $186 6.2831853071795862 $125 $187 forward @7 unknown T -7.6200000000000001 -7.6200000000000001 7.1018703704000004 7.6200000000000001 7.6200000000000001 7.1018703704000004 #
integer_attrib-name_attrib-gen-attrib $-1 -1 $188 $-1 $87 2 1 1 1 1 1 1 1 1 1 1 1 1 1 0 1 1 1 @8 CUBIT_ID 49 #
vertex $189 -1 -1 $-1 $87 $190 #
ellipse-curve $-1 -1 -1 $-1 0 0 5.1018703704000004 0 0 -1 7.6200000000000001 0 0 1 I I #
simple-snl-attrib $-1 -1 $-1 $89 $61 1 1 1 1 1 1 1 1 1 1 1 1 0 1 0 1 1 1 @17 NEW_SIMPLE_ATTRIB 1 @9 ENTITY_ID 0 3 33 -2147483648 -1 #
integer_attrib-name_attrib-gen-attrib $-1 -1 $191 $-1 $90 2 1 1 1 1 1 1 1 1 1 1 1 1 1 0 1 1 1 @8 CUBIT_ID 34 #
loop $-1 -1 -1 $-1 $-1 $192 $90 T -10 -10 9.9000000000000004 10 10 9.9000000000000004 unknown #
plane-surface $-1 -1 -1 $-1 0 0 9.9000000000000004 0 0 1 1 0 0 forward_v I I I I #
coedge $-1 -1 -1 $-1 $134 $134 $94 $136 reversed $91 $-1 #
coedge $-1 -1 -1 $-1 $135 $135 $192 $193 forward $93 $-1 #
edge $194 -1 -1 $-1 $195 0 $195 6.2831853071795862 $134 $196 forward @7 unknown T -10 -10 -0.099999999999999645 10 10 -0.099999999999999645 #
simple-snl-attrib $-1 -1 $-1 $96 $66 1 1 1 1 1 1 1 1 1 1 1 1 0 1 0 1 1 1 @17 NEW_SIMPLE_ATTRIB 1 @9 ENTITY_ID 0 3 31 -2147483648 -1 #
coedge $-1 -1 -1 $-1 $138 $138 $100 $139 forward $97 $-1 #
edge $197 -1 -1 $-1 $198 0 $198 6.2831853071795862 $138 $199 forward @7 unknown T -10.5 -10.5 10.4 10.5 10.5 10.4 #
integer_attrib-name_attrib-gen-attrib $-1 -1 $200 $-1 $101 2 1 1 1 1 1 1 1 1 1 1 1 1 1 0 1 1 1 @8 CUBIT_ID 53 #
vertex $201 -1 -1 $-1 $101 $202 #
ellipse-curve $-1 -1 -1 $-1 0 0 -0.59999999999999964 0 0 -1 10.5 0 0 1 I I #
simple-snl-attrib $-1 -1 $-1 $103 $73 1 1 1 1 1 1 1 1 1 1 1 1 0 1 0 1 1 1 @17 NEW_SIMPLE_ATTRIB 1 @9 ENTITY_ID 0 3 16 -2147483648 -1 #
integer_attrib-name_attrib-gen-attrib $-1 -1 $203 $-1 $104 2 1 1 1 1 1 1 1 1 1 1 1 1 1 0 1 1 1 @8 CUBIT_ID 17 #
face $204 -1 -1 $-1 $205 $159 $14 $-1 $206 reversed single T 1.5875000000267008 -4.1275000000000004 5 4.1275000000000004 -1.5875000000267008 5.0018703700000007 F #
plane-surface $-1 -1 -1 $-1 -2.8575000000133506 -2.8575000000133506 5.0009351850000003 0.70710678118654746 0.70710678118654746 0 0 0 -1 forward_v I I I I #
coedge $-1 -1 -1 $-1 $207 $208 $209 $210 forward $105 $-1 #
coedge $-1 -1 -1 $-1 $211 $107 $212 $213 forward $74 $-1 #
coedge $-1 -1 -1 $-1 $107 $211 $214 $215 forward $74 $-1 #
coedge $-1 -1 -1 $-1 $118 $117 $107 $151 reversed $119 $-1 #
edge $216 -1 -1 $-1 $217 -0.00093518500000000005 $218 0.00093518500000000005 $150 $219 forward @7 unknown T -4.1275000000000004 -1.5875000000267008 5 -4.1275000000000004 -1.5875000000267008 5.0018703700000007 #
coedge $-1 -1 -1 $-1 $109 $108 $220 $221 forward $48 $-1 #
coedge $-1 -1 -1 $-1 $167 $222 $108 $154 reversed $168 $-1 #
edge $223 -1 -1 $-1 $162 -1.5875000000267008 $224 1.5875000000267008 $153 $225 forward @7 unknown T 4.1275000000000004 -1.5875000000267008 5 4.1275000000000004 1.5875000000267008 5 #
coedge $-1 -1 -1 $-1 $226 $172 $109 $156 reversed $174 $-1 #
edge $227 -1 -1 $-1 $228 -1.5875000000267008 $161 1.5875000000267008 $155 $229 forward @7 unknown T 4.1275000000000004 -1.5875000000267008 5.0018703700000007 4.1275000000000004 1.5875000000267008 5.0018703700000007 #
coedge $-1 -1 -1 $-1 $164 $110 $172 $230 reversed $159 $-1 #
coedge $-1 -1 -1 $-1 $110 $164 $167 $231 reversed $159 $-1 #
loop $-1 -1 -1 $-1 $-1 $164 $145 T 1.5875000000267008 -4.1275000000000004 5 4.1275000000000004 -1.5875000000267008 5.0018703700000007 unknown #
integer_attrib-name_attrib-gen-attrib $-1 -1 $232 $-1 $111 2 1 1 1 1 1 1 1 1 1 1 1 1 1 0 1 1 1 @8 CUBIT_ID 29 #
vertex $233 -1 -1 $-1 $111 $234 #
vertex $235 -1 -1 $-1 $231 $236 #
straight-curve $-1 -1 -1 $-1 4.1275000000000004 -1.5875000000267008 5.0009351850000003 0 0 -1 I I #
coedge $-1 -1 -1 $-1 $158 $157 $112 $165 reversed $159 $-1 #
edge $237 -1 -1 $-1 $170 -0.00093518500000000005 $176 0.00093518500000000005 $164 $238 forward @7 unknown T 1.5875000000267008 -4.1275000000000004 5 1.5875000000267008 -4.1275000000000004 5.0018703700000007 #
coedge $-1 -1 -1 $-1 $214 $113 $118 $179 forward $168 $-1 #
coedge $-1 -1 -1 $-1 $113 $153 $158 $231 forward $168 $-1 #
loop $-1 -1 -1 $-1 $-1 $214 $239 T -4.1275000000000004 -4.1275000000000004 5 4.1275000000000004 4.1275000000000004 5 unknown #
integer_attrib-name_attrib-gen-attrib $-1 -1 $240 $-1 $114 2 1 1 1 1 1 1 1 1 1 1 1 1 1 0 1 1 1 @8 CUBIT_ID 26 #
vertex $241 -1 -1 $-1 $114 $242 #
straight-curve $-1 -1 -1 $-1 0 -4.1275000000000004 5 1 0 0 I I #
coedge $-1 -1 -1 $-1 $155 $115 $157 $230 forward $174 $-1 #
coedge $-1 -1 -1 $-1 $115 $212 $117 $178 forward $174 $-1 #
loop $-1 -1 -1 $-1 $-1 $212 $243 T -4.1275000000000004 -4.1275000000000004 5.0018703700000007 4.1275000000000004 4.1275000000000004 5.0018703700000007 unknown #
integer_attrib-name_attrib-gen-attrib $-1 -1 $244 $-1 $116 2 1 1 1 1 1 1 1 1 1 1 1 1 1 0 1 1 1 @8 CUBIT_ID 28 #
vertex $245 -1 -1 $-1 $230 $246 #
straight-curve $-1 -1 -1 $-1 0 -4.1275000000000004 5.0018703700000007 -1 0 0 I I #
edge $247 -1 -1 $-1 $218 -1.7960512241949507 $121 1.7960512241949507 $117 $248 forward @7 unknown T -4.1275000000000004 -4.1275000000000004 5.0018703700000007 -1.5875000000267008 -1.5875000000267008 5.0018703700000007 #
edge $249 -1 -1 $-1 $122 -1.7960512241949507 $217 1.7960512241949507 $118 $250 forward @7 unknown T -4.1275000000000004 -4.1275000000000004 5 -1.5875000000267008 -1.5875000000267008 5 #
simple-snl-attrib $-1 -1 $-1 $120 $80 1 1 1 1 1 1 1 1 1 1 1 1 0 1 0 1 1 1 @17 NEW_SIMPLE_ATTRIB 1 @9 ENTITY_ID 0 3 25 -2147483648 -1 #
integer_attrib-name_attrib-gen-attrib $-1 -1 $251 $-1 $121 2 1 1 1 1 1 1 1 1 1 1 1 1 1 0 1 1 1 @8 CUBIT_ID 17 #
point $-1 -1 -1 $-1 -1.5875000000267008 -4.1275000000000004 5.0018703700000007 #
integer_attrib-name_attrib-gen-attrib $-1 -1 $252 $-1 $122 2 1 1 1 1 1 1 1 1 1 1 1 1 1 0 1 1 1 @8 CUBIT_ID 18 #
point $-1 -1 -1 $-1 -1.5875000000267008 -4.1275000000000004 5 #
integer_attrib-name_attrib-gen-attrib $-1 -1 $253 $-1 $126 2 1 1 1 1 1 1 1 1 1 1 1 1 1 0 1 1 1 @8 CUBIT_ID 50 #
vertex $254 -1 -1 $-1 $126 $255 #
ellipse-curve $-1 -1 -1 $-1 0 0 7.1018703704000004 0 0 1 7.6200000000000001 0 0 1 I I #
simple-snl-attrib $-1 -1 $-1 $127 $87 1 1 1 1 1 1 1 1 1 1 1 1 0 1 0 1 1 1 @17 NEW_SIMPLE_ATTRIB 1 @9 ENTITY_ID 0 3 49 -2147483648 -1 #
integer_attrib-name_attrib-gen-attrib $-1 -1 $256 $-1 $128 2 1 1 1 1 1 1 1 1 1 1 1 1 1 0 1 1 1 @8 CUBIT_ID 33 #
point $-1 -1 -1 $-1 7.6200000000000001 0 5.1018703704000004 #
simple-snl-attrib $-1 -1 $-1 $131 $90 1 1 1 1 1 1 1 1 1 1 1 1 0 1 0 1 1 1 @17 NEW_SIMPLE_ATTRIB 1 @9 ENTITY_ID 0 3 34 -2147483648 -1 #
coedge $-1 -1 -1 $-1 $192 $192 $135 $193 reversed $132 $-1 #
edge $257 -1 -1 $-1 $258 0 $258 6.2831853071795862 $192 $259 forward @7 unknown T -10 -10 9.9000000000000004 10 10 9.9000000000000004 #
integer_attrib-name_attrib-gen-attrib $-1 -1 $260 $-1 $136 2 1 1 1 1 1 1 1 1 1 1 1 1 1 0 1 1 1 @8 CUBIT_ID 55 #
vertex $261 -1 -1 $-1 $136 $262 #
ellipse-curve $-1 -1 -1 $-1 0 0 -0.099999999999999645 0 0 -1 10 0 0 1 I I #
integer_attrib-name_attrib-gen-attrib $-1 -1 $263 $-1 $139 2 1 1 1 1 1 1 1 1 1 1 1 1 1 0 1 1 1 @8 CUBIT_ID 54 #
vertex $264 -1 -1 $-1 $139 $265 #
ellipse-curve $-1 -1 -1 $-1 0 0 10.4 0 0 1 10.5 0 0 1 I I #
simple-snl-attrib $-1 -1 $-1 $140 $101 1 1 1 1 1 1 1 1 1 1 1 1 0 1 0 1 1 1 @17 NEW_SIMPLE_ATTRIB 1 @9 ENTITY_ID 0 3 53 -2147483648 -1 #
integer_attrib-name_attrib-gen-attrib $-1 -1 $266 $-1 $141 2 1 1 1 1 1 1 1 1 1 1 1 1 1 0 1 1 1 @8 CUBIT_ID 37 #
point $-1 -1 -1 $-1 10.5 0 -0.59999999999999964 #
simple-snl-attrib $-1 -1 $-1 $144 $104 1 1 1 1 1 1 1 1 1 1 1 1 0 1 0 1 1 1 @17 NEW_SIMPLE_ATTRIB 1 @9 ENTITY_ID 0 3 17 -2147483648 -1 #
integer_attrib-name_attrib-gen-attrib $-1 -1 $267 $-1 $145 2 1 1 1 1 1 1 1 1 1 1 1 1 1 0 1 1 1 @8 CUBIT_ID 18 #
face $268 -1 -1 $-1 $239 $269 $14 $-1 $270 reversed single T 1.5875000000267008 1.5875000000267008 5 4.1275000000000004 4.1275000000000004 5.0018703700000007 F #
plane-surface $-1 -1 -1 $-1 2.8575000000133506 -2.8575000000133506 5.0009351850000003 -0.70710678118654746 0.70710678118654746 0 0 0 1 forward_v I I I I #
coedge $-1 -1 -1 $-1 $271 $147 $272 $273 forward $105 $-1 #
coedge $-1 -1 -1 $-1 $147 $271 $274 $275 forward $105 $-1 #
coedge $-1 -1 -1 $-1 $276 $277 $147 $210 reversed $278 $-1 #
edge $279 -1 -1 $-1 $280 -0.00093518500000000005 $281 0.00093518500000000005 $209 $282 forward @7 unknown T -1.5875000000267008 4.1275000000000004 5 -1.5875000000267008 4.1275000000000004 5.0018703700000007 #
coedge $-1 -1 -1 $-1 $149 $148 $283 $284 forward $74 $-1 #
coedge $-1 -1 -1 $-1 $173 $285 $148 $213 reversed $174 $-1 #
edge $286 -1 -1 $-1 $218 -1.5875000000267008 $287 1.5875000000267008 $212 $288 forward @7 unknown T -4.1275000000000004 -1.5875000000267008 5.0018703700000007 -4.1275000000000004 1.5875000000267008 5.0018703700000007 #
coedge $-1 -1 -1 $-1 $289 $166 $149 $215 reversed $168 $-1 #
edge $290 -1 -1 $-1 $291 -1.5875000000267008 $217 1.5875000000267008 $214 $292 forward @7 unknown T -4.1275000000000004 -1.5875000000267008 5 -4.1275000000000004 1.5875000000267008 5 #
integer_attrib-name_attrib-gen-attrib $-1 -1 $293 $-1 $151 2 1 1 1 1 1 1 1 1 1 1 1 1 1 0 1 1 1 @8 CUBIT_ID 33 #
vertex $294 -1 -1 $-1 $215 $295 #
vertex $296 -1 -1 $-1 $178 $297 #
straight-curve $-1 -1 -1 $-1 -4.1275000000000004 -1.5875000000267008 5.0009351850000003 0 0 1 I I #
coedge $-1 -1 -1 $-1 $298 $299 $152 $221 reversed $269 $-1 #
edge $300 -1 -1 $-1 $224 -0.00093518500000000005 $228 0.00093518500000000005 $220 $301 forward @7 unknown T 4.1275000000000004 1.5875000000267008 5 4.1275000000000004 1.5875000000267008 5.0018703700000007 #
coedge $-1 -1 -1 $-1 $153 $274 $298 $302 forward $168 $-1 #
integer_attrib-name_attrib-gen-attrib $-1 -1 $303 $-1 $154 2 1 1 1 1 1 1 1 1 1 1 1 1 1 0 1 1 1 @8 CUBIT_ID 30 #
vertex $304 -1 -1 $-1 $154 $305 #
straight-curve $-1 -1 -1 $-1 4.1275000000000004 0 5 0 1 0 I I #
coedge $-1 -1 -1 $-1 $272 $155 $299 $306 forward $174 $-1 #
integer_attrib-name_attrib-gen-attrib $-1 -1 $307 $-1 $156 2 1 1 1 1 1 1 1 1 1 1 1 1 1 0 1 1 1 @8 CUBIT_ID 32 #
vertex $308 -1 -1 $-1 $306 $309 #
straight-curve $-1 -1 -1 $-1 4.1275000000000004 0 5.0018703700000007 0 -1 0 I I #
edge $310 -1 -1 $-1 $176 -1.7960512241949507 $161 1.7960512241949507 $157 $311 forward @7 unknown T 1.5875000000267008 -4.1275000000000004 5.0018703700000007 4.1275000000000004 -1.5875000000267008 5.0018703700000007 #
edge $312 -1 -1 $-1 $162 -1.7960512241949507 $170 1.7960512241949507 $158 $313 forward @7 unknown T 1.5875000000267008 -4.1275000000000004 5 4.1275000000000004 -1.5875000000267008 5 #
simple-snl-attrib $-1 -1 $-1 $160 $111 1 1 1 1 1 1 1 1 1 1 1 1 0 1 0 1 1 1 @17 NEW_SIMPLE_ATTRIB 1 @9 ENTITY_ID 0 3 29 -2147483648 -1 #
integer_attrib-name_attrib-gen-attrib $-1 -1 $314 $-1 $161 2 1 1 1 1 1 1 1 1 1 1 1 1 1 0 1 1 1 @8 CUBIT_ID 21 #
point $-1 -1 -1 $-1 4.1275000000000004 -1.5875000000267008 5.0018703700000007 #
integer_attrib-name_attrib-gen-attrib $-1 -1 $315 $-1 $162 2 1 1 1 1 1 1 1 1 1 1 1 1 1 0 1 1 1 @8 CUBIT_ID 22 #
point $-1 -1 -1 $-1 4.1275000000000004 -1.5875000000267008 5 #
integer_attrib-name_attrib-gen-attrib $-1 -1 $316 $-1 $165 2 1 1 1 1 1 1 1 1 1 1 1 1 1 0 1 1 1 @8 CUBIT_ID 27 #
straight-curve $-1 -1 -1 $-1 1.5875000000267008 -4.1275000000000004 5.0009351850000003 0 0 1 I I #
face $317 -1 -1 $-1 $243 $168 $14 $-1 $318 reversed single T -4.1275000000000004 -4.1275000000000004 5 4.1275000000000004 4.1275000000000004 5 F #
simple-snl-attrib $-1 -1 $-1 $169 $114 1 1 1 1 1 1 1 1 1 1 1 1 0 1 0 1 1 1 @17 NEW_SIMPLE_ATTRIB 1 @9 ENTITY_ID 0 3 26 -2147483648 -1 #
integer_attrib-name_attrib-gen-attrib $-1 -1 $319 $-1 $170 2 1 1 1 1 1 1 1 1 1 1 1 1 1 0 1 1 1 @8 CUBIT_ID 19 #
point $-1 -1 -1 $-1 1.5875000000267008 -4.1275000000000004 5 #
face $320 -1 -1 $-1 $321 $174 $14 $-1 $322 forward single T -4.1275000000000004 -4.1275000000000004 5.0018703700000007 4.1275000000000004 4.1275000000000004 5.0018703700000007 F #
simple-snl-attrib $-1 -1 $-1 $175 $116 1 1 1 1 1 1 1 1 1 1 1 1 0 1 0 1 1 1 @17 NEW_SIMPLE_ATTRIB 1 @9 ENTITY_ID 0 3 28 -2147483648 -1 #
integer_attrib-name_attrib-gen-attrib $-1 -1 $323 $-1 $176 2 1 1 1 1 1 1 1 1 1 1 1 1 1 0 1 1 1 @8 CUBIT_ID 20 #
point $-1 -1 -1 $-1 1.5875000000267008 -4.1275000000000004 5.0018703700000007 #
integer_attrib-name_attrib-gen-attrib $-1 -1 $324 $-1 $178 2 1 1 1 1 1 1 1 1 1 1 1 1 1 0 1 1 1 @8 CUBIT_ID 42 #
straight-curve $-1 -1 -1 $-1 -2.8575000000133506 -2.8575000000133506 5.0018703700000007 0.70710678118654724 -0.70710678118654724 0 I I #
integer_attrib-name_attrib-gen-attrib $-1 -1 $325 $-1 $179 2 1 1 1 1 1 1 1 1 1 1 1 1 1 0 1 1 1 @8 CUBIT_ID 41 #
straight-curve $-1 -1 -1 $-1 -2.8575000000133506 -2.8575000000133506 5 -0.70710678118654724 0.70710678118654724 0 I I #
simple-snl-attrib $-1 -1 $-1 $181 $121 1 1 1 1 1 1 1 1 1 1 1 1 0 1 0 1 1 1 @17 NEW_SIMPLE_ATTRIB 1 @9 ENTITY_ID 0 3 17 -2147483648 -1 #
simple-snl-attrib $-1 -1 $-1 $183 $122 1 1 1 1 1 1 1 1 1 1 1 1 0 1 0 1 1 1 @17 NEW_SIMPLE_ATTRIB 1 @9 ENTITY_ID 0 3 18 -2147483648 -1 #
simple-snl-attrib $-1 -1 $-1 $185 $126 1 1 1 1 1 1 1 1 1 1 1 1 0 1 0 1 1 1 @17 NEW_SIMPLE_ATTRIB 1 @9 ENTITY_ID 0 3 50 -2147483648 -1 #
integer_attrib-name_attrib-gen-attrib $-1 -1 $326 $-1 $186 2 1 1 1 1 1 1 1 1 1 1 1 1 1 0 1 1 1 @8 CUBIT_ID 34 #
point $-1 -1 -1 $-1 7.6200000000000001 0 7.1018703704000004 #
simple-snl-attrib $-1 -1 $-1 $189 $128 1 1 1 1 1 1 1 1 1 1 1 1 0 1 0 1 1 1 @17 NEW_SIMPLE_ATTRIB 1 @9 ENTITY_ID 0 3 33 -2147483648 -1 #
integer_attrib-name_attrib-gen-attrib $-1 -1 $327 $-1 $193 2 1 1 1 1 1 1 1 1 1 1 1 1 1 0 1 1 1 @8 CUBIT_ID 56 #
vertex $328 -1 -1 $-1 $193 $329 #
ellipse-curve $-1 -1 -1 $-1 0 0 9.9000000000000004 0 0 1 10 0 0 1 I I #
simple-snl-attrib $-1 -1 $-1 $194 $136 1 1 1 1 1 1 1 1 1 1 1 1 0 1 0 1 1 1 @17 NEW_SIMPLE_ATTRIB 1 @9 ENTITY_ID 0 3 55 -2147483648 -1 #
integer_attrib-name_attrib-gen-attrib $-1 -1 $330 $-1 $195 2 1 1 1 1 1 1 1 1 1 1 1 1 1 0 1 1 1 @8 CUBIT_ID 39 #
point $-1 -1 -1 $-1 10 0 -0.099999999999999645 #
simple-snl-attrib $-1 -1 $-1 $197 $139 1 1 1 1 1 1 1 1 1 1 1 1 0 1 0 1 1 1 @17 NEW_SIMPLE_ATTRIB 1 @9 ENTITY_ID 0 3 54 -2147483648 -1 #
integer_attrib-name_attrib-gen-attrib $-1 -1 $331 $-1 $198 2 1 1 1 1 1 1 1 1 1 1 1 1 1 0 1 1 1 @8 CUBIT_ID 38 #
point $-1 -1 -1 $-1 10.5 0 10.4 #
simple-snl-attrib $-1 -1 $-1 $201 $141 1 1 1 1 1 1 1 1 1 1 1 1 0 1 0 1 1 1 @17 NEW_SIMPLE_ATTRIB 1 @9 ENTITY_ID 0 3 37 -2147483648 -1 #
simple-snl-attrib $-1 -1 $-1 $204 $145 1 1 1 1 1 1 1 1 1 1 1 1 0 1 0 1 1 1 @17 NEW_SIMPLE_ATTRIB 1 @9 ENTITY_ID 0 3 18 -2147483648 -1 #
integer_attrib-name_attrib-gen-attrib $-1 -1 $332 $-1 $205 2 1 1 1 1 1 1 1 1 1 1 1 1 1 0 1 1 1 @8 CUBIT_ID 19 #
loop $-1 -1 -1 $-1 $-1 $220 $205 T 1.5875000000267008 1.5875000000267008 5 4.1275000000000004 4.1275000000000004 5.0018703700000007 unknown #
plane-surface $-1 -1 -1 $-1 2.8575000000133506 2.8575000000133506 5.0009351850000003 -0.70710678118654746 -0.70710678118654746 0 0 0 1 forward_v I I I I #
coedge $-1 -1 -1 $-1 $208 $207 $333 $334 forward $105 $-1 #
coedge $-1 -1 -1 $-1 $285 $226 $207 $273 reversed $174 $-1 #
edge $335 -1 -1 $-1 $281 -1.5875000000267008 $336 1.5875000000267008 $272 $337 forward @7 unknown T -1.5875000000267008 4.1275000000000004 5.0018703700000007 1.5875000000267008 4.1275000000000004 5.0018703700000007 #
coedge $-1 -1 -1 $-1 $222 $289 $208 $275 reversed $168 $-1 #
edge $338 -1 -1 $-1 $339 -1.5875000000267008 $280 1.5875000000267008 $274 $340 forward @7 unknown T -1.5875000000267008 4.1275000000000004 5 1.5875000000267008 4.1275000000000004 5 #
coedge $-1 -1 -1 $-1 $283 $209 $289 $341 reversed $278 $-1 #
coedge $-1 -1 -1 $-1 $209 $283 $285 $342 reversed $278 $-1 #
loop $-1 -1 -1 $-1 $-1 $283 $321 T -4.1275000000000004 1.5875000000267008 5 -1.5875000000267008 4.1275000000000004 5.0018703700000007 unknown #
integer_attrib-name_attrib-gen-attrib $-1 -1 $343 $-1 $210 2 1 1 1 1 1 1 1 1 1 1 1 1 1 0 1 1 1 @8 CUBIT_ID 37 #
vertex $344 -1 -1 $-1 $275 $345 #
vertex $346 -1 -1 $-1 $342 $347 #
straight-curve $-1 -1 -1 $-1 -1.5875000000267008 4.1275000000000004 5.0009351850000003 0 0 1 I I #
coedge $-1 -1 -1 $-1 $277 $276 $211 $284 reversed $278 $-1 #
edge $348 -1 -1 $-1 $287 -0.00093518500000000005 $291 0.00093518500000000005 $283 $349 forward @7 unknown T -4.1275000000000004 1.5875000000267008 5 -4.1275000000000004 1.5875000000267008 5.0018703700000007 #
coedge $-1 -1 -1 $-1 $212 $272 $277 $342 forward $174 $-1 #
integer_attrib-name_attrib-gen-attrib $-1 -1 $350 $-1 $213 2 1 1 1 1 1 1 1 1 1 1 1 1 1 0 1 1 1 @8 CUBIT_ID 34 #
vertex $351 -1 -1 $-1 $284 $352 #
straight-curve $-1 -1 -1 $-1 -4.1275000000000004 0 5.0018703700000007 0 1 0 I I #
coedge $-1 -1 -1 $-1 $274 $214 $276 $341 forward $168 $-1 #
integer_attrib-name_attrib-gen-attrib $-1 -1 $353 $-1 $215 2 1 1 1 1 1 1 1 1 1 1 1 1 1 0 1 1 1 @8 CUBIT_ID 36 #
vertex $354 -1 -1 $-1 $341 $355 #
straight-curve $-1 -1 -1 $-1 -4.1275000000000004 0 5 0 -1 0 I I #
simple-snl-attrib $-1 -1 $-1 $216 $151 1 1 1 1 1 1 1 1 1 1 1 1 0 1 0 1 1 1 @17 NEW_SIMPLE_ATTRIB 1 @9 ENTITY_ID 0 3 33 -2147483648 -1 #
integer_attrib-name_attrib-gen-attrib $-1 -1 $356 $-1 $217 2 1 1 1 1 1 1 1 1 1 1 1 1 1 0 1 1 1 @8 CUBIT_ID 25 #
point $-1 -1 -1 $-1 -4.1275000000000004 -1.5875000000267008 5 #
integer_attrib-name_attrib-gen-attrib $-1 -1 $357 $-1 $218 2 1 1 1 1 1 1 1 1 1 1 1 1 1 0 1 1 1 @8 CUBIT_ID 26 #
point $-1 -1 -1 $-1 -4.1275000000000004 -1.5875000000267008 5.0018703700000007 #
coedge $-1 -1 -1 $-1 $333 $220 $222 $302 reversed $269 $-1 #
coedge $-1 -1 -1 $-1 $220 $333 $226 $306 reversed $269 $-1 #
integer_attrib-name_attrib-gen-attrib $-1 -1 $358 $-1 $221 2 1 1 1 1 1 1 1 1 1 1 1 1 1 0 1 1 1 @8 CUBIT_ID 31 #
straight-curve $-1 -1 -1 $-1 4.1275000000000004 1.5875000000267008 5.0009351850000003 0 0 1 I I #
edge $359 -1 -1 $-1 $339 -1.7960512241949507 $224 1.7960512241949507 $298 $360 forward @7 unknown T 1.5875000000267008 1.5875000000267008 5 4.1275000000000004 4.1275000000000004 5 #
simple-snl-attrib $-1 -1 $-1 $223 $154 1 1 1 1 1 1 1 1 1 1 1 1 0 1 0 1 1 1 @17 NEW_SIMPLE_ATTRIB 1 @9 ENTITY_ID 0 3 30 -2147483648 -1 #
integer_attrib-name_attrib-gen-attrib $-1 -1 $361 $-1 $224 2 1 1 1 1 1 1 1 1 1 1 1 1 1 0 1 1 1 @8 CUBIT_ID 23 #
point $-1 -1 -1 $-1 4.1275000000000004 1.5875000000267008 5 #
edge $362 -1 -1 $-1 $228 -1.7960512241949507 $336 1.7960512241949507 $299 $363 forward @7 unknown T 1.5875000000267008 1.5875000000267008 5.0018703700000007 4.1275000000000004 4.1275000000000004 5.0018703700000007 #
simple-snl-attrib $-1 -1 $-1 $227 $156 1 1 1 1 1 1 1 1 1 1 1 1 0 1 0 1 1 1 @17 NEW_SIMPLE_ATTRIB 1 @9 ENTITY_ID 0 3 32 -2147483648 -1 #
integer_attrib-name_attrib-gen-attrib $-1 -1 $364 $-1 $228 2 1 1 1 1 1 1 1 1 1 1 1 1 1 0 1 1 1 @8 CUBIT_ID 24 #
point $-1 -1 -1 $-1 4.1275000000000004 1.5875000000267008 5.0018703700000007 #
integer_attrib-name_attrib-gen-attrib $-1 -1 $365 $-1 $230 2 1 1 1 1 1 1 1 1 1 1 1 1 1 0 1 1 1 @8 CUBIT_ID 44 #
straight-curve $-1 -1 -1 $-1 2.8575000000133506 -2.8575000000133506 5.0018703700000007 0.70710678118654724 0.70710678118654724 0 I I #
integer_attrib-name_attrib-gen-attrib $-1 -1 $366 $-1 $231 2 1 1 1 1 1 1 1 1 1 1 1 1 1 0 1 1 1 @8 CUBIT_ID 43 #
straight-curve $-1 -1 -1 $-1 2.8575000000133506 -2.8575000000133506 5 -0.70710678118654724 -0.70710678118654724 0 I I #
simple-snl-attrib $-1 -1 $-1 $233 $161 1 1 1 1 1 1 1 1 1 1 1 1 0 1 0 1 1 1 @17 NEW_SIMPLE_ATTRIB 1 @9 ENTITY_ID 0 3 21 -2147483648 -1 #
simple-snl-attrib $-1 -1 $-1 $235 $162 1 1 1 1 1 1 1 1 1 1 1 1 0 1 0 1 1 1 @17 NEW_SIMPLE_ATTRIB 1 @9 ENTITY_ID 0 3 22 -2147483648 -1 #
simple-snl-attrib $-1 -1 $-1 $237 $165 1 1 1 1 1 1 1 1 1 1 1 1 0 1 0 1 1 1 @17 NEW_SIMPLE_ATTRIB 1 @9 ENTITY_ID 0 3 27 -2147483648 -1 #
integer_attrib-name_attrib-gen-attrib $-1 -1 $367 $-1 $239 2 1 1 1 1 1 1 1 1 1 1 1 1 1 0 1 1 1 @8 CUBIT_ID 20 #
plane-surface $-1 -1 -1 $-1 0 0 5 0 0 1 0.70710678118654746 0.70710678118654746 0 forward_v I I I I #
simple-snl-attrib $-1 -1 $-1 $241 $170 1 1 1 1 1 1 1 1 1 1 1 1 0 1 0 1 1 1 @17 NEW_SIMPLE_ATTRIB 1 @9 ENTITY_ID 0 3 19 -2147483648 -1 #
integer_attrib-name_attrib-gen-attrib $-1 -1 $368 $-1 $243 2 1 1 1 1 1 1 1 1 1 1 1 1 1 0 1 1 1 @8 CUBIT_ID 21 #
face $369 -1 -1 $-1 $-1 $278 $14 $-1 $370 reversed single T -4.1275000000000004 1.5875000000267008 5 -1.5875000000267008 4.1275000000000004 5.0018703700000007 F #
plane-surface $-1 -1 -1 $-1 0 0 5.0018703700000007 0 0 1 0.70710678118654746 0.70710678118654746 0 forward_v I I I I #
simple-snl-attrib $-1 -1 $-1 $245 $176 1 1 1 1 1 1 1 1 1 1 1 1 0 1 0 1 1 1 @17 NEW_SIMPLE_ATTRIB 1 @9 ENTITY_ID 0 3 20 -2147483648 -1 #
simple-snl-attrib $-1 -1 $-1 $247 $178 1 1 1 1 1 1 1 1 1 1 1 1 0 1 0 1 1 1 @17 NEW_SIMPLE_ATTRIB 1 @9 ENTITY_ID 0 3 42 -2147483648 -1 #
simple-snl-attrib $-1 -1 $-1 $249 $179 1 1 1 1 1 1 1 1 1 1 1 1 0 1 0 1 1 1 @17 NEW_SIMPLE_ATTRIB 1 @9 ENTITY_ID 0 3 41 -2147483648 -1 #
simple-snl-attrib $-1 -1 $-1 $254 $186 1 1 1 1 1 1 1 1 1 1 1 1 0 1 0 1 1 1 @17 NEW_SIMPLE_ATTRIB 1 @9 ENTITY_ID 0 3 34 -2147483648 -1 #
simple-snl-attrib $-1 -1 $-1 $257 $193 1 1 1 1 1 1 1 1 1 1 1 1 0 1 0 1 1 1 @17 NEW_SIMPLE_ATTRIB 1 @9 ENTITY_ID 0 3 56 -2147483648 -1 #
integer_attrib-name_attrib-gen-attrib $-1 -1 $371 $-1 $258 2 1 1 1 1 1 1 1 1 1 1 1 1 1 0 1 1 1 @8 CUBIT_ID 40 #
point $-1 -1 -1 $-1 10 0 9.9000000000000004 #
simple-snl-attrib $-1 -1 $-1 $261 $195 1 1 1 1 1 1 1 1 1 1 1 1 0 1 0 1 1 1 @17 NEW_SIMPLE_ATTRIB 1 @9 ENTITY_ID 0 3 39 -2147483648 -1 #
simple-snl-attrib $-1 -1 $-1 $264 $198 1 1 1 1 1 1 1 1 1 1 1 1 0 1 0 1 1 1 @17 NEW_SIMPLE_ATTRIB 1 @9 ENTITY_ID 0 3 38 -2147483648 -1 #
simple-snl-attrib $-1 -1 $-1 $268 $205 1 1 1 1 1 1 1 1 1 1 1 1 0 1 0 1 1 1 @17 NEW_SIMPLE_ATTRIB 1 @9 ENTITY_ID 0 3 19 -2147483648 -1 #
coedge $-1 -1 -1 $-1 $299 $298 $271 $334 reversed $269 $-1 #
edge $372 -1 -1 $-1 $336 -0.00093518500000000005 $339 0.00093518500000000005 $333 $373 forward @7 unknown T 1.5875000000267008 4.1275000000000004 5 1.5875000000267008 4.1275000000000004 5.0018703700000007 #
integer_attrib-name_attrib-gen-attrib $-1 -1 $374 $-1 $273 2 1 1 1 1 1 1 1 1 1 1 1 1 1 0 1 1 1 @8 CUBIT_ID 38 #
vertex $375 -1 -1 $-1 $334 $376 #
straight-curve $-1 -1 -1 $-1 0 4.1275000000000004 5.0018703700000007 1 0 0 I I #
integer_attrib-name_attrib-gen-attrib $-1 -1 $377 $-1 $275 2 1 1 1 1 1 1 1 1 1 1 1 1 1 0 1 1 1 @8 CUBIT_ID 40 #
vertex $378 -1 -1 $-1 $302 $379 #
straight-curve $-1 -1 -1 $-1 0 4.1275000000000004 5 -1 0 0 I I #
edge $380 -1 -1 $-1 $291 -1.7960512241949507 $280 1.7960512241949507 $276 $381 forward @7 unknown T -4.1275000000000004 1.5875000000267008 5 -1.5875000000267008 4.1275000000000004 5 #
edge $382 -1 -1 $-1 $281 -1.7960512241949507 $287 1.7960512241949507 $277 $383 forward @7 unknown T -4.1275000000000004 1.5875000000267008 5.0018703700000007 -1.5875000000267008 4.1275000000000004 5.0018703700000007 #
simple-snl-attrib $-1 -1 $-1 $279 $210 1 1 1 1 1 1 1 1 1 1 1 1 0 1 0 1 1 1 @17 NEW_SIMPLE_ATTRIB 1 @9 ENTITY_ID 0 3 37 -2147483648 -1 #
integer_attrib-name_attrib-gen-attrib $-1 -1 $384 $-1 $280 2 1 1 1 1 1 1 1 1 1 1 1 1 1 0 1 1 1 @8 CUBIT_ID 29 #
point $-1 -1 -1 $-1 -1.5875000000267008 4.1275000000000004 5 #
integer_attrib-name_attrib-gen-attrib $-1 -1 $385 $-1 $281 2 1 1 1 1 1 1 1 1 1 1 1 1 1 0 1 1 1 @8 CUBIT_ID 30 #
point $-1 -1 -1 $-1 -1.5875000000267008 4.1275000000000004 5.0018703700000007 #
integer_attrib-name_attrib-gen-attrib $-1 -1 $386 $-1 $284 2 1 1 1 1 1 1 1 1 1 1 1 1 1 0 1 1 1 @8 CUBIT_ID 35 #
straight-curve $-1 -1 -1 $-1 -4.1275000000000004 1.5875000000267008 5.0009351850000003 0 0 -1 I I #
simple-snl-attrib $-1 -1 $-1 $286 $213 1 1 1 1 1 1 1 1 1 1 1 1 0 1 0 1 1 1 @17 NEW_SIMPLE_ATTRIB 1 @9 ENTITY_ID 0 3 34 -2147483648 -1 #
integer_attrib-name_attrib-gen-attrib $-1 -1 $387 $-1 $287 2 1 1 1 1 1 1 1 1 1 1 1 1 1 0 1 1 1 @8 CUBIT_ID 27 #
point $-1 -1 -1 $-1 -4.1275000000000004 1.5875000000267008 5.0018703700000007 #
simple-snl-attrib $-1 -1 $-1 $290 $215 1 1 1 1 1 1 1 1 1 1 1 1 0 1 0 1 1 1 @17 NEW_SIMPLE_ATTRIB 1 @9 ENTITY_ID 0 3 36 -2147483648 -1 #
integer_attrib-name_attrib-gen-attrib $-1 -1 $388 $-1 $291 2 1 1 1 1 1 1 1 1 1 1 1 1 1 0 1 1 1 @8 CUBIT_ID 28 #
point $-1 -1 -1 $-1 -4.1275000000000004 1.5875000000267008 5 #
simple-snl-attrib $-1 -1 $-1 $294 $217 1 1 1 1 1 1 1 1 1 1 1 1 0 1 0 1 1 1 @17 NEW_SIMPLE_ATTRIB 1 @9 ENTITY_ID 0 3 25 -2147483648 -1 #
simple-snl-attrib $-1 -1 $-1 $296 $218 1 1 1 1 1 1 1 1 1 1 1 1 0 1 0 1 1 1 @17 NEW_SIMPLE_ATTRIB 1 @9 ENTITY_ID 0 3 26 -2147483648 -1 #
simple-snl-attrib $-1 -1 $-1 $300 $221 1 1 1 1 1 1 1 1 1 1 1 1 0 1 0 1 1 1 @17 NEW_SIMPLE_ATTRIB 1 @9 ENTITY_ID 0 3 31 -2147483648 -1 #
integer_attrib-name_attrib-gen-attrib $-1 -1 $389 $-1 $302 2 1 1 1 1 1 1 1 1 1 1 1 1 1 0 1 1 1 @8 CUBIT_ID 45 #
straight-curve $-1 -1 -1 $-1 2.8575000000133506 2.8575000000133506 5 0.70710678118654724 -0.70710678118654724 0 I I #
simple-snl-attrib $-1 -1 $-1 $304 $224 1 1 1 1 1 1 1 1 1 1 1 1 0 1 0 1 1 1 @17 NEW_SIMPLE_ATTRIB 1 @9 ENTITY_ID 0 3 23 -2147483648 -1 #
integer_attrib-name_attrib-gen-attrib $-1 -1 $390 $-1 $306 2 1 1 1 1 1 1 1 1 1 1 1 1 1 0 1 1 1 @8 CUBIT_ID 46 #
straight-curve $-1 -1 -1 $-1 2.8575000000133506 2.8575000000133506 5.0018703700000007 -0.70710678118654724 0.70710678118654724 0 I I #
simple-snl-attrib $-1 -1 $-1 $308 $228 1 1 1 1 1 1 1 1 1 1 1 1 0 1 0 1 1 1 @17 NEW_SIMPLE_ATTRIB 1 @9 ENTITY_ID 0 3 24 -2147483648 -1 #
simple-snl-attrib $-1 -1 $-1 $310 $230 1 1 1 1 1 1 1 1 1 1 1 1 0 1 0 1 1 1 @17 NEW_SIMPLE_ATTRIB 1 @9 ENTITY_ID 0 3 44 -2147483648 -1 #
simple-snl-attrib $-1 -1 $-1 $312 $231 1 1 1 1 1 1 1 1 1 1 1 1 0 1 0 1 1 1 @17 NEW_SIMPLE_ATTRIB 1 @9 ENTITY_ID 0 3 43 -2147483648 -1 #
simple-snl-attrib $-1 -1 $-1 $317 $239 1 1 1 1 1 1 1 1 1 1 1 1 0 1 0 1 1 1 @17 NEW_SIMPLE_ATTRIB 1 @9 ENTITY_ID 0 3 20 -2147483648 -1 #
simple-snl-attrib $-1 -1 $-1 $320 $243 1 1 1 1 1 1 1 1 1 1 1 1 0 1 0 1 1 1 @17 NEW_SIMPLE_ATTRIB 1 @9 ENTITY_ID 0 3 21 -2147483648 -1 #
integer_attrib-name_attrib-gen-attrib $-1 -1 $391 $-1 $321 2 1 1 1 1 1 1 1 1 1 1 1 1 1 0 1 1 1 @8 CUBIT_ID 22 #
plane-surface $-1 -1 -1 $-1 -2.8575000000133506 2.8575000000133506 5.0009351850000003 0.70710678118654746 -0.70710678118654746 0 0 0 -1 forward_v I I I I #
simple-snl-attrib $-1 -1 $-1 $328 $258 1 1 1 1 1 1 1 1 1 1 1 1 0 1 0 1 1 1 @17 NEW_SIMPLE_ATTRIB 1 @9 ENTITY_ID 0 3 40 -2147483648 -1 #
integer_attrib-name_attrib-gen-attrib $-1 -1 $392 $-1 $334 2 1 1 1 1 1 1 1 1 1 1 1 1 1 0 1 1 1 @8 CUBIT_ID 39 #
straight-curve $-1 -1 -1 $-1 1.5875000000267008 4.1275000000000004 5.0009351850000003 0 0 -1 I I #
simple-snl-attrib $-1 -1 $-1 $335 $273 1 1 1 1 1 1 1 1 1 1 1 1 0 1 0 1 1 1 @17 NEW_SIMPLE_ATTRIB 1 @9 ENTITY_ID 0 3 38 -2147483648 -1 #
integer_attrib-name_attrib-gen-attrib $-1 -1 $393 $-1 $336 2 1 1 1 1 1 1 1 1 1 1 1 1 1 0 1 1 1 @8 CUBIT_ID 31 #
point $-1 -1 -1 $-1 1.5875000000267008 4.1275000000000004 5.0018703700000007 #
simple-snl-attrib $-1 -1 $-1 $338 $275 1 1 1 1 1 1 1 1 1 1 1 1 0 1 0 1 1 1 @17 NEW_SIMPLE_ATTRIB 1 @9 ENTITY_ID 0 3 40 -2147483648 -1 #
integer_attrib-name_attrib-gen-attrib $-1 -1 $394 $-1 $339 2 1 1 1 1 1 1 1 1 1 1 1 1 1 0 1 1 1 @8 CUBIT_ID 32 #
point $-1 -1 -1 $-1 1.5875000000267008 4.1275000000000004 5 #
integer_attrib-name_attrib-gen-attrib $-1 -1 $395 $-1 $341 2 1 1 1 1 1 1 1 1 1 1 1 1 1 0 1 1 1 @8 CUBIT_ID 47 #
straight-curve $-1 -1 -1 $-1 -2.8575000000133506 2.8575000000133506 5 0.70710678118654724 0.70710678118654724 0 I I #
integer_attrib-name_attrib-gen-attrib $-1 -1 $396 $-1 $342 2 1 1 1 1 1 1 1 1 1 1 1 1 1 0 1 1 1 @8 CUBIT_ID 48 #
straight-curve $-1 -1 -1 $-1 -2.8575000000133506 2.8575000000133506 5.0018703700000007 -0.70710678118654724 -0.70710678118654724 0 I I #
simple-snl-attrib $-1 -1 $-1 $344 $280 1 1 1 1 1 1 1 1 1 1 1 1 0 1 0 1 1 1 @17 NEW_SIMPLE_ATTRIB 1 @9 ENTITY_ID 0 3 29 -2147483648 -1 #
simple-snl-attrib $-1 -1 $-1 $346 $281 1 1 1 1 1 1 1 1 1 1 1 1 0 1 0 1 1 1 @17 NEW_SIMPLE_ATTRIB 1 @9 ENTITY_ID 0 3 30 -2147483648 -1 #
simple-snl-attrib $-1 -1 $-1 $348 $284 1 1 1 1 1 1 1 1 1 1 1 1 0 1 0 1 1 1 @17 NEW_SIMPLE_ATTRIB 1 @9 ENTITY_ID 0 3 35 -2147483648 -1 #
simple-snl-attrib $-1 -1 $-1 $351 $287 1 1 1 1 1 1 1 1 1 1 1 1 0 1 0 1 1 1 @17 NEW_SIMPLE_ATTRIB 1 @9 ENTITY_ID 0 3 27 -2147483648 -1 #
simple-snl-attrib $-1 -1 $-1 $354 $291 1 1 1 1 1 1 1 1 1 1 1 1 0 1 0 1 1 1 @17 NEW_SIMPLE_ATTRIB 1 @9 ENTITY_ID 0 3 28 -2147483648 -1 #
simple-snl-attrib $-1 -1 $-1 $359 $302 1 1 1 1 1 1 1 1 1 1 1 1 0 1 0 1 1 1 @17 NEW_SIMPLE_ATTRIB 1 @9 ENTITY_ID 0 3 45 -2147483648 -1 #
simple-snl-attrib $-1 -1 $-1 $362 $306 1 1 1 1 1 1 1 1 1 1 1 1 0 1 0 1 1 1 @17 NEW_SIMPLE_ATTRIB 1 @9 ENTITY_ID 0 3 46 -2147483648 -1 #
simple-snl-attrib $-1 -1 $-1 $369 $321 1 1 1 1 1 1 1 1 1 1 1 1 0 1 0 1 1 1 @17 NEW_SIMPLE_ATTRIB 1 @9 ENTITY_ID 0 3 22 -2147483648 -1 #
simple-snl-attrib $-1 -1 $-1 $372 $334 1 1 1 1 1 1 1 1 1 1 1 1 0 1 0 1 1 1 @17 NEW_SIMPLE_ATTRIB 1 @9 ENTITY_ID 0 3 39 -2147483648 -1 #
simple-snl-attrib $-1 -1 $-1 $375 $336 1 1 1 1 1 1 1 1 1 1 1 1 0 1 0 1 1 1 @17 NEW_SIMPLE_ATTRIB 1 @9 ENTITY_ID 0 3 31 -2147483648 -1 #
simple-snl-attrib $-1 -1 $-1 $378 $339 1 1 1 1 1 1 1 1 1 1 1 1 0 1 0 1 1 1 @17 NEW_SIMPLE_ATTRIB 1 @9 ENTITY_ID 0 3 32 -2147483648 -1 #
simple-snl-attrib $-1 -1 $-1 $380 $341 1 1 1 1 1 1 1 1 1 1 1 1 0 1 0 1 1 1 @17 NEW_SIMPLE_ATTRIB 1 @9 ENTITY_ID 0 3 47 -2147483648 -1 #
simple-snl-attrib $-1 -1 $-1 $382 $342 1 1 1 1 1 1 1 1 1 1 1 1 0 1 0 1 1 1 @17 NEW_SIMPLE_ATTRIB 1 @9 ENTITY_ID 0 3 48 -2147483648 -1 #
End-of-ACIS-data 